<?xml version="1.0" encoding="utf-8"?>
<!-- Generator: Adobe Illustrator 19.1.0, SVG Export Plug-In . SVG Version: 6.00 Build 0)  -->
<!DOCTYPE svg PUBLIC "-//W3C//DTD SVG 1.1//EN" "http://www.w3.org/Graphics/SVG/1.1/DTD/svg11.dtd">
<svg version="1.1" id="Layer_1" xmlns="http://www.w3.org/2000/svg" xmlns:xlink="http://www.w3.org/1999/xlink" x="0px" y="0px"
	 viewBox="0 0 400 400" enable-background="new 0 0 400 400" xml:space="preserve">
<defs>
	<filter id="Adobe_OpacityMaskFilter" filterUnits="userSpaceOnUse" x="-34.7" y="283.7" width="362" height="120.7">
		<feColorMatrix  type="matrix" values="1 0 0 0 0  0 1 0 0 0  0 0 1 0 0  0 0 0 1 0"/>
	</filter>
</defs>
<mask maskUnits="userSpaceOnUse" x="-34.7" y="283.7" width="362" height="120.7" id="SVGID_1_">
	<g filter="url(#Adobe_OpacityMaskFilter)">
		
			<radialGradient id="SVGID_2_" cx="146.3337" cy="306.9304" r="181.0067" gradientTransform="matrix(1 0 0 0.3333 0 241.7001)" gradientUnits="userSpaceOnUse">
			<stop  offset="8.588960e-02" style="stop-color:#FFFFFF"/>
			<stop  offset="0.1153" style="stop-color:#E5E5E5"/>
			<stop  offset="0.175" style="stop-color:#B5B5B5"/>
			<stop  offset="0.2399" style="stop-color:#8A8A8A"/>
			<stop  offset="0.3085" style="stop-color:#656565"/>
			<stop  offset="0.3817" style="stop-color:#454545"/>
			<stop  offset="0.4611" style="stop-color:#2C2C2C"/>
			<stop  offset="0.5489" style="stop-color:#181818"/>
			<stop  offset="0.6497" style="stop-color:#0A0A0A"/>
			<stop  offset="0.775" style="stop-color:#020202"/>
			<stop  offset="1" style="stop-color:#000000"/>
		</radialGradient>
		<ellipse fill="url(#SVGID_2_)" cx="146.3" cy="344" rx="181" ry="60.3"/>
	</g>
</mask>
<ellipse opacity="0.4" mask="url(#SVGID_1_)" cx="146.3" cy="344" rx="181" ry="60.3"/>
<linearGradient id="SVGID_3_" gradientUnits="userSpaceOnUse" x1="179.8604" y1="302.762" x2="66.4308" y2="89.4318">
	<stop  offset="0" style="stop-color:#000000"/>
	<stop  offset="0.1557" style="stop-color:#3D3D3D"/>
	<stop  offset="0.3239" style="stop-color:#777777"/>
	<stop  offset="0.4866" style="stop-color:#A8A8A8"/>
	<stop  offset="0.6395" style="stop-color:#CECECE"/>
	<stop  offset="0.7804" style="stop-color:#E9E9E9"/>
	<stop  offset="0.905" style="stop-color:#F9F9F9"/>
	<stop  offset="1" style="stop-color:#FFFFFF"/>
</linearGradient>
<polygon opacity="0.29" fill="url(#SVGID_3_)" points="8,120.5 147,100 146.5,320.5 "/>
<linearGradient id="SVGID_4_" gradientUnits="userSpaceOnUse" x1="116.4404" y1="333.498" x2="4.2481" y2="122.4949">
	<stop  offset="0" style="stop-color:#000000"/>
	<stop  offset="0.1557" style="stop-color:#3D3D3D"/>
	<stop  offset="0.3239" style="stop-color:#777777"/>
	<stop  offset="0.4866" style="stop-color:#A8A8A8"/>
	<stop  offset="0.6395" style="stop-color:#CECECE"/>
	<stop  offset="0.7804" style="stop-color:#E9E9E9"/>
	<stop  offset="0.905" style="stop-color:#F9F9F9"/>
	<stop  offset="1" style="stop-color:#FFFFFF"/>
</linearGradient>
<polygon opacity="0.65" fill="url(#SVGID_4_)" points="43,262.7 144.3,318.7 8,120.5 "/>
<g>
	<path fill="#231F20" d="M266.4,133l0.1,0.1c0.4-0.3,1.2-0.5,2.4-0.5c2,0,3.9,1.1,4.8,2.6c1,1.6,1.2,3,1.2,9.3
		c0,5.2-0.2,6.3-1.3,8.1c-1.5,2.5-4.1,3.9-7.2,3.9c-3.1,0-5.7-1.5-7.2-3.9c-1.1-1.8-1.3-2.9-1.3-8.1c0-4.9,0.3-6,1.1-8.2l7.5-20h6.4
		L266.4,133z M269.3,140.5c0-1.7-1.3-2.9-2.8-2.9c-1.5,0-2.8,1.1-2.8,2.9v7.4c0,1.7,1.3,2.9,2.8,2.9c1.5,0,2.8-1.1,2.8-2.9V140.5z"
		/>
	<path fill="#231F20" d="M285.9,116.2h4.8l8.9,39.9h-5.7l-1.7-8.6h-7.8l-1.7,8.6H277L285.9,116.2z M288.3,127.7h-0.1l-2.8,14.4h5.7
		L288.3,127.7z"/>
	<path fill="#231F20" d="M302.4,116.2h5.5l7.3,21.1h0.1l7.3-21.1h5.5v39.9h-5.7v-24.2h-0.1l-5.7,17.1h-2.9l-5.6-17.1h-0.1v24.2h-5.7
		V116.2z"/>
	<path fill="#231F20" d="M265.1,160.2h4.8l8.9,39.9H273l-1.7-8.6h-7.8l-1.7,8.6h-5.7L265.1,160.2z M267.5,171.7h-0.1l-2.8,14.4h5.7
		L267.5,171.7z"/>
	<path fill="#231F20" d="M282.2,165.6h-6.6v-5.4h18.9v5.4h-6.6v34.5h-5.7V165.6z"/>
	<path fill="#231F20" d="M311.2,165.6h-6.6v-5.4h18.9v5.4H317v34.5h-5.7V165.6z"/>
	<path fill="#231F20" d="M326.1,160.2h5.7v17.1h7.1v-17.1h5.7v39.9h-5.7v-17.8h-7.1v17.8h-5.7V160.2z"/>
	<path fill="#231F20" d="M349.9,160.2h17v5.4h-11.3v11.7h9.9v5.4h-9.9v11.7H367v5.7h-17V160.2z"/>
	<path fill="#231F20" d="M258.4,213.6c0-6.5,4.9-9.7,9.6-9.7c4.6,0,9.6,3.2,9.6,9.7v2h-5.7v-2c0-2.7-1.8-4-3.9-4
		c-2.1,0-3.9,1.3-3.9,4v21.1c0,2.7,1.8,4,3.9,4c2.1,0,3.9-1.3,3.9-4v-7.5h-4.5v-5h10.2v12.5c0,6.5-4.9,9.7-9.6,9.7
		c-4.6,0-9.6-3.2-9.6-9.7V213.6z"/>
	<path fill="#231F20" d="M289,204.2h4.8l8.9,39.9h-5.7l-1.7-8.6h-7.8l-1.7,8.6H280L289,204.2z M291.4,215.7h-0.1l-2.8,14.4h5.7
		L291.4,215.7z"/>
	<path fill="#231F20" d="M305.4,204.2h9.2c6.8,0,10.1,4,10.1,11.7c0,4.6-1.3,8-4.9,10l6.2,18.2h-6l-5.3-17h-3.4v17h-5.7V204.2z
		 M311.1,222h3.2c4,0,4.6-2.2,4.6-6.2c0-4-0.7-6.2-4.9-6.2h-3V222z"/>
	<path fill="#231F20" d="M335.6,204.2h4.8l8.9,39.9h-5.7l-1.7-8.6h-7.8l-1.7,8.6h-5.7L335.6,204.2z M338,215.7h-0.1l-2.8,14.4h5.7
		L338,215.7z"/>
	<path fill="#231F20" d="M351.7,213.6c0-6.5,4.9-9.7,9.6-9.7s9.6,3.2,9.6,9.7v2h-5.7v-2c0-2.7-1.8-4-3.9-4c-2.1,0-3.9,1.3-3.9,4
		v21.1c0,2.7,1.8,4,3.9,4c2.1,0,3.9-1.3,3.9-4v-7.5h-4.5v-5h10.2v12.5c0,6.5-4.9,9.7-9.6,9.7s-9.6-3.2-9.6-9.7V213.6z"/>
	<path fill="#231F20" d="M375.9,204.2h17v5.4h-11.3v11.7h9.9v5.4h-9.9v11.7h11.3v5.7h-17V204.2z"/>
</g>
<g id="pkwANN_2_">
	<g>
		<path d="M227.1,181c-1.5-1.8-2.8-3.5-3.7-4.9c-1.5-2.4-3.4-4.8-5.2-7c-3.7-4.6-7.1-8.9-7.3-13.1c-0.1-3.3,0.7-5.2,1.9-7.5
			c1.1-2.3,2.3-4.9,2.5-8.8c0.3-7.8-2.7-16-5.3-23.3c-0.8-2.1-1.5-4.2-2.1-6c-0.6-1.8-1.1-3.5-1.6-5.3c-2.3-7.5-4.7-15.3-8-21.3
			c-6.7-12.1-16.8-22-29.7-29.4c-0.8,2.1-1.7,4.1-2.7,6c11.6,6.8,20.6,15.7,26.6,26.6c3,5.4,5.2,12.5,7.5,20.1
			c0.5,1.8,1.1,3.6,1.7,5.4c0.6,2,1.4,4.1,2.2,6.3c2.4,6.7,5.1,14.2,4.9,20.8c-0.1,2.6-0.9,4.3-1.9,6.3c-1.3,2.7-2.7,5.7-2.5,10.6
			c0.3,6.3,4.6,11.7,8.7,16.8c1.8,2.2,3.4,4.3,4.8,6.4c1.1,1.8,2.6,3.6,4.2,5.5c3.7,4.5,7.8,9.6,7.6,14.2c-0.2,4.5-3,5.7-8.6,7.8
			c-2.4,0.9-4.9,1.8-7.2,3.3l-2,1.2l0.6,2.3c2.7,10.8,2.1,15-2.2,16.3l-5.3,1.7l4.1,3.8c2.6,2.4,2.2,3.2-0.3,6.9
			c-1.5,2.2-3.4,5-3.7,8.5c-0.3,3.5,0.2,6.8,0.7,9.6c0.9,5.3,1.5,9.2-2.2,13.9c-4.6,5.8-13.2,6.7-25.8,7.4l-0.6,0
			c-10.8,0.6-25.6,1.4-29.7,11.4c-2,4.9-1.8,9.7-1.7,14.3c0.1,2.8,0.2,5.4-0.2,8c2.1,0.5,4.2,1.2,6.3,1.9c0.7-3.5,0.6-6.8,0.4-10.1
			c-0.1-4.1-0.3-8,1.2-11.6c2.5-6.1,16-6.9,24-7.3l0.6,0c11.7-0.7,23.7-1.3,30.5-9.9c5.5-7,4.5-13.4,3.5-19c-0.5-2.7-0.9-5.3-0.7-8
			c0.2-1.8,1.3-3.5,2.6-5.4c1.9-2.8,4.7-7,2.1-11.9c5.8-4.6,4.5-13.3,3.1-19.6c1.3-0.6,2.7-1.1,4.1-1.7c5.5-2.1,12.3-4.6,12.8-13.6
			C236.6,192.5,231.3,186.1,227.1,181z"/>
	</g>
</g>
<g>
	<path fill-rule="evenodd" clip-rule="evenodd" d="M170.9,63.5c0.1-0.5,1-0.3,1.2,0C172.4,64.4,170.6,64.5,170.9,63.5z"/>
	<path fill-rule="evenodd" clip-rule="evenodd" d="M167.3,67.9c0.4,0,0.8,0,1.2,0c0,0.4,0,0.8,0,1.2c-0.4,0-0.8,0-1.2,0
		C167.3,68.7,167.3,68.3,167.3,67.9z"/>
	<path fill-rule="evenodd" clip-rule="evenodd" d="M172,69.1c0.4,0,0.8,0,1.2,0c0,0.4,0,0.8,0,1.2c-0.4,0-0.8,0-1.2,0
		C172,69.9,172,69.5,172,69.1z"/>
	<path fill-rule="evenodd" clip-rule="evenodd" d="M161.8,70.2c0.8,0.7,0.7-0.2,2,0c0,0.4,0,0.8,0,1.2C162.6,70.8,162,72,161.8,70.2
		z"/>
	<path fill-rule="evenodd" clip-rule="evenodd" d="M168.5,76.2c-2.3-0.1-5,0.3-6.7-0.4c0.5-1.1,2.4-0.7,3.9-0.8
		C166.3,73,169.4,72.9,168.5,76.2z"/>
	<path fill-rule="evenodd" clip-rule="evenodd" d="M159,75c0.4,0,0.8,0,1.2,0c0,0.4,0,0.8,0,1.2c-0.4,0-0.8,0-1.2,0
		C159,75.8,159,75.4,159,75z"/>
	<path fill-rule="evenodd" clip-rule="evenodd" d="M174.8,75c0.3,0,0.5,0,0.8,0c0.1,0.6-0.4,0.7-0.4,1.2c-0.3,0-0.5,0-0.8,0
		C174.3,75.5,174.8,75.5,174.8,75z"/>
	<path fill-rule="evenodd" clip-rule="evenodd" d="M167.3,79.3c0.1-0.5,0.7-0.3,1.2-0.4c-0.3,1.2-0.3,0.8,0,2c-0.4,0-0.8,0-1.2,0
		C166.8,80,168.3,79.4,167.3,79.3z"/>
	<path fill-rule="evenodd" clip-rule="evenodd" d="M192.1,80.9c0.4,0,0.8,0,1.2,0c0,0.4,0,0.8,0,1.2c-0.4,0-0.8,0-1.2,0
		C192.1,81.7,192.1,81.3,192.1,80.9z"/>
	<path fill-rule="evenodd" clip-rule="evenodd" d="M175.6,82.5c0.2-1,1.8-0.3,1.2,0.8C176.4,83,176.4,82.3,175.6,82.5z"/>
	<path fill-rule="evenodd" clip-rule="evenodd" d="M168.9,83.2c0.7-0.1,0.7,0.3,0.8,0.8c-0.3-0.1-0.4,0.2-0.4,0.4
		C168.8,84.4,169,83.7,168.9,83.2z"/>
	<path fill-rule="evenodd" clip-rule="evenodd" d="M173.2,83.2c0.4,0,0.8,0,1.2,0c0,0.4,0,0.8,0,1.2c-0.4,0-0.8,0-1.2,0
		C173.2,84,173.2,83.6,173.2,83.2z"/>
	<path fill-rule="evenodd" clip-rule="evenodd" d="M173.2,84.8C172,86.3,171.9,83.6,173.2,84.8L173.2,84.8z"/>
	<path fill-rule="evenodd" clip-rule="evenodd" d="M181.5,84.4c1.2,0,2.6-0.2,2.4,1.2c-0.7-0.1-0.8,0.4-0.4,0.4
		c-0.4,0.7-1.4,1-2,0.4C183.5,85.4,181.4,86.4,181.5,84.4z"/>
	<path fill-rule="evenodd" clip-rule="evenodd" d="M166.1,86c0.6,1.3-2.4,1-2.4,0.4C163.2,85.1,166.1,85.4,166.1,86z"/>
	<path fill-rule="evenodd" clip-rule="evenodd" d="M189.8,85.6c0.9-0.1,1.3,0.3,1.2,1.2c-0.4,0-0.8,0-1.2,0
		C189.8,86.4,189.8,86,189.8,85.6z"/>
	<path fill-rule="evenodd" clip-rule="evenodd" d="M151.9,86.8c0.4,0,0.8,0,1.2,0c0,0.4,0,0.8,0,1.2c-0.4,0-0.8,0-1.2,0
		C151.9,87.6,151.9,87.2,151.9,86.8z"/>
	<path fill-rule="evenodd" clip-rule="evenodd" d="M155.5,88.8c-0.4-1.3,1.2-0.6,2-0.8c0,1.8,1.1,2.5,2.8,2.8
		c0.2,1.6-2.5,0.4-3.5,0.8c0-0.4,0-0.8,0-1.2C157.8,89.2,157.1,89.8,155.5,88.8z"/>
	<path fill-rule="evenodd" clip-rule="evenodd" d="M181.5,88c0.4,0,0.8,0,1.2,0c0,0.4,0,0.8,0,1.2c-0.4,0-0.8,0-1.2,0
		C181.5,88.8,181.5,88.4,181.5,88z"/>
	<path fill-rule="evenodd" clip-rule="evenodd" d="M161.8,88.8c1.2-0.4,0.7,0.9,0.8,1.6c-0.4,0-0.8,0-1.2,0
		C161.2,89.5,161.7,89.3,161.8,88.8z"/>
	<path fill-rule="evenodd" clip-rule="evenodd" d="M169.7,89.2c0.4,0,0.8,0,1.2,0c0,0.4,0,0.8,0,1.2c-0.4,0-0.8,0-1.2,0
		C169.7,89.9,169.7,89.6,169.7,89.2z"/>
	<path fill-rule="evenodd" clip-rule="evenodd" d="M189,89.2c0.3,0,0.5,0,0.8,0c0,0.4,0,0.8,0,1.2c-0.4,0-0.8,0-1.2,0
		C188.5,89.7,189,89.7,189,89.2z"/>
	<path fill-rule="evenodd" clip-rule="evenodd" d="M176,90.3c1.2,0,0.8,1.7,0.4,2.4C174.9,93.1,175.7,90.6,176,90.3z"/>
	<path fill-rule="evenodd" clip-rule="evenodd" d="M183.9,93.5c0.1-0.1,0.8-0.7,1.2-0.4C185.3,93.4,183.5,94.2,183.9,93.5z"/>
	<path fill-rule="evenodd" clip-rule="evenodd" d="M155.9,93.9c1.4-0.4,0.5,1.6,0.8,2.4C155.2,96.6,155.3,94.5,155.9,93.9z"/>
	<path fill-rule="evenodd" clip-rule="evenodd" d="M163.8,96.2c0.4,0,0.8,0,1.2,0c0,0.4,0,0.8,0,1.2c-0.4,0-0.8,0-1.2,0
		C163.8,97,163.8,96.6,163.8,96.2z"/>
	<path fill-rule="evenodd" clip-rule="evenodd" d="M186.6,97c1.3-0.5,1,2.7,0.4,2.8C185.5,100.1,186.3,97.4,186.6,97z"/>
	<path fill-rule="evenodd" clip-rule="evenodd" d="M159,98.6c-0.6,1.5,1,0.8,1.2,1.6c-0.7,0.8-1.4,1.8-1.6,3.2
		c-1.9,0.1,0.6-4.2-2-3.5C156.4,98.4,157.8,98.6,159,98.6z"/>
	<path fill-rule="evenodd" clip-rule="evenodd" d="M163.8,98.6c0.6-0.1,0.7,0.4,1.2,0.4C165.1,99.8,163.2,99.6,163.8,98.6z"/>
	<path fill-rule="evenodd" clip-rule="evenodd" d="M179.1,98.6c0.4,0,0.8,0,1.2,0c0,0.4,0,0.8,0,1.2c-0.4,0-0.8,0-1.2,0
		C179.1,99.4,179.1,99,179.1,98.6z"/>
	<path fill-rule="evenodd" clip-rule="evenodd" d="M162.6,99.8c0.4,0,0.8,0,1.2,0c0,0.4,0,0.8,0,1.2c-0.4,0-0.8,0-1.2,0
		C162.6,100.6,162.6,100.2,162.6,99.8z"/>
	<path fill-rule="evenodd" clip-rule="evenodd" d="M166.1,99.8c0.4,0,0.8,0,1.2,0c0,0.4,0,0.8,0,1.2c-0.4,0-0.8,0-1.2,0
		C166.1,100.6,166.1,100.2,166.1,99.8z"/>
	<path fill-rule="evenodd" clip-rule="evenodd" d="M196.9,102.2c0.9-0.1,1.3,0.3,1.2,1.2c-0.4,0-0.8,0-1.2,0
		C196.9,102.9,196.9,102.6,196.9,102.2z"/>
	<path fill-rule="evenodd" clip-rule="evenodd" d="M151.9,103.3c0.4,0,0.8,0,1.2,0c0,0.4,0,0.8,0,1.2c-0.4,0-0.8,0-1.2,0
		C151.9,104.1,151.9,103.7,151.9,103.3z"/>
	<path fill-rule="evenodd" clip-rule="evenodd" d="M169.7,103.7C168.7,105,167.8,102.6,169.7,103.7L169.7,103.7z"/>
	<path fill-rule="evenodd" clip-rule="evenodd" d="M187.4,103.3c0.4,0,0.8,0,1.2,0c0,0.4,0,0.8,0,1.2c-0.4,0-0.8,0-1.2,0
		C187.4,104.1,187.4,103.7,187.4,103.3z"/>
	<path fill-rule="evenodd" clip-rule="evenodd" d="M182.7,104.5c0.4,0,0.8,0,1.2,0c0,0.4,0,0.8,0,1.2c-0.4,0-0.8,0-1.2,0
		C182.7,105.3,182.7,104.9,182.7,104.5z"/>
	<path fill-rule="evenodd" clip-rule="evenodd" d="M146,105.7c0.4,0,0.8,0,1.2,0c0,0.4,0,0.8,0,1.2c-0.4,0-0.8,0-1.2,0
		C146,106.5,146,106.1,146,105.7z"/>
	<path fill-rule="evenodd" clip-rule="evenodd" d="M153.1,105.7c0.4,0,0.8,0,1.2,0c-0.7,1.9,1.9,0.5,1.2,2.4
		C154.1,107.9,153.3,107.1,153.1,105.7z"/>
	<path fill-rule="evenodd" clip-rule="evenodd" d="M159,105.7c0.4,0,0.8,0,1.2,0c0,0.8,0,1.6,0,2.4C158.8,108.3,159,106.9,159,105.7
		z"/>
	<path fill-rule="evenodd" clip-rule="evenodd" d="M150.8,107.3c0.6,1.3-2.4,1-2.4,0.4C147.8,106.4,150.8,106.7,150.8,107.3z"/>
	<path fill-rule="evenodd" clip-rule="evenodd" d="M161.4,106.9c0.4,0,0.8,0,1.2,0c0,0.4,0,0.8,0,1.2c-0.4,0-0.8,0-1.2,0
		C161.4,107.7,161.4,107.3,161.4,106.9z"/>
	<path fill-rule="evenodd" clip-rule="evenodd" d="M188.6,106.9c0.4,0,0.8,0,1.2,0c-0.2,0.7,0.5,2.3-0.4,2.4
		C188,109.6,188.8,107.7,188.6,106.9z"/>
	<path fill-rule="evenodd" clip-rule="evenodd" d="M165,108.1c0.4,0,0.8,0,1.2,0c0,0.4,0,0.8,0,1.2c-0.4-0.2-0.7-0.5-0.8,0
		C164.9,109.2,165,108.5,165,108.1z"/>
	<path fill-rule="evenodd" clip-rule="evenodd" d="M192.1,108.1c0.4,0,0.8,0,1.2,0c0,0.4,0,0.8,0,1.2c-0.4,0-0.8,0-1.2,0
		C192.1,108.9,192.1,108.5,192.1,108.1z"/>
	<path fill-rule="evenodd" clip-rule="evenodd" d="M198,108.1c0.4,0,0.8,0,1.2,0c0,0.8,0,1.6,0,2.4c-0.7-0.2-2.3,0.5-2.4-0.4
		C196.5,108.6,198.8,109.9,198,108.1z"/>
	<path fill-rule="evenodd" clip-rule="evenodd" d="M147.2,109.2c0.4,0,0.8,0,1.2,0c0,0.4,0,0.8,0,1.2c-0.5,0-1,0-1.6,0
		C147,110.1,147.2,109.8,147.2,109.2z"/>
	<path fill-rule="evenodd" clip-rule="evenodd" d="M167.7,109.2c0.8,1,2.3,1.3,3.9,1.6c-0.2,1.1-2.5,0.1-2,2c-0.8,0-1.6,0-2.4,0
		C168.2,111.9,166.6,110.7,167.7,109.2z"/>
	<path fill-rule="evenodd" clip-rule="evenodd" d="M172,109.2c0.4,0,0.8,0,1.2,0c0,0.4,0,0.8,0,1.2c-0.4,0-0.8,0-1.2,0
		C172,110,172,109.6,172,109.2z"/>
	<path fill-rule="evenodd" clip-rule="evenodd" d="M182.7,111.2c-0.1-0.6,2.1-0.6,1.2,0.4C184,111.5,182.7,111.2,182.7,111.2z"/>
	<path fill-rule="evenodd" clip-rule="evenodd" d="M148.4,111.6c0.4,0,0.8,0,1.2,0c0,0.4,0,0.8,0,1.2c-0.4,0-0.8,0-1.2,0
		C148.4,112.4,148.4,112,148.4,111.6z"/>
	<path fill-rule="evenodd" clip-rule="evenodd" d="M165,111.6c0.4,0,0.8,0,1.2,0c0,0.4,0,0.8,0,1.2c-0.4,0-0.8,0-1.2,0
		C165,112.4,165,112,165,111.6z"/>
	<path fill-rule="evenodd" clip-rule="evenodd" d="M202.8,112c-0.1,0.9-1,0.9-1.6,0.4C201.3,111.5,202.2,111.5,202.8,112z"/>
	<path fill-rule="evenodd" clip-rule="evenodd" d="M162.6,112.8c0.4,0,0.8,0,1.2,0c0.1,0.6-0.4,0.7-0.4,1.2c-0.3,0-0.5,0-0.8,0
		C162.6,113.6,162.6,113.2,162.6,112.8z"/>
	<path fill-rule="evenodd" clip-rule="evenodd" d="M178,112.8c0.4,0,0.8,0,1.2,0c0,0.4,0,0.8,0,1.2c-0.4,0-0.8,0-1.2,0
		C178,113.6,178,113.2,178,112.8z"/>
	<path fill-rule="evenodd" clip-rule="evenodd" d="M200.4,113.2c-0.2,0.5-0.5,0.8-1.2,0.8C199,113.1,199.8,113.2,200.4,113.2z"/>
	<path fill-rule="evenodd" clip-rule="evenodd" d="M176,114c0.3,0,0.5,0,0.8,0c0,0.4,0,0.8,0,1.2c-0.4,0-0.8,0-1.2,0
		C175.5,114.5,176,114.5,176,114z"/>
	<path fill-rule="evenodd" clip-rule="evenodd" d="M200.4,114c0.4,0,0.8,0,1.2,0c0,0.4,0,0.8,0,1.2c-0.4,0-0.8,0-1.2,0
		C200.4,114.8,200.4,114.4,200.4,114z"/>
	<path fill-rule="evenodd" clip-rule="evenodd" d="M205.1,114c0.4,0,0.8,0,1.2,0c-0.1,1.1,0.6,2.9-1.2,2.4c0-0.4,0.5-0.3,0.8-0.4
		C205.5,115.5,204.8,115.2,205.1,114z"/>
	<path fill-rule="evenodd" clip-rule="evenodd" d="M181.5,118.7c0-0.5,0-1,0-1.6c1.2-0.5,3.2-0.5,2.4-2c0.8,0.9,1.1-0.2,2.4,0
		C185.2,116.9,184.7,119.1,181.5,118.7z"/>
	<path fill-rule="evenodd" clip-rule="evenodd" d="M167.3,116.3c0.4,0,0.8,0,1.2,0c0,0.4,0,0.8,0,1.2c-0.4,0-0.8,0-1.2,0
		C167.3,117.1,167.3,116.7,167.3,116.3z"/>
	<path fill-rule="evenodd" clip-rule="evenodd" d="M172,116.3c1.5-0.3,1.4,1.8,0.8,2.4C171.8,118.7,172,117.4,172,116.3z"/>
	<path fill-rule="evenodd" clip-rule="evenodd" d="M190.6,116.7c0.1,1.6-2.7,0.4-3.9,0.8C187,116,190.3,116.3,190.6,116.7z"/>
	<path fill-rule="evenodd" clip-rule="evenodd" d="M195.7,117.9c0.1,0.4,0.4,0.2,0.4,0c0.6,0.3-0.4,2.2-1.6,2c0-0.8,0-1.6,0-2.4
		c0.5,0,1,0,1.6,0C196.1,117.9,195.9,117.9,195.7,117.9z"/>
	<path fill-rule="evenodd" clip-rule="evenodd" d="M199.2,117.9c0.6,1.3-2.4,1-2.4,0.4C196.3,117.1,199.2,117.3,199.2,117.9z"/>
	<path fill-rule="evenodd" clip-rule="evenodd" d="M149.6,118.7c1.5,0,1.1,0.4,2.4,0c-0.2,0.3-0.4,0.6-0.4,1.2
		C150.5,119.9,149.1,120.3,149.6,118.7z"/>
	<path fill-rule="evenodd" clip-rule="evenodd" d="M187.4,119.9c0.4,0,0.8,0,1.2,0c0.1,0.6-0.4,0.7-0.4,1.2c-0.3,0-0.5,0-0.8,0
		C187.4,120.7,187.4,120.3,187.4,119.9z"/>
	<path fill-rule="evenodd" clip-rule="evenodd" d="M202.8,119.9c0.4,0,0.8,0,1.2,0c-0.2,1.1,0.5,3.1-0.4,3.5
		C202,123.6,203.1,121,202.8,119.9z"/>
	<path fill-rule="evenodd" clip-rule="evenodd" d="M160.6,121.1c0.3,0,0.5,0,0.8,0c0,0.4,0,0.8,0,1.2c-0.4,0-0.8,0-1.2,0
		C160.1,121.6,160.6,121.6,160.6,121.1z"/>
	<path fill-rule="evenodd" clip-rule="evenodd" d="M146,122.2c0.4,0,0.8,0,1.2,0c0.5,1.2-0.6,1-0.8,1.6
		C145.9,123.7,146.1,122.8,146,122.2z"/>
	<path fill-rule="evenodd" clip-rule="evenodd" d="M153.1,123.4c0.4,0,0.8,0,1.2,0c0,0.4,0,0.8,0,1.2c-0.4,0-0.8,0-1.2,0
		C153.1,124.2,153.1,123.8,153.1,123.4z"/>
	<path fill-rule="evenodd" clip-rule="evenodd" d="M180.3,123.4c0.4,0,0.8,0,1.2,0c0,0.4,0,0.8,0,1.2c-0.4,0-0.8,0-1.2,0
		C180.3,124.2,180.3,123.8,180.3,123.4z"/>
	<path fill-rule="evenodd" clip-rule="evenodd" d="M193.3,123.4c0.7,0.7,1-0.3,2.4,0c0.4,1.7-1.7,0.9-1.6,2.4
		C193.1,125.8,193.3,124.5,193.3,123.4z"/>
	<path fill-rule="evenodd" clip-rule="evenodd" d="M155.5,124.6c0.4,0,0.8,0,1.2,0c0,0.4,0,0.8,0,1.2c-0.4,0-0.8,0-1.2,0
		C155.5,125.4,155.5,125,155.5,124.6z"/>
	<path fill-rule="evenodd" clip-rule="evenodd" d="M157.9,125c0.1-0.2,0.8-0.7,1.2-0.4C159.8,125.3,157.3,126.5,157.9,125z"/>
	<path fill-rule="evenodd" clip-rule="evenodd" d="M172,125c0.6,1.3-2.4,1-2.4,0.4C169.1,124.1,172,124.4,172,125z"/>
	<path fill-rule="evenodd" clip-rule="evenodd" d="M185,125.8c0.4,0,0.8,0,1.2,0c0,0.4,0,0.8,0,1.2c-0.4,0-0.8,0-1.2,0
		C185,126.6,185,126.2,185,125.8z"/>
	<path fill-rule="evenodd" clip-rule="evenodd" d="M156.7,127c0.4,0,0.8,0,1.2,0c-0.2,0.7,0.5,2.3-0.4,2.4
		C156,129.7,156.9,127.8,156.7,127z"/>
	<path fill-rule="evenodd" clip-rule="evenodd" d="M176.8,129.3c-0.6,1.5,1,0.8,1.2,1.6c0.4,1.4-1.9,0.2-1.2,2c-1.2,0-2.4,0-2.4-1.2
		c1,0,1.9,0.1,2.4-0.4c-0.2-0.9-1.7-0.6-1.2-2.4c0.5,0.5,1.5-1.5,4.3-0.8c0.5-0.1,0.3-0.7,0.4-1.2c0.8,0,1.6,0,2.4,0
		c0.7,3.2-1.9,3.1-2.8,4.7C178.4,131.4,178.6,129.3,176.8,129.3z"/>
	<path fill-rule="evenodd" clip-rule="evenodd" d="M148.4,128.6c0.6,1.3-2.4,1-2.4,0.4C145.5,127.7,148.4,128,148.4,128.6z"/>
	<path fill-rule="evenodd" clip-rule="evenodd" d="M187.4,128.2c-0.1,0.7,0.7,1,0,1.2c0,0.4,0.5,0.3,0.8,0.4
		c-0.5,0.6-1.4,0.7-2.4,0.8c0.6-1.3,0.6,0.1,0.4-2.4C186.6,128.2,187,128.2,187.4,128.2z"/>
	<path fill-rule="evenodd" clip-rule="evenodd" d="M201.6,128.2c0.4,0,0.8,0,1.2,0c0,0.4,0,0.8,0,1.2c-0.4,0-0.8,0-1.2,0
		C201.6,128.9,201.6,128.6,201.6,128.2z"/>
	<path fill-rule="evenodd" clip-rule="evenodd" d="M154.3,129.3c0.4,0,0.8,0,1.2,0c-0.1,1.4,0.1,2.6,0.4,3.5c-0.9,0-1.8,0-2.8,0
		c0.7-1.8-1.6-0.5-1.2-2C153,130.7,154.6,131,154.3,129.3z"/>
	<path fill-rule="evenodd" clip-rule="evenodd" d="M173.2,129.3c0.3,0.2,0.7,0.5,0.8,0c0.3-0.1,0.4,0.2,0.4,0.4c0,0.3,0,0.5,0,0.8
		C174,130.1,173,130.4,173.2,129.3z"/>
	<path fill-rule="evenodd" clip-rule="evenodd" d="M182.3,130.9c0.1-0.6,2.7-0.6,2.8,0c0.6,1.7-2,0.1-2,1.2
		C182.5,132,182.9,130.9,182.3,130.9z"/>
	<path fill-rule="evenodd" clip-rule="evenodd" d="M200.4,130.5c0.4,0,0.8,0,1.2,0c0,0.4,0,0.8,0,1.2c-0.4,0-0.8,0-1.2,0
		C200.4,131.3,200.4,130.9,200.4,130.5z"/>
	<path fill-rule="evenodd" clip-rule="evenodd" d="M157.9,132.5c0.3,0.2,0.6,0.4,1.2,0.4c0,0.3,0,0.5,0,0.8
		c-0.3,0.2-0.6,0.4-1.2,0.4C157.9,133.5,157.9,133,157.9,132.5z"/>
	<path fill-rule="evenodd" clip-rule="evenodd" d="M173.2,132.9c0.4,0,0.8,0,1.2,0c0,0.4,0,0.8,0,1.2c-0.4,0-0.8,0-1.2,0
		C173.2,133.7,173.2,133.3,173.2,132.9z"/>
	<path fill-rule="evenodd" clip-rule="evenodd" d="M182.7,132.9c-0.2,0.7,0.5,2.3-0.4,2.4c-0.9-0.5-1.5-1.1-2-2
		C180.8,132.8,181.7,132.8,182.7,132.9z"/>
	<path fill-rule="evenodd" clip-rule="evenodd" d="M201.6,132.9c0.9-0.1,1.3,0.3,1.2,1.2C201.9,134.1,201.5,133.7,201.6,132.9z"/>
	<path fill-rule="evenodd" clip-rule="evenodd" d="M159,134.1c0.4,0,0.8,0,1.2,0c0,0.4,0,0.8,0,1.2c-0.4,0-0.8,0-1.2,0
		C159,134.9,159,134.5,159,134.1z"/>
	<path fill-rule="evenodd" clip-rule="evenodd" d="M191,134.1c0.4,0,0.8,0,1.2,0c0,0.4,0,0.8,0,1.2c-0.4,0-0.8,0-1.2,0
		C191,134.9,191,134.5,191,134.1z"/>
	<path fill-rule="evenodd" clip-rule="evenodd" d="M206.3,135.3c0.4,0,0.8,0,1.2,0c0,0.4,0,0.8,0,1.2c-0.4,0-0.8,0-1.2,0
		C206.3,136,206.3,135.6,206.3,135.3z"/>
	<path fill-rule="evenodd" clip-rule="evenodd" d="M146,136.4C146.4,138.3,144.2,137.1,146,136.4L146,136.4z"/>
	<path fill-rule="evenodd" clip-rule="evenodd" d="M155.5,136.4c0.4,0,0.8,0,1.2,0c0,0.8,0,1.6,0,2.4c-1.4-0.9-1.3,0.8-2.4,0
		c-0.2-1,0.2-1.4,1.2-1.2C155.5,137.2,155.5,136.8,155.5,136.4z"/>
	<path fill-rule="evenodd" clip-rule="evenodd" d="M205.5,136.4c0.5,0.2,0.8,0.5,0.8,1.2C205,138,205,137,205.5,136.4z"/>
	<path fill-rule="evenodd" clip-rule="evenodd" d="M194.5,137.6c0.4,0,0.8,0,1.2,0c0,0.4,0,0.8,0,1.2c-0.4,0-0.8,0-1.2,0
		C194.5,138.4,194.5,138,194.5,137.6z"/>
	<path fill-rule="evenodd" clip-rule="evenodd" d="M174.4,138.8c0.4,0,0.8,0,1.2,0c0,0.8,0,1.6,0,2.4c-0.7-0.2-2.3,0.5-2.4-0.4
		C172.8,139.3,175.1,140.6,174.4,138.8z"/>
	<path fill-rule="evenodd" clip-rule="evenodd" d="M182.7,138.8c0.4,0,0.8,0,1.2,0c-0.3,1.6,0.2,2.5,1.2,2.8c-1.2,2.3-3.1-1-4.7-0.8
		C179.9,138.9,183.6,141.2,182.7,138.8z"/>
	<path fill-rule="evenodd" clip-rule="evenodd" d="M154.7,139.6c1.3-0.5,1,2.7,0.4,2.8C153.8,142.8,154.1,139.7,154.7,139.6z"/>
	<path fill-rule="evenodd" clip-rule="evenodd" d="M206.3,140c1.2,0.3,2,0,2.4,0.4c-0.6,0.8-1.3,1.6-1.6,2.8
		c-0.3,1.1,1.9-0.3,1.6,0.8c0.4,1.4-1.6,0.5-2.4,0.8C206.8,141.9,206.5,143,206.3,140z"/>
	<path fill-rule="evenodd" clip-rule="evenodd" d="M144.9,141.2c1.2,0,2.6-0.2,2.4,1.2C146.9,141.5,144.4,143.5,144.9,141.2z"/>
	<path fill-rule="evenodd" clip-rule="evenodd" d="M149.6,141.2c0.7,0.2,2.3-0.5,2.4,0.4c-0.1,1.1-1.4,0.9-1.6,2
		C149,143.9,149.8,142,149.6,141.2z"/>
	<path fill-rule="evenodd" clip-rule="evenodd" d="M147.6,142.3c0.3,0,0.5,0,0.8,0c0,0.4,0,0.8,0,1.2c-0.4,0-0.8,0-1.2,0
		C147.1,142.9,147.6,142.8,147.6,142.3z"/>
	<path fill-rule="evenodd" clip-rule="evenodd" d="M176,142.3c0.7-0.1,0.7,0.3,0.8,0.8c-0.3-0.1-0.4,0.2-0.4,0.4
		C175.9,143.5,176,142.8,176,142.3z"/>
	<path fill-rule="evenodd" clip-rule="evenodd" d="M180.7,142.3c0.8-0.2,0.8,0.6,0.8,1.2c-0.4,0-0.8,0-1.2,0
		C180.5,143.2,180.7,142.9,180.7,142.3z"/>
	<path fill-rule="evenodd" clip-rule="evenodd" d="M144.9,143.5c0.4,0,0.8,0,1.2,0c0,0.4,0,0.8,0,1.2c-0.4,0-0.8,0-1.2,0
		C144.9,144.3,144.9,143.9,144.9,143.5z"/>
	<path fill-rule="evenodd" clip-rule="evenodd" d="M194.9,143.9c-0.5,1-1.7,1.2-2.4,2c-1.6,0.3,0.4-1.7-1.6-1.6
		C191,143.1,194.3,143.3,194.9,143.9z"/>
	<path fill-rule="evenodd" clip-rule="evenodd" d="M147.2,144.7c0.8,0,1.6,0,2.4,0c-0.2,1,0.2,1.4,1.2,1.2c-0.2,0.7,0.5,2.3-0.4,2.4
		C149.2,147.2,147.7,146.5,147.2,144.7z"/>
	<path fill-rule="evenodd" clip-rule="evenodd" d="M165,144.7c0.4,0,0.8,0,1.2,0c0,0.4,0,0.8,0,1.2c-0.4,0-0.8,0-1.2,0
		C165,145.5,165,145.1,165,144.7z"/>
	<path fill-rule="evenodd" clip-rule="evenodd" d="M195.3,145.1c-0.3-0.6,1.9-0.6,1.6,0c-0.9,0.7-1.2,2-1.6,3.2
		c-1.4,0.4-0.5-1.6-0.8-2.4C195.1,146.2,196.2,145.1,195.3,145.1z"/>
	<path fill-rule="evenodd" clip-rule="evenodd" d="M186.2,145.5C187.4,144,187.6,146.7,186.2,145.5L186.2,145.5z"/>
	<path fill-rule="evenodd" clip-rule="evenodd" d="M161.4,147.1c-0.7-0.2-2.3,0.5-2.4-0.4C158.8,145.1,161.8,146,161.4,147.1z"/>
	<path fill-rule="evenodd" clip-rule="evenodd" d="M183.1,146.3c-0.1-0.9,1.4-0.2,2-0.4c-0.9,2.5,0.4,2.4-0.4,4.7
		c-1.6,0.1,0-3.1-2-2.8C182.2,146.9,184.2,146.6,183.1,146.3z"/>
	<path fill-rule="evenodd" clip-rule="evenodd" d="M202.8,145.9c0.4,0,0.8,0,1.2,0c0,0.4,0,0.8,0,1.2c-0.4,0-0.8,0-1.2,0
		C202.8,146.7,202.8,146.3,202.8,145.9z"/>
	<path fill-rule="evenodd" clip-rule="evenodd" d="M206.3,146.7c0.6,0.3,1.5,0.3,1.2,1.6c-0.8,0.2-1-0.3-1.6-0.4
		C206.1,147.5,206.3,147.2,206.3,146.7z"/>
	<path fill-rule="evenodd" clip-rule="evenodd" d="M155.5,148.3c0.4,0,0.8,0,1.2,0c0,0.4,0,0.8,0,1.2
		C155.8,149.5,155.4,149.1,155.5,148.3z"/>
	<path fill-rule="evenodd" clip-rule="evenodd" d="M163.8,148.3c0.4,0,0.8,0,1.2,0c0,0.4,0,0.8,0,1.2c-0.5,0-1.1,0-1.6,0
		C163.6,149.1,163.8,148.8,163.8,148.3z"/>
	<path fill-rule="evenodd" clip-rule="evenodd" d="M178,148.6c0.6,1.3-2.4,1-2.4,0.4C175,147.8,177.9,148,178,148.6z"/>
	<path fill-rule="evenodd" clip-rule="evenodd" d="M192.5,148.3c1.2-0.4,0.7,0.9,0.8,1.6c0.4-0.2,0.7-0.5,0.8,0c0.3,1.5-1.4,0-2,0
		C192.2,149.2,191.9,148.3,192.5,148.3z"/>
	<path fill-rule="evenodd" clip-rule="evenodd" d="M198,148.6c0.3-0.7,0.7-0.1,1.2,0c-0.1,0.3-0.4,0.4-0.4,0.8c-0.3,0-0.5,0-0.8,0
		C198.3,149.1,198.5,148.7,198,148.6z"/>
	<path fill-rule="evenodd" clip-rule="evenodd" d="M155.5,150.6c0.8,0,1.6,0,2.4,0c0,0.8,0,1.6,0,2.4
		C156.5,152.8,155.7,152,155.5,150.6z"/>
	<path fill-rule="evenodd" clip-rule="evenodd" d="M167.3,150.6c0.4,0,0.8,0,1.2,0c0,0.5,0,1.1,0,1.6
		C167.9,151.8,167,151.9,167.3,150.6z"/>
	<path fill-rule="evenodd" clip-rule="evenodd" d="M181.5,150.6c0.4,0,0.8,0,1.2,0c0,0.4,0,0.8,0,1.2c-0.4,0-0.8,0-1.2,0
		C181.5,151.4,181.5,151,181.5,150.6z"/>
	<path fill-rule="evenodd" clip-rule="evenodd" d="M207.5,151.4c0,0.5,0,1.1,0,1.6c-2.1,0-2.3,1.9-5.1,1.2c-0.4-2.1,3.3-0.1,2.8-2.4
		C206.3,152.1,206.6,151.4,207.5,151.4z"/>
	<path fill-rule="evenodd" clip-rule="evenodd" d="M175.6,151.8c0.9-0.2,0.6,0.8,1.2,0.8C176.6,153.6,175.2,152.6,175.6,151.8z"/>
	<path fill-rule="evenodd" clip-rule="evenodd" d="M208.7,151.8c0.9-0.5,1.5,1,1.6,0c1.2,0.6-0.5,1.6-1.6,1.2
		C208.7,152.6,208.7,152.2,208.7,151.8z"/>
	<path fill-rule="evenodd" clip-rule="evenodd" d="M183.9,153c1.5,0.7,3.1,1.5,4.3,1.6c0.1,1.6-2.7,0.4-3.9,0.8
		C184.3,154.4,183.6,154.2,183.9,153z"/>
	<path fill-rule="evenodd" clip-rule="evenodd" d="M199.2,153c1.4-0.2,1.2,1.2,1.2,2.4c-0.7-0.2-2.3,0.5-2.4-0.4
		C197.7,153.5,200,154.8,199.2,153z"/>
	<path fill-rule="evenodd" clip-rule="evenodd" d="M147.2,154.2c0.4,0,0.8,0,1.2,0c0,0.4,0,0.8,0,1.2c-0.4,0-0.8,0-1.2,0
		C147.2,155,147.2,154.6,147.2,154.2z"/>
	<path fill-rule="evenodd" clip-rule="evenodd" d="M153.1,154.2c0.4,0,0.8,0,1.2,0c0,0.4,0,0.8,0,1.2c-0.4,0-0.8,0-1.2,0
		C153.1,155,153.1,154.6,153.1,154.2z"/>
	<path fill-rule="evenodd" clip-rule="evenodd" d="M194.5,154.6C193.5,155.8,192.6,153.5,194.5,154.6L194.5,154.6z"/>
	<path fill-rule="evenodd" clip-rule="evenodd" d="M206.3,158.9c-0.8,0-1.6,0-2.4,0c0-2-2.4-1.5-2.4-3.5
		C203.4,154.8,206.9,155.8,206.3,158.9z"/>
	<path fill-rule="evenodd" clip-rule="evenodd" d="M204,156.9C204.9,158.9,205,155.6,204,156.9L204,156.9z"/>
	<path fill-rule="evenodd" clip-rule="evenodd" d="M182.7,155.7c0.8-0.1,1.2,0.1,1.2,0.8c-0.4,0-0.8,0-1.2,0
		C182.7,156.3,182.7,156,182.7,155.7z"/>
	<path fill-rule="evenodd" clip-rule="evenodd" d="M146.8,157.3c0.6,0.1,0.6,2.7,0,2.8C145.3,160.3,146.1,157.3,146.8,157.3z"/>
	<path fill-rule="evenodd" clip-rule="evenodd" d="M151.9,158.1c0.3-0.7,0.7-0.1,1.2,0c-0.1,0.3-0.4,0.4-0.4,0.8c-0.3,0-0.5,0-0.8,0
		C152.2,158.5,152.4,158.2,151.9,158.1z"/>
	<path fill-rule="evenodd" clip-rule="evenodd" d="M157.9,158.1c0.6,1.3-2.4,1-2.4,0.4C154.9,157.2,157.9,157.5,157.9,158.1z"/>
	<path fill-rule="evenodd" clip-rule="evenodd" d="M183.9,157.7c0,0.4,0,0.8,0,1.2c-1.2,0.3-1.2-0.7-2.4-0.4
		C182,157.9,182.9,157.8,183.9,157.7z"/>
	<path fill-rule="evenodd" clip-rule="evenodd" d="M198,157.7c0.4,0,0.8,0,1.2,0c0,0.4,0,0.8,0,1.2C198.4,159,198,158.6,198,157.7z"
		/>
	<path fill-rule="evenodd" clip-rule="evenodd" d="M170.9,160.5c0.4,1.4-1.6,0.6-2.4,0.8C168.3,160.3,170.3,159.4,170.9,160.5z"/>
	<path fill-rule="evenodd" clip-rule="evenodd" d="M200.4,161.3c0.6,0.2,2-0.5,2,0.4C202.8,163,199.5,162.8,200.4,161.3z"/>
	<path fill-rule="evenodd" clip-rule="evenodd" d="M181.5,162.4c0.4,0,0.8,0,1.2,0c-0.2,0.7,0.5,2.3-0.4,2.4
		C180.9,165.2,181.7,163.2,181.5,162.4z"/>
	<path fill-rule="evenodd" clip-rule="evenodd" d="M198.8,162.4c0.9,0,0.2,1.7,0.4,2.4c-0.6,0.1-0.7-0.4-1.2-0.4c0-0.3,0-0.5,0-0.8
		c1,0,0.7-0.5,0-0.4C198.1,162.8,198.8,163,198.8,162.4z"/>
	<path fill-rule="evenodd" clip-rule="evenodd" d="M189.8,163.6c0.4,0,0.8,0,1.2,0c0,0.4,0,0.8,0,1.2c-0.4,0-0.8,0-1.2,0
		C189.8,164.4,189.8,164,189.8,163.6z"/>
	<path fill-rule="evenodd" clip-rule="evenodd" d="M154.3,164.8c0.4,0,0.8,0,1.2,0c0,0.4,0,0.8,0,1.2c-0.4,0-0.8,0-1.2,0
		C154.3,165.6,154.3,165.2,154.3,164.8z"/>
	<path fill-rule="evenodd" clip-rule="evenodd" d="M196.9,164.8c0.4,0,0.8,0,1.2,0c0,0.4,0,0.8,0,1.2c-0.4,0-0.8,0-1.2,0
		C196.9,165.6,196.9,165.2,196.9,164.8z"/>
	<path fill-rule="evenodd" clip-rule="evenodd" d="M161.4,166c0.5,1.3-2,1.6-2.4,0.8C158.7,165.3,160.6,166.2,161.4,166z"/>
	<path fill-rule="evenodd" clip-rule="evenodd" d="M165,166c0.7,0.2,2.3-0.5,2.4,0.4C167.6,167.9,164.3,167.3,165,166z"/>
	<path fill-rule="evenodd" clip-rule="evenodd" d="M181.5,166c0.4,0,0.8,0,1.2,0c-0.2,0.7,0.5,2.3-0.4,2.4
		C180.9,168.7,181.7,166.8,181.5,166z"/>
	<path fill-rule="evenodd" clip-rule="evenodd" d="M151.9,168.7c0.2,1-1.7,1-2.4,0.4C149,167.9,151.9,168.1,151.9,168.7z"/>
	<path fill-rule="evenodd" clip-rule="evenodd" d="M153.1,168.3c0.4,0,0.8,0,1.2,0c0,0.4,0,0.8,0,1.2c-0.4,0-0.8,0-1.2,0
		C153.1,169.1,153.1,168.7,153.1,168.3z"/>
	<path fill-rule="evenodd" clip-rule="evenodd" d="M156.7,168.3c0.9-0.1,1.3,0.3,1.2,1.2c-0.4,0-0.8,0-1.2,0
		C156.7,169.1,156.7,168.7,156.7,168.3z"/>
	<path fill-rule="evenodd" clip-rule="evenodd" d="M199.2,168.3c0.4,0,0.8,0,1.2,0c0,0.4,0,0.8,0,1.2c-0.4,0-0.8,0-1.2,0
		C199.2,169.1,199.2,168.7,199.2,168.3z"/>
	<path fill-rule="evenodd" clip-rule="evenodd" d="M205.1,168.3c1.1,0.2,3.1-0.5,3.5,0.4C208.1,170.1,204.8,169.8,205.1,168.3z"/>
	<path fill-rule="evenodd" clip-rule="evenodd" d="M193.3,169.5c0.9-0.1,1.3,0.3,1.2,1.2C193.6,170.8,193.2,170.4,193.3,169.5z"/>
	<path fill-rule="evenodd" clip-rule="evenodd" d="M166.1,170.7c0.4,0,0.8,0,1.2,0c0,0.4,0,0.8,0,1.2c-0.4,0-0.8,0-1.2,0
		C166.1,171.5,166.1,171.1,166.1,170.7z"/>
	<path fill-rule="evenodd" clip-rule="evenodd" d="M169.7,170.7c0.4,0,0.8,0,1.2,0c0,0.4,0,0.8,0,1.2c-0.4,0-0.8,0-1.2,0
		C169.7,171.5,169.7,171.1,169.7,170.7z"/>
	<path fill-rule="evenodd" clip-rule="evenodd" d="M179.1,170.7c0.4,0,0.8,0,1.2,0c0,0.4,0,0.8,0,1.2c-0.4,0-0.8,0-1.2,0
		C179.1,171.5,179.1,171.1,179.1,170.7z"/>
	<path fill-rule="evenodd" clip-rule="evenodd" d="M206.3,170.7c1-0.2,1.4,0.2,1.2,1.2C207.1,171.5,206,171.8,206.3,170.7z"/>
	<path fill-rule="evenodd" clip-rule="evenodd" d="M159,173.1c-0.7-0.2-2.3,0.5-2.4-0.4C156.8,171.3,159.4,171.1,159,173.1z"/>
	<path fill-rule="evenodd" clip-rule="evenodd" d="M149.6,172.3c0.4,1.9-3.3-0.4-2.4,2c-0.7-0.2-2.3,0.5-2.4-0.4
		C145.2,172.4,147.8,171,149.6,172.3z"/>
	<path fill-rule="evenodd" clip-rule="evenodd" d="M188.6,171.9c0.4,0,0.8,0,1.2,0c-0.2,0.7,0.5,2.3-0.4,2.4
		C188,174.6,188.8,172.7,188.6,171.9z"/>
	<path fill-rule="evenodd" clip-rule="evenodd" d="M213.4,172.3c0.6,1.2-2.9,1.2-2.4,0C211.3,172,213.2,171.4,213.4,172.3z"/>
	<path fill-rule="evenodd" clip-rule="evenodd" d="M165,173.1c0.7,0.2,2.3-0.5,2.4,0.4C167.6,174.9,164.3,174.4,165,173.1z"/>
	<path fill-rule="evenodd" clip-rule="evenodd" d="M161.4,174.6c-1.3,1.6-2.6,1.7-3.5,0C158.4,174.2,161,173.9,161.4,174.6z"/>
	<path fill-rule="evenodd" clip-rule="evenodd" d="M162.6,174.3c1.5,0.3,1.4,0,2.4,0.4c0,0.7,0,1.3,0,2c-0.8,0-1.6,0-2.4,0
		C162.6,175.8,162.6,175,162.6,174.3z"/>
	<path fill-rule="evenodd" clip-rule="evenodd" d="M170.9,174.3c0.4,0,0.8,0,1.2,0c0,0.4,0,0.8,0,1.2c-0.4,0-0.8,0-1.2,0
		C170.9,175,170.9,174.6,170.9,174.3z"/>
	<path fill-rule="evenodd" clip-rule="evenodd" d="M191,174.3c0.4,0,0.8,0,1.2,0c0,0.4,0,0.8,0,1.2c-0.4,0-0.8,0-1.2,0
		C191,175,191,174.6,191,174.3z"/>
	<path fill-rule="evenodd" clip-rule="evenodd" d="M150.8,175.4c0.4,0,0.8,0,1.2,0c0,0.4,0,0.8,0,1.2c-0.4,0-0.8,0-1.2,0
		C150.8,176.2,150.8,175.8,150.8,175.4z"/>
	<path fill-rule="evenodd" clip-rule="evenodd" d="M194.9,175.4c0.5,0.2,0.8,0.5,0.8,1.2C195.2,176.4,194.9,176.1,194.9,175.4z"/>
	<path fill-rule="evenodd" clip-rule="evenodd" d="M189.8,177.4c-0.2-0.8,1.8-0.6,1.2,0.4c-0.3,0-0.5,0-0.8,0
		C190.2,177.5,190,177.4,189.8,177.4z"/>
	<path fill-rule="evenodd" clip-rule="evenodd" d="M150.8,177.8c0.4,0,0.8,0,1.2,0c0,0.4,0,0.8,0,1.2c-0.4,0-0.8,0-1.2,0
		C150.8,178.6,150.8,178.2,150.8,177.8z"/>
	<path fill-rule="evenodd" clip-rule="evenodd" d="M168.5,179c0.2-0.2-1.5-1.3-0.8,0C167,177.7,168.4,176.9,168.5,179z"/>
	<path fill-rule="evenodd" clip-rule="evenodd" d="M170.9,177.8c0.7,0.2,2.3-0.5,2.4,0.4C173.5,179.7,170.2,179.2,170.9,177.8z"/>
	<path fill-rule="evenodd" clip-rule="evenodd" d="M180.3,177.8c1.8-0.5,1,1.6,1.6,2.4C180,180.8,180.2,179.2,180.3,177.8z"/>
	<path fill-rule="evenodd" clip-rule="evenodd" d="M192.5,179C194.3,179.2,192.2,181.4,192.5,179L192.5,179z"/>
	<path fill-rule="evenodd" clip-rule="evenodd" d="M194.9,180.2c0.3,0,0.5,0,0.8,0c0,0.4,0,0.8,0,1.2c-0.4,0-0.8,0-1.2,0
		C194.4,180.7,194.9,180.7,194.9,180.2z"/>
	<path fill-rule="evenodd" clip-rule="evenodd" d="M211.8,180.2C213.2,181.2,209.8,181.1,211.8,180.2L211.8,180.2z"/>
	<path fill-rule="evenodd" clip-rule="evenodd" d="M172,181.3c0.4,0,0.8,0,1.2,0c0,0.4,0,0.8,0,1.2c-0.4,0-0.8,0-1.2,0
		C172,182.1,172,181.7,172,181.3z"/>
	<path fill-rule="evenodd" clip-rule="evenodd" d="M200.4,181.3c0.4,0,0.8,0,1.2,0c-0.2,0.7,0.5,2.3-0.4,2.4
		C199.8,184.1,200.6,182.2,200.4,181.3z"/>
	<path fill-rule="evenodd" clip-rule="evenodd" d="M211,181.7c0.1-0.2,0.8-0.7,1.2-0.4C213,182,210.5,183.2,211,181.7z"/>
	<path fill-rule="evenodd" clip-rule="evenodd" d="M204,182.5c0.4,0,0.8,0,1.2,0c0,0.4,0,0.8,0,1.2c-0.4,0-0.8,0-1.2,0
		C204,183.3,204,182.9,204,182.5z"/>
	<path fill-rule="evenodd" clip-rule="evenodd" d="M216.6,182.5c1,0.2,0,1.5-0.8,1.2C215.6,182.8,216.5,183.1,216.6,182.5z"/>
	<path fill-rule="evenodd" clip-rule="evenodd" d="M167.7,184.1c0.8-1.4,0.9,1.1,0.8,2c-1.4-0.2-3.8,0.6-3.5-1.2
		c1.9,0.6,2.4-1.1,3.2-0.4C168.2,184.2,167.9,184.1,167.7,184.1z"/>
	<path fill-rule="evenodd" clip-rule="evenodd" d="M175.6,183.7c0.4,0,0.8,0,1.2,0c-0.2,0.7,0.5,2.3-0.4,2.4
		C175,186.4,175.8,184.5,175.6,183.7z"/>
	<path fill-rule="evenodd" clip-rule="evenodd" d="M185.4,183.7c0.5,0.2,0.8,0.5,0.8,1.2C184.9,185.2,184.9,184.3,185.4,183.7z"/>
	<path fill-rule="evenodd" clip-rule="evenodd" d="M211,183.7c0.5,0,1.1,0,1.6,0c-0.2,0.3-0.4,0.6-0.4,1.2c-0.4,0-0.8,0-1.2,0
		C211,184.5,211,184.1,211,183.7z"/>
	<path fill-rule="evenodd" clip-rule="evenodd" d="M217,183.7c1.1,0.2,3.1-0.5,3.5,0.4c-0.5,1.2-2.5,0.9-3.5,1.6
		C217,185,217,184.4,217,183.7z"/>
	<path fill-rule="evenodd" clip-rule="evenodd" d="M146,184.9c0.4,0.9,2.8-1.2,2.4,1.2C147.4,185.9,146,186.1,146,184.9z"/>
	<path fill-rule="evenodd" clip-rule="evenodd" d="M180.7,184.9c0.3,0,0.5,0,0.8,0c0,0.4,0,0.8,0,1.2c-0.4,0-0.8,0-1.2,0
		C180.2,185.4,180.7,185.4,180.7,184.9z"/>
	<path fill-rule="evenodd" clip-rule="evenodd" d="M153.1,186.1c0.4,0,0.8,0,1.2,0c0,0.4,0,0.8,0,1.2c-0.4,0-0.8,0-1.2,0
		C153.1,186.9,153.1,186.5,153.1,186.1z"/>
	<path fill-rule="evenodd" clip-rule="evenodd" d="M172,186.1c0.4,0,0.8,0,1.2,0c0,0.4,0,0.8,0,1.2c-0.4,0-0.8,0-1.2,0
		C172,186.9,172,186.5,172,186.1z"/>
	<path fill-rule="evenodd" clip-rule="evenodd" d="M223.3,186.1C225,186.2,222.8,188.4,223.3,186.1L223.3,186.1z"/>
	<path fill-rule="evenodd" clip-rule="evenodd" d="M160.2,187.3c1-0.1,1.9-0.1,2.4,0.4C162.6,188.8,159.8,188.8,160.2,187.3z"/>
	<path fill-rule="evenodd" clip-rule="evenodd" d="M179.1,187.3c1.3,0.1,1.3,1.3,2.4,1.6c0.4,1.4-1.6,0.5-2.4,0.8
		C179.1,188.8,179.1,188,179.1,187.3z"/>
	<path fill-rule="evenodd" clip-rule="evenodd" d="M181.5,187.7c0.1-0.2,0.8-0.7,1.2-0.4C183.5,187.9,180.9,189.1,181.5,187.7z"/>
	<path fill-rule="evenodd" clip-rule="evenodd" d="M194.5,187.3c0.8,0,1.6,0,2.4,0c0,1.1,0,2.1,0,3.2c-0.5-0.4-0.7-1.1-2-0.8
		C195.2,188.4,194.2,188.5,194.5,187.3z"/>
	<path fill-rule="evenodd" clip-rule="evenodd" d="M162.6,188.4c0.4,0,0.8,0,1.2,0c0,0.4,0,0.8,0,1.2c-0.4,0-0.8,0-1.2,0
		C162.6,189.2,162.6,188.8,162.6,188.4z"/>
	<path fill-rule="evenodd" clip-rule="evenodd" d="M199.2,188.4c0.4,0,0.8,0,1.2,0c0,0.4,0,0.8,0,1.2c-0.4,0-0.8,0-1.2,0
		C199.2,189.2,199.2,188.8,199.2,188.4z"/>
	<path fill-rule="evenodd" clip-rule="evenodd" d="M213.4,188.8c0.2-1,1.5,0,1.2,0.8C213.7,189.8,214,188.9,213.4,188.8z"/>
	<path fill-rule="evenodd" clip-rule="evenodd" d="M222.9,188.4c0.4,0,0.8,0,1.2,0c0,0.4,0,0.8,0,1.2c-0.4,0-0.8,0-1.2,0
		C222.9,189.2,222.9,188.8,222.9,188.4z"/>
	<path fill-rule="evenodd" clip-rule="evenodd" d="M215.8,189.6c0.4,0,0.8,0,1.2,0c0,0.4,0,0.8,0,1.2c-0.4,0-0.8,0-1.2,0
		C215.8,190.4,215.8,190,215.8,189.6z"/>
	<path fill-rule="evenodd" clip-rule="evenodd" d="M154.3,190.8c0.4,0,0.8,0,1.2,0c0,0.4,0,0.8,0,1.2c-0.4,0-0.8,0-1.2,0
		C154.3,191.6,154.3,191.2,154.3,190.8z"/>
	<path fill-rule="evenodd" clip-rule="evenodd" d="M192.1,190.8c0.9-0.2,0.6,0.8,1.2,0.8C193.2,192.6,191.5,191.9,192.1,190.8z"/>
	<path fill-rule="evenodd" clip-rule="evenodd" d="M224,191.2c0.3,1.4-3.3,0.9-3.5,0.4C220.2,190.2,223.7,190.7,224,191.2z"/>
	<path fill-rule="evenodd" clip-rule="evenodd" d="M226.4,190.8c0.4,0,0.8,0,1.2,0c-0.2,0.7,0.5,2.3-0.4,2.4
		C225.8,193.5,226.6,191.6,226.4,190.8z"/>
	<path fill-rule="evenodd" clip-rule="evenodd" d="M208.7,192c0.4,0.4,1.5,0.1,1.2,1.2C208.8,193.4,208.4,193,208.7,192z"/>
	<path fill-rule="evenodd" clip-rule="evenodd" d="M195.7,193.2c0.8,0,1.6,0,2.4,0c-0.6,1.5,1,0.8,1.2,1.6c-0.1,1.1-1.4,0.9-1.6,2
		c-0.8,0.2-0.8-0.6-0.8-1.2c-1.2,0-2.4,0-2.4-1.2c0.3,0.1,0.4,0.4,0.8,0.4C195.8,194.6,195.6,193.8,195.7,193.2z"/>
	<path fill-rule="evenodd" clip-rule="evenodd" d="M172,194.3c0.7,0.2,2.3-0.5,2.4,0.4c-0.1,1.1-1.4,0.9-1.6,2
		C171.4,197.1,172.3,195.2,172,194.3z"/>
	<path fill-rule="evenodd" clip-rule="evenodd" d="M212.2,195.9c0.6,1.2-2.9,1.2-2.4,0C210.1,195.6,212.1,195,212.2,195.9z"/>
	<path fill-rule="evenodd" clip-rule="evenodd" d="M226.4,195.5c0.4,0,0.8,0,1.2,0c0,0.4,0,0.8,0,1.2c-0.4,0-0.8,0-1.2,0
		C226.4,196.3,226.4,195.9,226.4,195.5z"/>
	<path fill-rule="evenodd" clip-rule="evenodd" d="M230,195.5c0.4,0,0.8,0,1.2,0c0,0.4,0,0.8,0,1.2c-0.4,0-0.8,0-1.2,0
		C230,196.3,230,195.9,230,195.5z"/>
	<path fill-rule="evenodd" clip-rule="evenodd" d="M233.9,195.5c1.1-0.1,2.2,0,2,1.2c-1.5-0.6-0.8,1-1.6,1.2
		C232.8,198.3,233.6,195.8,233.9,195.5z"/>
	<path fill-rule="evenodd" clip-rule="evenodd" d="M186.2,197.9c0.4,0,0.8,0,1.2,0c0,0.4,0,0.8,0,1.2c-0.4,0-0.8,0-1.2,0
		C186.2,198.7,186.2,198.3,186.2,197.9z"/>
	<path fill-rule="evenodd" clip-rule="evenodd" d="M194.5,197.9c0.6-0.1,0.7,0.4,1.2,0.4C195.8,199.1,193.9,198.9,194.5,197.9z"/>
	<path fill-rule="evenodd" clip-rule="evenodd" d="M198,197.9c1-0.1,1.9-0.1,2.4,0.4c0,0.6-1.7,1.2,0,1.2
		C199.8,200.3,197.9,199.2,198,197.9z"/>
	<path fill-rule="evenodd" clip-rule="evenodd" d="M228,197.9c0.3,0,0.5,0,0.8,0c0.2,0.8-0.6,0.8-1.2,0.8
		C227.7,198.4,228,198.3,228,197.9z"/>
	<path fill-rule="evenodd" clip-rule="evenodd" d="M154.3,199.1c0.4,0,0.8,0,1.2,0c0,0.4,0,0.8,0,1.2c-0.4,0-0.8,0-1.2,0
		C154.3,199.9,154.3,199.5,154.3,199.1z"/>
	<path fill-rule="evenodd" clip-rule="evenodd" d="M156.7,199.1c0.4,0,0.8,0,1.2,0c0,0.4,0,0.8,0,1.2
		C157,200.3,156.6,199.9,156.7,199.1z"/>
	<path fill-rule="evenodd" clip-rule="evenodd" d="M180.3,199.5c0,0.3,0,0.5,0,0.8C178.4,200.7,179.6,198.2,180.3,199.5z"/>
	<path fill-rule="evenodd" clip-rule="evenodd" d="M207.1,199.5c0.1-0.6,2.7-0.6,2.8,0c0.3,1.5-1.9,0.5-2.8,0.8
		c-0.1-0.3,0.2-0.4,0.4-0.4C207.6,199.5,207.3,199.5,207.1,199.5z"/>
	<path fill-rule="evenodd" clip-rule="evenodd" d="M206.3,201.4c-0.8-0.1-1.2,0.1-1.2,0.8c0.1,0.9,1.7,0.2,2.4,0.4
		c0,3.1-4.5,0.4-3.5-2.4c0.7-0.1,2,0.4,1.6-0.8C206.4,199.5,206.4,200.5,206.3,201.4z"/>
	<path fill-rule="evenodd" clip-rule="evenodd" d="M161.4,201.4c0.4,0,0.8,0,1.2,0c0,0.4,0,0.8,0,1.2c-0.4,0-0.8,0-1.2,0
		C161.4,202.2,161.4,201.8,161.4,201.4z"/>
	<path fill-rule="evenodd" clip-rule="evenodd" d="M228.8,201.8c0,1.4-4.1,0.9-4.7,0.4C224.1,200.8,228.1,201.4,228.8,201.8z"/>
	<path fill-rule="evenodd" clip-rule="evenodd" d="M164.2,202.6c0.5,0.2,0.8,0.5,0.8,1.2C163.6,204.1,163.6,203.2,164.2,202.6z"/>
	<path fill-rule="evenodd" clip-rule="evenodd" d="M174.8,203.8c1.4,1.2-3.5,2-2.8-0.4c0.6,0.6,1.5,0.6,1.2-0.8c0.4,0,0.8,0,1.2,0
		C174.9,203.4,174.3,204.6,174.8,203.8z"/>
	<path fill-rule="evenodd" clip-rule="evenodd" d="M179.1,203.8c0.4,0,0.8,0,1.2,0c0,0.8,0,1.6,0,2.4c-1.2,0-2.6,0.2-2.4-1.2
		C179,205.2,179.4,204.8,179.1,203.8z"/>
	<path fill-rule="evenodd" clip-rule="evenodd" d="M203.2,203.8C204.9,204,202.8,206.1,203.2,203.8L203.2,203.8z"/>
	<path fill-rule="evenodd" clip-rule="evenodd" d="M146,206.2c0.4,0,0.8,0,1.2,0c0,0.4,0,0.8,0,1.2c-0.4,0-0.8,0-1.2,0
		C146,207,146,206.6,146,206.2z"/>
	<path fill-rule="evenodd" clip-rule="evenodd" d="M149.2,206.2c0.6,0,1.5-0.2,1.6,0.4C151.2,207.9,148.3,207.6,149.2,206.2z"/>
	<path fill-rule="evenodd" clip-rule="evenodd" d="M172,206.2c0.9-0.1,1.3,0.3,1.2,1.2c-0.4,0-0.8,0-1.2,0
		C172,207,172,206.6,172,206.2z"/>
	<path fill-rule="evenodd" clip-rule="evenodd" d="M208.7,206.6c1.3-0.9,0.6,1.2,2.4,1.2c0.4,1.4-1.6,0.5-2.4,0.8
		C208.2,207.6,209.6,206.6,208.7,206.6z"/>
	<path fill-rule="evenodd" clip-rule="evenodd" d="M214.6,207.7c-0.2-0.6,1.5-1,0.4-1.2C215.9,205,216.2,208.4,214.6,207.7z"/>
	<path fill-rule="evenodd" clip-rule="evenodd" d="M218.1,206.2c0.4,0,0.8,0,1.2,0c-0.7,2.3,3,0.2,2.4,2.4c-1-0.2-1.4,0.2-1.2,1.2
		C218.3,209.3,218.1,209.8,218.1,206.2z"/>
	<path fill-rule="evenodd" clip-rule="evenodd" d="M227.6,207.3c0.4,0,0.8,0,1.2,0c-0.1,1.2,0.3,2.9-0.4,3.5
		C227.6,210.2,227.5,208.9,227.6,207.3z"/>
	<path fill-rule="evenodd" clip-rule="evenodd" d="M150.8,208.5c0.4,0,0.8,0,1.2,0c0,0.4,0,0.8,0,1.2c-0.4,0-0.8,0-1.2,0
		C150.8,209.3,150.8,208.9,150.8,208.5z"/>
	<path fill-rule="evenodd" clip-rule="evenodd" d="M205.1,208.5c0.4,0,0.8,0,1.2,0c0,0.4,0,0.8,0,1.2c-0.4,0-0.8,0-1.2,0
		C205.1,209.3,205.1,208.9,205.1,208.5z"/>
	<path fill-rule="evenodd" clip-rule="evenodd" d="M164.2,209.7c0.7,0,1.3,0,2,0c0,1.4-1,1.8-2,2.4
		C163.3,211.3,164.4,211,164.2,209.7z"/>
	<path fill-rule="evenodd" clip-rule="evenodd" d="M185,209.7c0.5,0,1,0,1.6,0c-0.2,0.3-0.4,0.6-0.4,1.2c-0.4,0-0.8,0-1.2,0
		C185,210.5,185,210.1,185,209.7z"/>
	<path fill-rule="evenodd" clip-rule="evenodd" d="M148.4,210.9c0.5,0,1.1,0,1.6,0c0.1,0.6-0.4,3.4-0.8,4.7
		C147.5,215.5,148.8,212.3,148.4,210.9z"/>
	<path fill-rule="evenodd" clip-rule="evenodd" d="M168.5,210.9c1.1-0.3,1,0.6,2,0.4c-0.5,1.2-0.8,0.2-2,0.8
		C168.5,211.7,168.5,211.3,168.5,210.9z"/>
	<path fill-rule="evenodd" clip-rule="evenodd" d="M175.6,211.7c0.1-0.1,0.8-0.7,1.2-0.4C177,211.6,175.2,212.4,175.6,211.7z"/>
	<path fill-rule="evenodd" clip-rule="evenodd" d="M157.5,212.1c0.8,0,1.6,0,2.4,0c-0.3,0.4-0.9,0.4-0.8,1.2
		C158,213.4,157.3,213.1,157.5,212.1z"/>
	<path fill-rule="evenodd" clip-rule="evenodd" d="M162.6,212.1c0.4,0,0.8,0,1.2,0c0,0.4,0,0.8,0,1.2c-0.4,0-0.8,0-1.2,0
		C162.6,212.9,162.6,212.5,162.6,212.1z"/>
	<path fill-rule="evenodd" clip-rule="evenodd" d="M185,212.1c0.4,0,0.8,0,1.2,0c0,0.4,0,0.8,0,1.2c-0.4,0-0.8,0-1.2,0
		C185,212.9,185,212.5,185,212.1z"/>
	<path fill-rule="evenodd" clip-rule="evenodd" d="M190.6,212.5c0.1-0.5,1-0.3,1.6-0.4c0,0.4,0,0.8,0,1.2
		C190.9,213.7,191.2,212.6,190.6,212.5z"/>
	<path fill-rule="evenodd" clip-rule="evenodd" d="M199.2,213.3c0,0.4,0,0.8,0,1.2c-0.4-0.2-0.7-0.5-0.8,0
		C197.5,214.3,198.4,212.9,199.2,213.3z"/>
	<path fill-rule="evenodd" clip-rule="evenodd" d="M206.3,213.7c0.6,1.3-2.4,1-2.4,0.4C203.4,212.8,206.3,213,206.3,213.7z"/>
	<path fill-rule="evenodd" clip-rule="evenodd" d="M160.6,214.8c-0.1-0.9,1.4-0.2,2-0.4c0.5,1.5-0.9,1.2-2,1.2
		C160.7,215.1,162.3,214.9,160.6,214.8z"/>
	<path fill-rule="evenodd" clip-rule="evenodd" d="M187.4,215.6c0.4,0,0.8,0,1.2,0c-0.2,0.7,0.5,2.3-0.4,2.4
		C186.8,218.4,187.6,216.4,187.4,215.6z"/>
	<path fill-rule="evenodd" clip-rule="evenodd" d="M192.5,215.6c0.6,0.7,2-0.7,2,1.2C193.5,216.8,192.5,216.7,192.5,215.6z"/>
	<path fill-rule="evenodd" clip-rule="evenodd" d="M198,216.8c1.5-0.6,0.8,1,1.6,1.2c1.8,0.7,0.5-1.6,2-1.2c-0.7,1.1,0.2,2.2,0,4.7
		c-1.6-0.1-3.9,0.5-3.9-1.2c1,0.4,2,0.4,2.8-0.4c0.4-1.4-1.6-0.5-2.4-0.8C198,218.4,198,217.6,198,216.8z"/>
	<path fill-rule="evenodd" clip-rule="evenodd" d="M204,216.8c0.4,0,0.8,0,1.2,0c-0.2,0.7,0.5,2.3-0.4,2.4
		C203.3,219.5,204.2,217.6,204,216.8z"/>
	<path fill-rule="evenodd" clip-rule="evenodd" d="M161.4,219.6c0.6,1.3-2.4,1-2.4,0.4C158.5,218.7,161.4,219,161.4,219.6z"/>
	<path fill-rule="evenodd" clip-rule="evenodd" d="M174.8,219.2c0.3,0,0.5,0,0.8,0c0.1,0.6-0.4,0.7-0.4,1.2c-0.3,0-0.5,0-0.8,0
		C174.3,219.7,174.8,219.7,174.8,219.2z"/>
	<path fill-rule="evenodd" clip-rule="evenodd" d="M207.5,219.6c0,0.3,0,0.5,0,0.8C205.6,220.7,206.8,218.3,207.5,219.6z"/>
	<path fill-rule="evenodd" clip-rule="evenodd" d="M155.5,220.3c0.4,0,0.8,0,1.2,0c0,0.4,0,0.8,0,1.2c-0.4,0-0.8,0-1.2,0
		C155.5,221.1,155.5,220.7,155.5,220.3z"/>
	<path fill-rule="evenodd" clip-rule="evenodd" d="M175.6,220.3c0.4,0,0.8,0,1.2,0c0,0.4,0,0.8,0,1.2c-0.4,0-0.8,0-1.2,0
		C175.6,221.1,175.6,220.7,175.6,220.3z"/>
	<path fill-rule="evenodd" clip-rule="evenodd" d="M183.9,220.3c0.4,0,0.8,0,1.2,0c0,0.4,0,0.8,0,1.2c-0.4,0-0.8,0-1.2,0
		C183.9,221.1,183.9,220.7,183.9,220.3z"/>
	<path fill-rule="evenodd" clip-rule="evenodd" d="M188.6,220.3c0.4,0,0.8,0,1.2,0c0,0.4,0,0.8,0,1.2c-0.4,0-0.8,0-1.2,0
		C188.6,221.1,188.6,220.7,188.6,220.3z"/>
	<path fill-rule="evenodd" clip-rule="evenodd" d="M160.2,221.5c0.4,0,0.8,0,1.2,0c0,0.4,0,0.8,0,1.2c-0.4,0-0.8,0-1.2,0
		C160.2,222.3,160.2,221.9,160.2,221.5z"/>
	<path fill-rule="evenodd" clip-rule="evenodd" d="M196.9,221.5c0.4,0,0.8,0,1.2,0c0,0.4,0,0.8,0,1.2c-0.4,0-0.8,0-1.2,0
		C196.9,222.3,196.9,221.9,196.9,221.5z"/>
	<path fill-rule="evenodd" clip-rule="evenodd" d="M206.3,221.5c0.4,0,0.8,0,1.2,0c0,0.4,0,0.8,0,1.2c-0.4,0-0.8,0-1.2,0
		C206.3,222.3,206.3,221.9,206.3,221.5z"/>
	<path fill-rule="evenodd" clip-rule="evenodd" d="M200.4,222.7c0.4,0,0.8,0,1.2,0c0,0.4,0,0.8,0,1.2
		C200.7,224,200.3,223.6,200.4,222.7z"/>
	<path fill-rule="evenodd" clip-rule="evenodd" d="M214.6,222.7c-0.1,1.8-1.7,0.9-2.4,0.8C212.3,222.5,213.5,222.7,214.6,222.7z"/>
	<path fill-rule="evenodd" clip-rule="evenodd" d="M209.1,223.5c0.5,0.7,2.6-0.2,2,1.6c-1.2,0.3-1.4-0.4-2.4-0.4
		C208.9,224.4,209.1,224,209.1,223.5z"/>
	<path fill-rule="evenodd" clip-rule="evenodd" d="M172,223.9c0.4,0,0.8,0,1.2,0c0,0.4,0,0.8,0,1.2c-0.4,0-0.8,0-1.2,0
		C172,224.7,172,224.3,172,223.9z"/>
	<path fill-rule="evenodd" clip-rule="evenodd" d="M157.9,226.3c-0.2,1.1,0.5,3.1-0.4,3.5c-1.5,0-0.2-3-2-2.8
		C155.1,225.6,157,226.5,157.9,226.3z"/>
	<path fill-rule="evenodd" clip-rule="evenodd" d="M179.1,226.3c0.4,0,0.8,0,1.2,0c0,0.4,0,0.8,0,1.2c-0.4,0-0.8,0-1.2,0
		C179.1,227,179.1,226.7,179.1,226.3z"/>
	<path fill-rule="evenodd" clip-rule="evenodd" d="M193.3,226.3c0.4,0,0.8,0,1.2,0c0,0.4,0,0.8,0,1.2c-0.4,0-0.8,0-1.2,0
		C193.3,227,193.3,226.7,193.3,226.3z"/>
	<path fill-rule="evenodd" clip-rule="evenodd" d="M212.2,227.4c0.4,0,0.8,0,1.2,0c0,0.4,0,0.8,0,1.2c-0.4,0-0.8,0-1.2,0
		C212.2,228.2,212.2,227.8,212.2,227.4z"/>
	<path fill-rule="evenodd" clip-rule="evenodd" d="M168.9,228.6c0.5,1.5-2.3,1.6-2.8,0.8C165.8,227.9,168,228.9,168.9,228.6z"/>
	<path fill-rule="evenodd" clip-rule="evenodd" d="M174.4,228.6c0.4,0,0.8,0,1.2,0c0,0.4,0,0.8,0,1.2c-0.4,0-0.8,0-1.2,0
		C174.4,229.4,174.4,229,174.4,228.6z"/>
	<path fill-rule="evenodd" clip-rule="evenodd" d="M189.8,231c0-0.8,0-1.6,0-2.4c1.1,0.2,3.1-0.5,3.5,0.4c0.2,1.6-2.2,0.5-3.2,0.8
		C190.4,230.2,191.1,231.3,189.8,231z"/>
	<path fill-rule="evenodd" clip-rule="evenodd" d="M154.3,229.8c0.4,0,0.8,0,1.2,0c0,0.4,0,0.8,0,1.2c-0.4,0-0.8,0-1.2,0
		C154.3,230.6,154.3,230.2,154.3,229.8z"/>
	<path fill-rule="evenodd" clip-rule="evenodd" d="M179.1,229.8c0.4,0,0.8,0,1.2,0c0,0.4,0,0.8,0,1.2c-0.4,0-0.8,0-1.2,0
		C179.1,230.6,179.1,230.2,179.1,229.8z"/>
	<path fill-rule="evenodd" clip-rule="evenodd" d="M203.6,230.2c-0.3-0.6,1.9-0.6,1.6,0c0,0.3,0,0.5,0,0.8c-0.5,0-1,0-1.6,0
		C203.8,230.6,204,230.3,203.6,230.2z"/>
	<path fill-rule="evenodd" clip-rule="evenodd" d="M149.6,230.2c1.2-0.2,1.3,0.8,1.2,2c-1-0.2-1.4,0.2-1.2,1.2c-0.5,0-1,0-1.6,0
		c0.5-0.5,0.4-1.4,0.4-2.4C149.4,231.1,149.7,231.8,149.6,230.2z"/>
	<path fill-rule="evenodd" clip-rule="evenodd" d="M190.6,231.4c-0.1,0.5-1.7,1.4-2,0.4c0-0.3,0-0.5,0-0.8
		C189.7,230.7,189.6,231.5,190.6,231.4z"/>
	<path fill-rule="evenodd" clip-rule="evenodd" d="M189.8,232.2c0.8,0,1.6,0,2.4,0c0,0.8,0,1.6,0,2.4c-1.2,0.3-1.2-0.7-2.4-0.4
		C190.5,233.4,189.5,233.4,189.8,232.2z"/>
	<path fill-rule="evenodd" clip-rule="evenodd" d="M206.3,232.2c0.8,0,1.6,0,2.4,0c0,0.8,0,1.6,0,2.4c-0.7,0-1.3,0-2,0
		c0.9-0.7,1.1-1.4-0.4-0.8C206.3,233.2,206.3,232.7,206.3,232.2z"/>
	<path fill-rule="evenodd" clip-rule="evenodd" d="M155.5,233.3c0.4,0,0.8,0,1.2,0c0,0.4,0,0.8,0,1.2c-0.4,0-0.8,0-1.2,0
		C155.5,234.1,155.5,233.7,155.5,233.3z"/>
	<path fill-rule="evenodd" clip-rule="evenodd" d="M172.4,234.5c0.7-0.1,0.7,0.3,0.8,0.8c-0.3-0.1-0.4,0.2-0.4,0.4
		C172.4,235.7,172.5,235,172.4,234.5z"/>
	<path fill-rule="evenodd" clip-rule="evenodd" d="M147.2,235.7c0.4,0,0.8,0,1.2,0c0,0.4,0,0.8,0,1.2c-0.4,0-0.8,0-1.2,0
		C147.2,236.5,147.2,236.1,147.2,235.7z"/>
	<path fill-rule="evenodd" clip-rule="evenodd" d="M168.5,236.1c0.6,1.3-2.4,1-2.4,0.4C165.6,235.2,168.5,235.5,168.5,236.1z"/>
	<path fill-rule="evenodd" clip-rule="evenodd" d="M161.4,237.3c0,0.3,0,0.5,0,0.8C159.5,238.5,160.7,236,161.4,237.3z"/>
	<path fill-rule="evenodd" clip-rule="evenodd" d="M157.1,239.7c1.9-1.9-0.2,2.2-0.4,0.4C156.6,239.6,156.9,239.8,157.1,239.7z"/>
	<path fill-rule="evenodd" clip-rule="evenodd" d="M186.2,239.3c0.4,0,0.8,0,1.2,0c0,0.4,0,0.8,0,1.2c-0.4,0-0.8,0-1.2,0
		C186.2,240,186.2,239.7,186.2,239.3z"/>
	<path fill-rule="evenodd" clip-rule="evenodd" d="M199.2,239.3c1-0.1,1.9-0.1,2.4,0.4C201.7,240.7,198.5,241.1,199.2,239.3z"/>
	<path fill-rule="evenodd" clip-rule="evenodd" d="M204,239.7c0.1-0.2,0.8-0.7,1.2-0.4C205.9,239.9,203.4,241.1,204,239.7z"/>
	<path fill-rule="evenodd" clip-rule="evenodd" d="M188.6,240.4c0.4,0,0.8,0,1.2,0c0,0.4,0,0.8,0,1.2c-0.4,0-0.8,0-1.2,0
		C188.6,241.2,188.6,240.8,188.6,240.4z"/>
	<path fill-rule="evenodd" clip-rule="evenodd" d="M195.7,240.4c0.4,0,0.8,0,1.2,0c0,0.4,0,0.8,0,1.2c-0.4,0-0.8,0-1.2,0
		C195.7,241.2,195.7,240.8,195.7,240.4z"/>
	<path fill-rule="evenodd" clip-rule="evenodd" d="M147.6,240.8c0.3-0.1,0.4,0.2,0.4,0.4c-0.3,1.1,1.9-0.3,1.6,0.8
		c-0.1,1.1-1.4,0.9-1.6,2c-0.9-0.5-1.6-1.3-2-2.4C146.7,241.5,148,242,147.6,240.8z"/>
	<path fill-rule="evenodd" clip-rule="evenodd" d="M152.3,241.6c1,0.6,0.4,1.7,3.2,1.2c0.3,1.6-1.5,1.2-1.6,2.4
		c-1.2,0.6-0.7-1.8-0.8-2C153.7,244.1,150.8,243.4,152.3,241.6z"/>
	<path fill-rule="evenodd" clip-rule="evenodd" d="M162.6,241.6c0.4,0,0.8,0,1.2,0c0,0.4,0,0.8,0,1.2c-0.4,0-0.8,0-1.2,0
		C162.6,242.4,162.6,242,162.6,241.6z"/>
	<path fill-rule="evenodd" clip-rule="evenodd" d="M183.9,241.6c0.4,0,0.8,0,1.2,0c0.1,0.6-0.4,0.7-0.4,1.2c-0.3,0-0.5,0-0.8,0
		C183.9,242.4,183.9,242,183.9,241.6z"/>
	<path fill-rule="evenodd" clip-rule="evenodd" d="M209.1,241.6c0.3,0,0.5,0,0.8,0c0.1,0.6-0.4,0.7-0.4,1.2c-0.3,0-0.5,0-0.8,0
		C208.6,242.2,209.1,242.1,209.1,241.6z"/>
	<path fill-rule="evenodd" clip-rule="evenodd" d="M194.5,242.8c0.4,0.2,0.7,0.5,0.8,0c0.5,0.1,0.3,0.7,0.4,1.2
		C194.8,244.1,194.4,243.7,194.5,242.8z"/>
	<path fill-rule="evenodd" clip-rule="evenodd" d="M159,244c1.9-0.7,0.5,1.9,2.4,1.2c-0.2,0.7,0.5,2.3-0.4,2.4
		c-0.8,0.2-0.8-0.6-0.8-1.2c-1.2,0-2.6,0.2-2.4-1.2C158.9,245.4,159.3,245,159,244z"/>
	<path fill-rule="evenodd" clip-rule="evenodd" d="M186.2,244c-0.6,1.5,1,0.8,1.2,1.6c-0.9,2.3-2.7-0.6-3.5-0.8
		C183.9,243.8,185.2,244,186.2,244z"/>
	<path fill-rule="evenodd" clip-rule="evenodd" d="M178,245.2c0.4,0,0.8,0,1.2,0c0,0.4,0,0.8,0,1.2c-0.4,0-0.8,0-1.2,0
		C178,246,178,245.6,178,245.2z"/>
	<path fill-rule="evenodd" clip-rule="evenodd" d="M191,245.2c0.8,0.3,1.4,1,1.2,2.4c-0.4,0-0.8,0-1.2,0
		C191,246.1,191.4,246.4,191,245.2z"/>
	<path fill-rule="evenodd" clip-rule="evenodd" d="M197.3,246.7c-0.1-0.9,1.4-0.2,2-0.4c0.5,1.5-0.9,1.2-2,1.2
		C197.3,247,198.9,246.8,197.3,246.7z"/>
	<path fill-rule="evenodd" clip-rule="evenodd" d="M162.6,248.3c0-0.3,0-0.5,0-0.8C164.5,247.1,163.3,249.6,162.6,248.3z"/>
	<path fill-rule="evenodd" clip-rule="evenodd" d="M175.6,247.5c0.4,0,0.8,0,1.2,0c0,0.4,0,0.8,0,1.2c-0.4,0-0.8,0-1.2,0
		C175.6,248.3,175.6,247.9,175.6,247.5z"/>
	<path fill-rule="evenodd" clip-rule="evenodd" d="M200.4,247.5c0.4,0,0.8,0,1.2,0c0,0.4,0,0.8,0,1.2c-0.4,0-0.8,0-1.2,0
		C200.4,248.3,200.4,247.9,200.4,247.5z"/>
	<path fill-rule="evenodd" clip-rule="evenodd" d="M163.4,248.7C164.7,249.7,161.3,249.7,163.4,248.7L163.4,248.7z"/>
	<path fill-rule="evenodd" clip-rule="evenodd" d="M174.8,248.7c1.2,0.5,0.2,0.8,0.8,2c-0.5-0.1-0.7,0.1-0.8,0.4
		C174.1,250.2,174.8,249.9,174.8,248.7z"/>
	<path fill-rule="evenodd" clip-rule="evenodd" d="M176.8,249.9c0.4,0,0.8,0,1.2,0c0,0.4,0,0.8,0,1.2c-0.4,0-0.8,0-1.2,0
		C176.8,250.7,176.8,250.3,176.8,249.9z"/>
	<path fill-rule="evenodd" clip-rule="evenodd" d="M150,250.3c1.6,0.2,1.8,1.9,3.2,2.4c0,0.7-0.5,0.8-0.4,1.6
		c-0.5-0.4-0.7-1.1-2-0.8c0.2-1-0.2-1.4-1.2-1.2C149.5,251.3,149.6,250.7,150,250.3z"/>
	<path fill-rule="evenodd" clip-rule="evenodd" d="M198,251.1c0.6-0.1,0.7,0.4,1.2,0.4c-0.1,0.4-0.8,0.3-0.8,0.8
		C198,252.2,198.1,251.5,198,251.1z"/>
	<path fill-rule="evenodd" clip-rule="evenodd" d="M208.7,251.1c1.5,0,1.1,0.4,2.4,0C211.5,252.7,208.2,252.7,208.7,251.1z"/>
	<path fill-rule="evenodd" clip-rule="evenodd" d="M189.8,252.7c0.1-0.2,0.8-0.7,1.2-0.4C191.7,252.9,189.2,254.2,189.8,252.7z"/>
	<path fill-rule="evenodd" clip-rule="evenodd" d="M202.8,252.3c0.8,0,1.6,0,2.4,0c0,0.8,0,1.6,0,2.4c-0.8,0-1.6,0-2.4,0
		C202.8,253.8,202.8,253,202.8,252.3z"/>
	<path fill-rule="evenodd" clip-rule="evenodd" d="M199.2,253.4c0.5,1.2-0.6,1-0.8,1.6C197.5,254.8,198.2,253,199.2,253.4z"/>
	<path fill-rule="evenodd" clip-rule="evenodd" d="M151.2,254.6C153,254.9,150.8,257,151.2,254.6L151.2,254.6z"/>
	<path fill-rule="evenodd" clip-rule="evenodd" d="M161.8,254.6c0.5,0.2,0.8,0.5,0.8,1.2c-0.4,0-0.8,0-1.2,0
		C161.6,255.5,161.8,255.2,161.8,254.6z"/>
	<path fill-rule="evenodd" clip-rule="evenodd" d="M181.5,254.6c0.4,0,0.8,0,1.2,0c-0.2,0.7,0.5,2.3-0.4,2.4
		C180.9,257.4,181.7,255.4,181.5,254.6z"/>
	<path fill-rule="evenodd" clip-rule="evenodd" d="M194.5,254.6c0.4,0,0.8,0,1.2,0c0,0.4,0,0.8,0,1.2c-0.4,0-0.8,0-1.2,0
		C194.5,255.4,194.5,255,194.5,254.6z"/>
	<path fill-rule="evenodd" clip-rule="evenodd" d="M149.6,255.8c1.3-0.5,1.6,2,0.8,2.4C149,258.5,149.8,256.6,149.6,255.8z"/>
	<path fill-rule="evenodd" clip-rule="evenodd" d="M156.7,257c0.4,0,0.8,0,1.2,0c0,0.4,0,0.8,0,1.2C157,258.2,156.6,257.8,156.7,257
		z"/>
	<path fill-rule="evenodd" clip-rule="evenodd" d="M161.4,257c0.4,0.2,0.7,0.5,0.8,0c0.6-0.1,0.6,2.4,0,2.4
		C160.8,259.7,161.6,257.8,161.4,257z"/>
	<path fill-rule="evenodd" clip-rule="evenodd" d="M180.3,257c0.9-0.1,1.3,0.3,1.2,1.2c-0.4-0.2-0.7-0.5-0.8,0
		C180.2,258.1,180.4,257.5,180.3,257z"/>
	<path fill-rule="evenodd" clip-rule="evenodd" d="M189.8,257.4c-0.4,1.3-2.4,0.7-3.5,0.4C186.7,256.8,188.6,256.8,189.8,257.4z"/>
	<path fill-rule="evenodd" clip-rule="evenodd" d="M199.2,257c0.4,0,0.8,0,1.2,0c0,0.4,0,0.8,0,1.2c-0.4,0-0.8,0-1.2,0
		C199.2,257.8,199.2,257.4,199.2,257z"/>
	<path fill-rule="evenodd" clip-rule="evenodd" d="M153.1,258.2c0.4,0,0.8,0,1.2,0c0,0.4,0,0.8,0,1.2c-0.4,0-0.8,0-1.2,0
		C153.1,259,153.1,258.6,153.1,258.2z"/>
	<path fill-rule="evenodd" clip-rule="evenodd" d="M155.5,258.2c0.4,0,0.8,0,1.2,0c0.2,0.8-0.3,1-0.4,1.6
		C155.6,259.7,155.4,259.1,155.5,258.2z"/>
	<path fill-rule="evenodd" clip-rule="evenodd" d="M159.8,260.5c-1.1,0,0.9,1.1-0.8,0.8c0-1.1-0.2-2.6,0.4-3.2
		c1.1,0.1,0.7,1.6,0.8,2.8C159.9,261,159.9,260.8,159.8,260.5z"/>
	<path fill-rule="evenodd" clip-rule="evenodd" d="M191,258.2c0.4,0,0.8,0,1.2,0c0,0.4,0,0.8,0,1.2c-0.4,0-0.8,0-1.2,0
		C191,259,191,258.6,191,258.2z"/>
	<path fill-rule="evenodd" clip-rule="evenodd" d="M186.6,259.4c1.4-0.4,0.5,1.6,0.8,2.4c-0.7-0.2-2.3,0.5-2.4-0.4
		C185,260.1,186.8,260.7,186.6,259.4z"/>
	<path fill-rule="evenodd" clip-rule="evenodd" d="M173.6,259.7c1.3-0.4,0.6,1.2,0.8,2c-1-0.2-1.4,0.2-1.2,1.2c-0.8,0-1.6,0-2.4,0
		C171.3,261.4,173.3,261.4,173.6,259.7z"/>
	<path fill-rule="evenodd" clip-rule="evenodd" d="M155.5,260.9c0.6,1.3-2.4,1-2.4,0.4C152.6,260.1,155.5,260.3,155.5,260.9z"/>
	<path fill-rule="evenodd" clip-rule="evenodd" d="M167.3,260.5c0.4,0,0.8,0,1.2,0c0,0.4,0,0.8,0,1.2c-0.4,0-0.8,0-1.2,0
		C167.3,261.3,167.3,260.9,167.3,260.5z"/>
	<path fill-rule="evenodd" clip-rule="evenodd" d="M155.9,262.1c0.2-0.8,2.8-0.7,2,0.8C156.4,263.5,157.1,261.8,155.9,262.1z"/>
	<path fill-rule="evenodd" clip-rule="evenodd" d="M178,261.7c0.4,0,0.8,0,1.2,0c0,0.4,0,0.8,0,1.2c-0.4,0-0.8,0-1.2,0
		C178,262.5,178,262.1,178,261.7z"/>
	<path fill-rule="evenodd" clip-rule="evenodd" d="M201.6,262.1c0.8-0.1,1.2,0.1,1.2,0.8c-0.4,0-0.8,0-1.2,0
		C201.6,262.6,201.6,262.4,201.6,262.1z"/>
	<path fill-rule="evenodd" clip-rule="evenodd" d="M154.3,264.1c0.4,0,0.8,0,1.2,0c0,0.4,0,0.8,0,1.2c-0.4,0-0.8,0-1.2,0
		C154.3,264.9,154.3,264.5,154.3,264.1z"/>
	<path fill-rule="evenodd" clip-rule="evenodd" d="M191,264.1c0.4,0,0.8,0,1.2,0c0,0.4,0,0.8,0,1.2c-0.4,0-0.8,0-1.2,0
		C191,264.9,191,264.5,191,264.1z"/>
	<path fill-rule="evenodd" clip-rule="evenodd" d="M195.7,264.5C195.1,266,193.4,264.3,195.7,264.5L195.7,264.5z"/>
	<path fill-rule="evenodd" clip-rule="evenodd" d="M149.6,265.3c0.8,0,1.6,0,2.4,0c-0.3,1.4,0.7,1.7,0,2.4
		C150.9,267.1,149.7,266.7,149.6,265.3z"/>
	<path fill-rule="evenodd" clip-rule="evenodd" d="M168.5,266.4c0.4,0,0.8,0,1.2,0c0,0.4,0,0.8,0,1.2c-0.4,0-0.8,0-1.2,0
		C168.5,267.2,168.5,266.8,168.5,266.4z"/>
	<path fill-rule="evenodd" clip-rule="evenodd" d="M174.4,266.4c0.4,0,0.8,0,1.2,0c0,0.4,0,0.8,0,1.2c-0.4,0-0.8,0-1.2,0
		C174.4,267.2,174.4,266.8,174.4,266.4z"/>
	<path fill-rule="evenodd" clip-rule="evenodd" d="M201.6,266.4c0.4,0,0.8,0,1.2,0c0,0.4,0,0.8,0,1.2c-0.4,0-0.8,0-1.2,0
		C201.6,267.2,201.6,266.8,201.6,266.4z"/>
	<path fill-rule="evenodd" clip-rule="evenodd" d="M196.9,267.6C195,268,196.2,265.8,196.9,267.6L196.9,267.6z"/>
	<path fill-rule="evenodd" clip-rule="evenodd" d="M154.3,267.6c0,0.4,0,0.8,0,1.2c-0.8,0.2-1-0.3-1.6-0.4
		C152.8,267.7,153.4,267.5,154.3,267.6z"/>
	<path fill-rule="evenodd" clip-rule="evenodd" d="M156.7,267.6c0.4,0,0.8,0,1.2,0c0,0.4,0,0.8,0,1.2c-0.4,0-0.8,0-1.2,0
		C156.7,268.4,156.7,268,156.7,267.6z"/>
	<path fill-rule="evenodd" clip-rule="evenodd" d="M206.3,267.6c0.4,0,0.8,0,1.2,0c0.2,0.8-0.3,1-0.4,1.6
		C206.4,269.1,206.2,268.5,206.3,267.6z"/>
	<path fill-rule="evenodd" clip-rule="evenodd" d="M183.9,268c0.1,0.3-0.2,0.4-0.4,0.4c0.1,0.5,1,0.3,1.6,0.4c0,0.4,0,0.8,0,1.2
		c-1,0.1-1.9,0.1-2.4-0.4C183.4,268.9,182.1,268,183.9,268z"/>
	<path fill-rule="evenodd" clip-rule="evenodd" d="M148.4,271.2c-0.8,2.1,2.1,0.5,2.4,1.6c0.2,1.6-2.5,0.4-3.5,0.8
		c0.6-1.5-1-0.8-1.2-1.6C145.7,270.5,147.6,271.4,148.4,271.2z"/>
	<path fill-rule="evenodd" clip-rule="evenodd" d="M174.4,271.2c0.4,0,0.8,0,1.2,0c0,0.4,0,0.8,0,1.2c-0.4,0-0.8,0-1.2,0
		C174.4,272,174.4,271.6,174.4,271.2z"/>
	<path fill-rule="evenodd" clip-rule="evenodd" d="M186.2,273.5c0-0.4,0-0.8,0-1.2c0.4,0,0.8,0,1.2,0c0,0.4,0,0.8,0,1.2
		C187,273.5,186.6,273.5,186.2,273.5z"/>
	<path fill-rule="evenodd" clip-rule="evenodd" d="M192.5,272.7c0.6-1.4,0.7,0.7,0.4,0.8C192.7,273.6,192.4,273,192.5,272.7z"/>
	<path fill-rule="evenodd" clip-rule="evenodd" d="M155.5,273.5c0.4,0,0.8,0,1.2,0c0,0.4,0,0.8,0,1.2c-0.4,0-0.8,0-1.2,0
		C155.5,274.3,155.5,273.9,155.5,273.5z"/>
	<path fill-rule="evenodd" clip-rule="evenodd" d="M165,273.9C164,275.2,163.1,272.8,165,273.9L165,273.9z"/>
	<path fill-rule="evenodd" clip-rule="evenodd" d="M208.7,273.5c0.6-0.1,0.7,0.4,1.2,0.4c-0.1,0.3-0.4,0.4-0.4,0.8
		c-0.3,0-0.5,0-0.8,0C208.7,274.3,208.7,273.9,208.7,273.5z"/>
	<path fill-rule="evenodd" clip-rule="evenodd" d="M161.4,274.7c0.4,0,0.8,0,1.2,0c0,0.4,0,0.8,0,1.2c-0.4,0-0.8,0-1.2,0
		C161.4,275.5,161.4,275.1,161.4,274.7z"/>
	<path fill-rule="evenodd" clip-rule="evenodd" d="M178,274.7c0.4,0,0.8,0,1.2,0c0,0.4,0,0.8,0,1.2c-0.5,0-1.1,0-1.6,0
		C177.8,275.6,178,275.3,178,274.7z"/>
	<path fill-rule="evenodd" clip-rule="evenodd" d="M181.9,276.3c0.1,0.4,0.4,0.2,0.4,0c1.1,0.2,0,1.2-0.8,0.8
		c-0.1-0.8,0.1-1.2,0.8-1.2C182.4,276.2,182.1,276.3,181.9,276.3z"/>
	<path fill-rule="evenodd" clip-rule="evenodd" d="M165,277.1c0.8,0,1.6,0,2.4,0c0,0.8,0,1.6,0,2.4c-1.5-0.3-1.4,0-2.4-0.4
		C165,278.4,165,277.7,165,277.1z"/>
	<path fill-rule="evenodd" clip-rule="evenodd" d="M173.2,277.1c0.4,0,0.8,0,1.2,0c0,0.4,0,0.8,0,1.2c-0.4,0-0.8,0-1.2,0
		C173.2,277.9,173.2,277.5,173.2,277.1z"/>
	<path fill-rule="evenodd" clip-rule="evenodd" d="M201.6,277.5c0.1-0.5,0.7-0.3,1.2-0.4c0,0.4,0,0.8,0,1.2
		C201.9,278.5,202.2,277.5,201.6,277.5z"/>
	<path fill-rule="evenodd" clip-rule="evenodd" d="M168.5,278.3c0.4,0,0.8,0,1.2,0c0,0.4,0,0.8,0,1.2c-0.4,0-0.8,0-1.2,0
		C168.5,279.1,168.5,278.7,168.5,278.3z"/>
	<path fill-rule="evenodd" clip-rule="evenodd" d="M191,278.3c0.4,0,0.8,0,1.2,0c-0.2,0.7,0.5,2.3-0.4,2.4
		C190.3,281,191.2,279.1,191,278.3z"/>
	<path fill-rule="evenodd" clip-rule="evenodd" d="M205.9,278.3c1.3,0.1,3-0.4,2.8,1.2C207.4,279.4,205.7,279.8,205.9,278.3z"/>
	<path fill-rule="evenodd" clip-rule="evenodd" d="M147.2,279.8c0.3-0.7,0.9-0.2,0.8,0.4c0.5,0.1,0.7-0.1,0.8-0.4
		c1.3,0.4-0.4,1.1-1.2,0.8C147.7,280.2,147.5,279.9,147.2,279.8z"/>
	<path fill-rule="evenodd" clip-rule="evenodd" d="M179.1,279.4c0.4,0,0.8,0,1.2,0c0,0.4,0,0.8,0,1.2c-0.4,0-0.8,0-1.2,0
		C179.1,280.2,179.1,279.8,179.1,279.4z"/>
	<path fill-rule="evenodd" clip-rule="evenodd" d="M157.9,280.6c0.4,0,0.8,0,1.2,0c-0.2,0.7,0.5,2.3-0.4,2.4
		C157.2,283.4,158.1,281.4,157.9,280.6z"/>
	<path fill-rule="evenodd" clip-rule="evenodd" d="M204,280.6c0.4,0,0.8,0,1.2,0c-0.4,0.4-0.1,1.5-1.2,1.2
		C204,281.4,204,281,204,280.6z"/>
	<path fill-rule="evenodd" clip-rule="evenodd" d="M155.5,281.8c0.4,0,0.8,0,1.2,0c0,2,0,3.9,0,5.9c-1.5,0.2-1.4-1.2-2.4-1.6
		C155.3,285.3,155.8,284,155.5,281.8z"/>
	<path fill-rule="evenodd" clip-rule="evenodd" d="M168.5,281.8c0.4,0,0.8,0,1.2,0c0,0.8,0,1.6,0,2.4c-0.7-0.2-2.3,0.5-2.4-0.4
		C166.9,282.3,169.2,283.6,168.5,281.8z"/>
	<path fill-rule="evenodd" clip-rule="evenodd" d="M174.4,281.8c0.4,0,0.8,0,1.2,0c0,0.4,0,0.8,0,1.2c-0.4,0-0.8,0-1.2,0
		C174.4,282.6,174.4,282.2,174.4,281.8z"/>
	<path fill-rule="evenodd" clip-rule="evenodd" d="M205.5,281.8c0.3,0,0.5,0,0.8,0c-0.2,0.3-0.4,0.6-0.4,1.2
		C205.1,282.8,205.1,282.4,205.5,281.8z"/>
	<path fill-rule="evenodd" clip-rule="evenodd" d="M185,283c0.9-0.2,0.6,0.8,1.2,0.8C186.1,284.8,184.7,283.8,185,283z"/>
	<path fill-rule="evenodd" clip-rule="evenodd" d="M163.8,285.4c0.8-0.2,1,0.3,1.6,0.4c-0.1,0.7-0.7,0.9-1.6,0.8
		C163.8,286.1,163.8,285.7,163.8,285.4z"/>
	<path fill-rule="evenodd" clip-rule="evenodd" d="M173.6,285.4C175.1,286.5,172.4,286.7,173.6,285.4L173.6,285.4z"/>
	<path fill-rule="evenodd" clip-rule="evenodd" d="M189.8,285.4c0.7,0.2,2.3-0.5,2.4,0.4C192.4,287.2,189.2,286.7,189.8,285.4z"/>
	<path fill-rule="evenodd" clip-rule="evenodd" d="M162.6,286.5c0.9-0.1,1.3,0.3,1.2,1.2C162.9,287.8,162.5,287.4,162.6,286.5z"/>
	<path fill-rule="evenodd" clip-rule="evenodd" d="M154.3,288.9c0.4,0,0.8,0,1.2,0c0,0.4,0,0.8,0,1.2
		C154.6,290.2,154.2,289.8,154.3,288.9z"/>
	<path fill-rule="evenodd" clip-rule="evenodd" d="M150.8,293.6c0.4,0,0.8,0,1.2,0c0,0.4,0,0.8,0,1.2c-0.4,0-0.8,0-1.2,0
		C150.8,294.4,150.8,294,150.8,293.6z"/>
	<path fill-rule="evenodd" clip-rule="evenodd" d="M152.7,297.6c-0.7-0.1-0.9-0.7-0.8-1.6c0.4,0,0.8,0,1.2,0
		C153.3,296.8,152.9,297,152.7,297.6z"/>
	<path fill-rule="evenodd" clip-rule="evenodd" d="M167.7,62c0.1-0.9,1,0.5,2,0c0,0.8,0,1.6,0,2.4c-0.4,0-0.8,0-1.2,0
		c0.2-2-0.3-1.1-1.2-1.6c0-0.4,0.5-0.3,0.8-0.4C168.2,62,167.9,62,167.7,62z"/>
	<path fill-rule="evenodd" clip-rule="evenodd" d="M175.6,71.8c0.1-0.4,0.4-0.2,0.4,0c0.3,0.1,0.4-0.2,0.4-0.4
		c0.4,0,0.3,0.5,0.4,0.8c-0.3-0.1-0.4,0.2-0.4,0.4C175.9,72.5,176.1,71.8,175.6,71.8z"/>
	<path fill-rule="evenodd" clip-rule="evenodd" d="M168.5,72.2c0,0.3,0,0.5,0,0.8C166.6,73.4,167.8,70.9,168.5,72.2z"/>
	<path fill-rule="evenodd" clip-rule="evenodd" d="M186.2,75c-0.7-0.2-2.3,0.5-2.4-0.4c0.1-1.1,1.4-0.9,1.6-2c1.9-0.4-0.4,3.3,2,2.4
		c0.1,0.8-0.1,1.2-0.8,1.2c0,0.4,0.5,0.3,0.8,0.4C186.8,77.7,185.8,76.1,186.2,75z"/>
	<path fill-rule="evenodd" clip-rule="evenodd" d="M180.3,75c0.5,0,1.1,0,1.6,0c-0.7,1-1.3,2.1-2.8,2.4
		C178.8,75.8,180.9,76.7,180.3,75z"/>
	<path fill-rule="evenodd" clip-rule="evenodd" d="M187,79.7c-1.4,0.4-0.5-1.6-0.8-2.4c1,0,2.2-0.1,2.8,0.4
		C188.3,77.7,187.3,78.4,187,79.7z"/>
	<path fill-rule="evenodd" clip-rule="evenodd" d="M178.3,80.9c1.4-0.4,0.2,1.9,2,1.2c0.4,2-2.3,0.6-2.4,1.2
		C177.5,83.4,177.9,81.1,178.3,80.9z"/>
	<path fill-rule="evenodd" clip-rule="evenodd" d="M152.3,89.6c-1.2-0.5,1.1-0.5,0.8,0.4C152.8,90.7,152.9,89.5,152.3,89.6z"/>
	<path fill-rule="evenodd" clip-rule="evenodd" d="M161,92.3c-1.5-0.9,0.5-0.5,0.4,0C161.3,92.9,161.1,92.3,161,92.3z"/>
	<path fill-rule="evenodd" clip-rule="evenodd" d="M170.9,91.5c1.8-0.7,0.5,1.8,2.4,1.2c-0.2,0.7,0.5,2.3-0.4,2.4
		C171.8,94.3,171.6,92.6,170.9,91.5z"/>
	<path fill-rule="evenodd" clip-rule="evenodd" d="M151.9,92.7c-0.5,1.4-1.8,2.2-1.2,4.7c-2.2,0.6-0.1-3.1-2.4-2.4
		C149.8,94.5,150.5,93.2,151.9,92.7z"/>
	<path fill-rule="evenodd" clip-rule="evenodd" d="M179.1,96.2c-0.1-1-0.1-1.9,0.4-2.4c1,0,0.8,1.3,0.8,2.4c0.9-0.6,3.9-2.3,3.2,0
		c-0.4,0-0.3-0.5-0.4-0.8c-0.6,0.7-1.6,1-2,2C179.7,97.8,180.9,95.5,179.1,96.2z"/>
	<path fill-rule="evenodd" clip-rule="evenodd" d="M176.8,95.9c-0.1-0.3,0.2-0.4,0.4-0.4c0.3,0,0.5,0,0.8,0c0.6,2-1.6,2.1,0,3.2
		C176.1,99.5,177.4,96.5,176.8,95.9z"/>
	<path fill-rule="evenodd" clip-rule="evenodd" d="M195.7,99.4c0.9-1.9,2.5-0.6,2.8-3.1c0.9,0.5,1.6,1.3,2,2.4
		c-2.1-0.8-0.5,2.1-1.6,2.4c-0.4-0.6-3.2-2.6-3.2,0c-0.8,0-1.6,0-2.4,0c0.2-0.7-0.5-2.3,0.4-2.4c1.5-0.6,0.1,1.8,1.6,1.2
		C195.6,99.9,195.7,99.6,195.7,99.4z"/>
	<path fill-rule="evenodd" clip-rule="evenodd" d="M148.4,101c0-0.8,0-1.6,0-2.4c0.8,0,1.6,0,2.4,0c0,0.8,0,1.6,0,2.4
		c-1.4-0.1-2.6-0.9-2.4,1.2c-0.8-1-2.4,0.9-2.4-1.2C147.3,101.4,146.9,101,148.4,101z"/>
	<path fill-rule="evenodd" clip-rule="evenodd" d="M153.9,99.8c1.3,0.4-0.4,0.8-0.4,1.2C152.4,100.8,154.1,100.4,153.9,99.8z"/>
	<path fill-rule="evenodd" clip-rule="evenodd" d="M173.2,99.8c0.6,1.5-1,0.8-1.2,1.6c0.4,1.7,2.2,1,3.5,0.8
		c0.3,2.8-3.1-0.7-2.4,2.4c-0.4-0.2-0.7-0.5-0.8,0c-0.7-1.1-1.3-2.4-2.8-2.8C170.5,100.7,172.1,100.5,173.2,99.8z"/>
	<path fill-rule="evenodd" clip-rule="evenodd" d="M201.6,99.8c1.3,0.3,2.1,1,2.4,2.4C202.6,101.9,201.8,101.1,201.6,99.8z"/>
	<path fill-rule="evenodd" clip-rule="evenodd" d="M192.1,105.3c-1,0.4-0.8,0.1-2.4,0.4c0.2-0.7-0.5-2.3,0.4-2.4
		C191.3,103.6,192.4,103.8,192.1,105.3z"/>
	<path fill-rule="evenodd" clip-rule="evenodd" d="M191,103.3c0-0.4,0-0.8,0-1.2c2.9-0.3,1.4,2.1,3.5,1.2c0.1,0.6-0.4,0.7-0.4,1.2
		c-0.3,0-0.5,0-0.8,0C193.5,103.1,192.2,103.3,191,103.3z"/>
	<path fill-rule="evenodd" clip-rule="evenodd" d="M194.9,103.7c0.4,0.1,0.2,0.4,0,0.4c0.6,0.1,1.2,2.2,1.6,1.2
		c0.5,0.1,0.3,1,0.4,1.6c-0.4,0-0.8,0-1.2,0c0.1-1.6,0-1.6-1.2-1.2C195.2,105,194,104.6,194.9,103.7z"/>
	<path fill-rule="evenodd" clip-rule="evenodd" d="M165,104.1c-0.4-1.4,1.6-0.5,2.4-0.8c0.5,1.5,1.3,2.7,2.4,3.5
		c-0.7,0-1,0.6-2.4,0.8C168,105,166.7,104.3,165,104.1z"/>
	<path fill-rule="evenodd" clip-rule="evenodd" d="M179.1,107.7c-0.4-1.4,1.6-0.5,2.4-0.8c-0.6,1.5,1,0.8,1.2,1.6
		c0.1,1.3-1.9,0.4-1.2,2.4c-0.6-0.5-1.8-0.3-1.6-1.6c0.5,0,1.1,0,1.6,0c0-0.3,0-0.5,0-0.8C181.6,107.3,179.1,108.8,179.1,107.7z"/>
	<path fill-rule="evenodd" clip-rule="evenodd" d="M154.7,110.4c1.4-0.4,0.5,1.6,0.8,2.4c-1.8-0.7-0.5,1.9-2.4,1.2
		C153.5,112.7,154.5,112,154.7,110.4z"/>
	<path fill-rule="evenodd" clip-rule="evenodd" d="M147.6,113.2c-1-0.7,0.7,0,1.2,0c-0.3,0.5-0.5,1.1-0.4,2c1,0.2,1.4-0.2,1.2-1.2
		c0.8,0,1.6,0,2.4,0c0,0.8,0,1.6,0,2.4c-1.5-0.6-0.8,1-1.6,1.2c-1.4,0.6-0.2-1.3-1.2-1.2c-1-0.5-0.5,1-0.8,1.2
		c-0.9,0.6-2.8-0.6-2.8,1.2c-1.3,0.4-0.6-1.2-0.8-2c0.9-0.3,1.6-0.4,3.5-0.4C147.7,115,147,113.9,147.6,113.2z"/>
	<path fill-rule="evenodd" clip-rule="evenodd" d="M170.9,112.8c0.7,0.2,2.3-0.5,2.4,0.4c-0.8,1.4-1.5,0.7-2,2
		C170.9,114.8,171,114.2,170.9,112.8z"/>
	<path fill-rule="evenodd" clip-rule="evenodd" d="M196.1,112.8c1.3-0.1,0.7,1.7,1.2,2.4c-1.9-0.8-1.1,1.3-2.4,1.2
		C194.4,115.5,196,114.3,196.1,112.8z"/>
	<path fill-rule="evenodd" clip-rule="evenodd" d="M186.2,117.5c0,0.8,0,1.6,0,2.4c-0.5,0-1.1,0-1.6,0
		C183.7,118.9,184.6,117.2,186.2,117.5z"/>
	<path fill-rule="evenodd" clip-rule="evenodd" d="M161.4,116.3c0.7,1.8-1.9,0.5-1.2,2.4c1.4,0.2,2-2.4,3.5-0.8c0,1.5-3,0.2-2.8,2
		c-1.5,0.6-0.1-1.8-1.6-1.2c-0.9,0-0.2,1.7-0.4,2.4c-0.8,0-1.6,0-2.4,0c0-0.8,0-1.6,0-2.4C159.7,119.3,159.3,116.6,161.4,116.3z"/>
	<path fill-rule="evenodd" clip-rule="evenodd" d="M201.2,116.7c0.3-0.6,0.6,0.1,1.6-0.4c-0.4,0.9,0.1,1.1-0.8,2
		C200.9,118.6,202.3,116.5,201.2,116.7z"/>
	<path fill-rule="evenodd" clip-rule="evenodd" d="M166.1,117.5c1.4-0.2,1.2,1.2,1.2,2.4c-1.7-0.6-1.1,1.3-1.2,2.4
		c-1.9-0.7-0.5,1.9-2.4,1.2c-0.2-1,0.2-1.4,1.2-1.2C164.2,119.5,166.7,120.1,166.1,117.5z"/>
	<path fill-rule="evenodd" clip-rule="evenodd" d="M182.7,119.9c1.3,0.3,2.1,1,2.4,2.4C183.7,122,182.9,121.2,182.7,119.9z"/>
	<path fill-rule="evenodd" clip-rule="evenodd" d="M197.7,122.6c-0.2-0.6-1.2-0.3-0.8-1.6c0.7,0.2,2.3-0.5,2.4,0.4
		c-0.1,1.2-1.7,0.9-2,2C196.7,123.3,197.2,122.7,197.7,122.6z"/>
	<path fill-rule="evenodd" clip-rule="evenodd" d="M203.2,124.6c0.4,0.1,0.2,0.4,0,0.4c-0.1,0.3,0.2,0.4,0.4,0.4
		C203.1,126.6,202.4,125,203.2,124.6z"/>
	<path fill-rule="evenodd" clip-rule="evenodd" d="M161.4,126.2c0.1-0.5,0.7-0.3,1.2-0.4c0.1,0.5-0.1,0.7-0.4,0.8
		c-0.1,0.3,0.2,0.4,0.4,0.4C161.9,127.9,161.5,126.3,161.4,126.2z"/>
	<path fill-rule="evenodd" clip-rule="evenodd" d="M189,125.8c0.3,0,0.5,0,0.8,0c0.2,1.6-1.7,1.2-1.6,2.8c-0.7-0.1-0.9-0.7-0.8-1.6
		C189,127.6,188.2,126,189,125.8z"/>
	<path fill-rule="evenodd" clip-rule="evenodd" d="M206.3,127.4c0.4,1.4-1.9,0.2-1.2,2c-0.4,0-0.8,0-1.2,0c0-0.4,0-0.8,0-1.2
		C205.7,128.7,205.1,126.1,206.3,127.4z"/>
	<path fill-rule="evenodd" clip-rule="evenodd" d="M209.9,128.2c-0.5,1-0.9,2.3-2.4,2.4C207.5,129,209.1,128.9,209.9,128.2z"/>
	<path fill-rule="evenodd" clip-rule="evenodd" d="M156.7,130.5c1-0.1,1.3,0.5,1.2,1.6c-0.8-0.1-1.2,0.1-1.2,0.8
		C155.6,132.5,157.2,131.7,156.7,130.5z"/>
	<path fill-rule="evenodd" clip-rule="evenodd" d="M161.4,131.7c1.8,0,1.7,2,3.2,2.4c0.9,0.1,0.2-1.4,0.4-2c0.3,1.1,2.1,0.8,3.5,0.8
		c-0.1,1.4-1.2,1.7-2,2.4c-1.6,0.1,0.1-0.6-0.8-1.2c-0.6,0.3-0.7,2.4-1.6,1.6c-1.5,1.6,0.5,3.1,0.8,4.3c-1.9,0.7-0.5-1.9-2.4-1.2
		c0-1,0.4-2.5-1.2-2c0.2-1.1-0.7-3.3,1.2-2.8C163.3,132.2,160.7,133.6,161.4,131.7z"/>
	<path fill-rule="evenodd" clip-rule="evenodd" d="M170.9,134.1c0.2-0.7-0.5-2.3,0.4-2.4c1.6-0.3,0.2,2.4,1.2,2.8
		C172.1,135.6,172.1,133.3,170.9,134.1z"/>
	<path fill-rule="evenodd" clip-rule="evenodd" d="M213.4,132.9c-1.9-0.7-0.5,1.8-2.4,1.2c-0.3-1.6,1.5-1.2,1.6-2.4
		c1.4-0.3,0.5,1.9,1.6,2C214,134.8,213,133.7,213.4,132.9z"/>
	<path fill-rule="evenodd" clip-rule="evenodd" d="M195.7,142.3c0-0.6,0.2-1.5-0.4-1.6c0.1-1.1,1.6-0.7,2.8-0.8
		c-0.8,2.4,1.3,1.9,1.2,3.5C197.6,143.6,198,141.6,195.7,142.3z"/>
	<path fill-rule="evenodd" clip-rule="evenodd" d="M175.6,145.5c-0.6-1.8,2.6,0.2,2-1.6c0.3,1.6,0.8,3.1,1.6,4.3
		C177.4,147.8,177,146.2,175.6,145.5z"/>
	<path fill-rule="evenodd" clip-rule="evenodd" d="M187.4,148.3c0-0.8,0-1.6,0-2.4c0.8,0,1.6,0,2.4,0c0.1,1-0.1,1.7-1.2,1.6
		c-0.1,0.3,0.2,0.4,0.4,0.4C188.6,148.5,188.4,147.8,187.4,148.3z"/>
	<path fill-rule="evenodd" clip-rule="evenodd" d="M180.3,147.1c1.3,0.3,2.1,1,2.4,2.4C181.4,149.2,180.6,148.4,180.3,147.1z"/>
	<path fill-rule="evenodd" clip-rule="evenodd" d="M146.4,152.2c2-0.9-0.3,0.6,0,0.8C146,152.7,146,152.4,146.4,152.2z"/>
	<path fill-rule="evenodd" clip-rule="evenodd" d="M166.1,151.8c0.4,1.3-2.9,2.1,0,2.4c-0.1,1.3-1.3,1.6-2.4,2
		c0-0.4,0.5-0.3,0.8-0.4c-0.8-0.3-0.9-1.5-0.8-2.8C165.6,153.6,164.3,151.1,166.1,151.8z"/>
	<path fill-rule="evenodd" clip-rule="evenodd" d="M175.6,152.6c0,0.5,0,1,0,1.6c-0.8-0.3-2.4,0.3-1.2,0.8c-0.2,0.9-1.9,0.2-2.8,0.4
		c0.2-0.3,0.4-0.6,0.4-1.2c-0.8,0-1.6,0-2.4,0c-1,1.5,0.9,0.7,1.2,1.2c1,1.5-0.4-0.5-1.2,0.4c-0.3,0.3,0.8,0.4,0.8,0.4
		c-0.1,1.1-2.4,2.7-3.2,2.8c-0.2-1,0.2-1.4,1.2-1.2c0-1.6,0-3.2,0-4.7C170.9,152.9,173.8,153.3,175.6,152.6z"/>
	<path fill-rule="evenodd" clip-rule="evenodd" d="M189.8,157.7c-1.5-0.6-0.8,1-1.6,1.2c-1.7,0.1-0.4-2.5-0.4-3.2
		c1.3,1,2.5,2,4.3,2.4c0.6,1.7-2,0.1-2,1.2C189.6,158.9,190.3,158.7,189.8,157.7z"/>
	<path fill-rule="evenodd" clip-rule="evenodd" d="M161.8,156.5c1.5,0,0.2,3,2,2.8c0.4,1.9-3.3-0.4-2.4,2c-1.1-0.2-3.1,0.5-3.5-0.4
		c0.1-1.1,1.4-0.9,1.6-2c1.3-0.3,0.6,0.8,0.4,1.2c0.4,0,0.8,0,1.2,0C162.2,159.8,160.7,156.8,161.8,156.5z"/>
	<path fill-rule="evenodd" clip-rule="evenodd" d="M175.2,160.9c0-0.4-0.5-0.3-0.8-0.4c1.2-1.7,0.8,1.5,2.4,0.8c0,0.8,0,1.6,0,2.4
		c-0.7-0.2-2.3,0.5-2.4-0.4c0.3-1.8,1.8-0.1,1.2-1.6C175.4,161.2,173.5,161,175.2,160.9z"/>
	<path fill-rule="evenodd" clip-rule="evenodd" d="M168.5,162.4c1.3,0.3,2.1,1.1,2.4,2.4C169.5,164.5,168.8,163.8,168.5,162.4z"/>
	<path fill-rule="evenodd" clip-rule="evenodd" d="M157.1,163.6c0.5-0.1,0.7,0.1,0.8,0.4c0,0.3,0,0.5,0,0.8c-0.6,0-1.1-0.1-1.2,0.4
		C156,165.4,156.7,163.7,157.1,163.6z"/>
	<path fill-rule="evenodd" clip-rule="evenodd" d="M150.8,166c0.3,0.1,0.4,0.4,0.8,0.4c0.5,0.2-1.1,0.7-1.6,0.4
		C150.1,166.3,150.8,166.5,150.8,166z"/>
	<path fill-rule="evenodd" clip-rule="evenodd" d="M178.3,167.2c1.4-0.4,0.5,1.6,0.8,2.4c-1.8-0.7-0.5,1.8-2.4,1.2
		C177.2,169.4,178.2,168.7,178.3,167.2z"/>
	<path fill-rule="evenodd" clip-rule="evenodd" d="M186.6,168.3c1.4-0.4,0.5,1.6,0.8,2.4c-1-0.2-1.4,0.2-1.2,1.2
		c-2.1,0.3-2.8-0.9-3.5-2c1.4-1.3,1.1,1.6,3.2,0.8C186.9,170.8,185.5,168.3,186.6,168.3z"/>
	<path fill-rule="evenodd" clip-rule="evenodd" d="M213.4,169.5c0-0.3,0-0.5,0-0.8c0.3,0.1,0.4-0.2,0.4-0.4c0.7,0.9,2,1.2,3.2,1.6
		c0.4,1.4-1.6,0.5-2.4,0.8C214.8,169.7,214.4,169.3,213.4,169.5z"/>
	<path fill-rule="evenodd" clip-rule="evenodd" d="M204.3,170.7c0.4,0.1,0.2,0.4,0,0.4c0,0.4,0.5,0.3,0.8,0.4
		c-0.1,0.5-0.7,0.3-1.2,0.4C203.8,171.3,204.3,171.2,204.3,170.7z"/>
	<path fill-rule="evenodd" clip-rule="evenodd" d="M195.7,175.4c0-1,0.4-2.5-1.2-2c0-0.6-0.2-1.5,0.4-1.6c0.7,0.9,2,1.2,3.2,1.6
		c0.6,1.5-1.8,0.1-1.2,1.6c0.2,0.9,2.1,0,2.4,0.8c-1.4,0.4-0.1,0.2,0,2C197.2,177.8,197.7,175.4,195.7,175.4z"/>
	<path fill-rule="evenodd" clip-rule="evenodd" d="M206.3,173.1c0.6,1.5-1,0.8-1.2,1.6c0.3,1.5,2.4,1.3,2.4,3.2
		c-1.5-0.5-2.2,0.4-3.5-0.4c1.7-2.1-2.6-2.3-0.8-4.3c1.2-0.4,0.7,0.9,0.8,1.6C205.4,174.8,204.6,172.6,206.3,173.1z"/>
	<path fill-rule="evenodd" clip-rule="evenodd" d="M185,174.3c1.3,0.3,2.1,1,2.4,2.4C186.1,176.4,185.3,175.6,185,174.3z"/>
	<path fill-rule="evenodd" clip-rule="evenodd" d="M161.4,178.2c0.2-0.6,0.5,0.2,1.2,0c0,0.4,0,0.8,0,1.2c-0.7-0.1-0.7,0.3-0.8,0.8
		c-0.9-0.2-0.4-2.5,0.4-1.2C162,178.6,161.8,178.3,161.4,178.2z"/>
	<path fill-rule="evenodd" clip-rule="evenodd" d="M224,177.8c-0.3,1.3-1,2.1-2.4,2.4C221.9,178.9,222.7,178.1,224,177.8z"/>
	<path fill-rule="evenodd" clip-rule="evenodd" d="M157.9,180.2c1.2,0.4,0.9,0,2.4,0c-1.3,1.6,1.2,2,1.2,3.5c-1.9,0.4-1.9-1-3.2-1.2
		c-0.8,0.2,0,1.8-1.6,1.2c0-0.4,0-0.8,0-1.2C158.7,181.6,156.6,182.6,157.9,180.2z"/>
	<path fill-rule="evenodd" clip-rule="evenodd" d="M204,181c0.3-0.6,1-0.8,2-0.8c-0.1,1.4,2,0.6,1.6,2.4
		C205.8,182.5,206.1,180.5,204,181z"/>
	<path fill-rule="evenodd" clip-rule="evenodd" d="M225.6,182.5c0.7,0.4,0.9,1.2,0.8,2.4c-0.8-0.1-1.2,0.1-1.2,0.8
		c-0.1,1.1,2.4-0.3,2.4,0.8c0.4,1.4-1.6,0.5-2.4,0.8c0.6-1.5-1-0.8-1.2-1.6C224.6,184.7,225.7,184.2,225.6,182.5z"/>
	<path fill-rule="evenodd" clip-rule="evenodd" d="M213.4,186.1c0.9,1.4-0.8,0.5-1.2,1.2c-0.2,0.5,0.3,1.5,0,2
		c0.6-0.8-2-0.5-1.2,1.6c1.5,0.6,0.8-1,1.6-1.2c0.8,0.7,1.9,1,2,2.4c-1.6-0.2-1.9-2.3-2.8,0c-1.7-0.4-1.3-2.9-3.9-2.4
		c0-1.3-1-2.1,0.8-2.4c-0.3,0.4-0.4,0.9-0.4,1.6c0.5-0.5,1.4-0.4,2.4-0.4C211.5,187.6,211.8,186.2,213.4,186.1z"/>
	<path fill-rule="evenodd" clip-rule="evenodd" d="M169.7,189.6c-0.4,1.6-1.4,2.5-3.5,2.4c0.2-1-0.2-1.4-1.2-1.2
		c-0.3-0.9-0.3-2.5,0.4-3.5c1.3,0.8,0.9,3.3,2.8,3.5C168.9,190.6,168.1,189,169.7,189.6z"/>
	<path fill-rule="evenodd" clip-rule="evenodd" d="M174.4,187.3c1.7,0.7,2.9,1.9,3.5,3.5c-2-1.1-1.5-1.1-3.5,0
		C175.5,188.8,175.5,189.3,174.4,187.3z"/>
	<path fill-rule="evenodd" clip-rule="evenodd" d="M147.6,192c0.3,0,0.5,0,0.8,0c0,0.4,0,0.8,0,1.2c-1-0.2-1.4,0.2-1.2,1.2
		c-0.3,0-0.5,0-0.8,0c-0.2-0.3-0.4-0.6-0.4-1.2C147.1,194.3,146.9,192.4,147.6,192z"/>
	<path fill-rule="evenodd" clip-rule="evenodd" d="M179.1,194.3c-1.6-0.3-2.5,0.2-2.8,1.2c-1.4,0.4-0.5-1.6-0.8-2.4
		c1,0.3,3.4-0.8,1.6-0.8c-0.1-0.9,1.4-0.2,2-0.4c-0.2,1,0.2,1.4,1.2,1.2c-0.8,2.4,1.3,1.9,1.2,3.5
		C180.2,196.5,179.4,195.7,179.1,194.3z"/>
	<path fill-rule="evenodd" clip-rule="evenodd" d="M202,194.3c-0.5-0.1-0.4-0.8,0-0.8c-0.4-0.4-0.8-0.8-1.2-1.2
		c-0.1-0.9,1.4-0.2,2-0.4c0.5,1-0.9,1.9,0,2C202.6,194.6,202.1,193.6,202,194.3z"/>
	<path fill-rule="evenodd" clip-rule="evenodd" d="M184.3,194.3c-0.7-0.3-0.1-0.7,0-1.2c0.3,0,0.5,0,0.8,0c-0.6,1.7,1.3,1.1,2.4,1.2
		c-0.2,0.7,0.5,2.3-0.4,2.4C185.7,196.6,185,193.8,184.3,194.3z"/>
	<path fill-rule="evenodd" clip-rule="evenodd" d="M191,193.2c1.3,0.3,2.1,1.1,2.4,2.4C192,195.3,191.2,194.5,191,193.2z"/>
	<path fill-rule="evenodd" clip-rule="evenodd" d="M225.2,193.6c-0.1,1.2-1.9,0.7-1.2,2.8c-2.1,0.4-1.1-0.2-3.5,0.4
		c0.7-1.8-1.8-0.5-1.2-2.4c1.5-0.6,0.8,1,1.6,1.2C222,194.7,224.3,193.4,225.2,193.6z"/>
	<path fill-rule="evenodd" clip-rule="evenodd" d="M205.1,197.1c1.1,0.4,1.8-1.5,0-2c-0.4-1.4,1.6-0.5,2.4-0.8
		c0.1,1.4-0.1,2.6-0.4,3.5c-0.6,0.1-0.7-0.4-1.2-0.4c-0.1,1.2,0.9,1.2,0.8,2.4C205.5,199.1,205.6,197.8,205.1,197.1z"/>
	<path fill-rule="evenodd" clip-rule="evenodd" d="M189.8,198.7c1.4-2.6,2.4,1.4,4.7,0.4c0.2,1.9,0.2,1.7,0,3.5c-0.8,0-1.6,0-2.4,0
		C192.7,200,191.8,198.8,189.8,198.7z"/>
	<path fill-rule="evenodd" clip-rule="evenodd" d="M211,197.9c1.3,0.3,2.1,1,2.4,2.4C212.1,200,211.3,199.2,211,197.9z"/>
	<path fill-rule="evenodd" clip-rule="evenodd" d="M178.3,200.7c0.5-1.1,1,1,0.8,2c-1.2,0-2.4,0-3.5,0c0.7-1.4,2.1-1.8,1.2-3.2
		c0.8-1.3,1.5,0.8,1.2,2C178.4,201.3,178.9,200.7,178.3,200.7z"/>
	<path fill-rule="evenodd" clip-rule="evenodd" d="M185,199.1c0.3,0,0.5,0,0.8,0c0.2,0.3,0.4,0.6,0.4,1.2c-1.8-0.7-0.5,1.9-2.4,1.2
		c0-0.4,0-0.8,0-1.2C184.9,200.5,185.3,200.1,185,199.1z"/>
	<path fill-rule="evenodd" clip-rule="evenodd" d="M166.5,200.3c0-0.1,0.4-0.4,0.4,0.8C166.9,201.4,166,201.9,166.5,200.3z"/>
	<path fill-rule="evenodd" clip-rule="evenodd" d="M201.6,205c-1.7,0.7-3,1.7-4.7,2.4c0,1.1,0,2.1,0,3.2c-0.5,0.5-1.4,0.4-2.4,0.4
		c-0.3-1.3-1.1-2.1-2.4-2.4c0.7,1.5-2.5,0.7-2.8,2.4c-0.5-0.1-1.7-3.2-1.6-2.8c-0.2-0.5-0.8-1.5,0-2c1.6,0.1,0.1,3.3,2.8,2.4
		c0.5-0.1,0.3-0.7,0.4-1.2c0.8,0,1.6,0,2.4,0c0.1,1.4,1.2,1.7,2,2.4c0.9-0.4,0.1-1.7,0.4-2.4c0.1-0.1,1.1,0.1,1.2,0
		c0.6-0.6-0.6-3.2,1.2-2.8c0.2-0.8-0.6-0.8-1.2-0.8c0.9-2.6-1.5-2-1.6-3.5c1.3,0,2.6,0,3.9,0c0,0.8,0,1.6,0,2.4
		c1.5,0.6,0.8-1,1.6-1.2c2.1-0.3-0.7,4.4,2,3.5c0.2,0.9-0.5,2.9,0.4,3.2c-1.6-0.1-0.6,0-2.8,0.4C200.2,206.8,202.3,207.3,201.6,205z
		"/>
	<path fill-rule="evenodd" clip-rule="evenodd" d="M148.4,201.4c-0.3,1.3-1,2.1-2.4,2.4C146.3,202.5,147.1,201.7,148.4,201.4z"/>
	<path fill-rule="evenodd" clip-rule="evenodd" d="M211.8,201.4c0.1,1.2,1.8,0.8,1.6,2.4c0.5,0.5-3.4-2.2-3.2-1.6
		C209.8,201.2,210.9,202.5,211.8,201.4z"/>
	<path fill-rule="evenodd" clip-rule="evenodd" d="M165,205.8c0-0.3,0-0.5,0-0.8c0.4,0,0.8,0,1.2,0c-0.7,1.8,1.6,0.5,1.2,2
		c-0.3,0.1-0.4-0.2-0.4-0.4c-0.4,0.1-0.2,0.4,0,0.4C166.2,208.1,165.9,205.6,165,205.8z"/>
	<path fill-rule="evenodd" clip-rule="evenodd" d="M215.4,207.7c0.9,0.1-0.5,1.1-0.4,1.6c0.3,0.1,0.4-0.2,0.4-0.4
		c0.4,1.6-0.7-0.5-2-0.4c0.2-0.3,0.5-0.7,0-0.8C213.9,206.2,214.9,209.3,215.4,207.7z"/>
	<path fill-rule="evenodd" clip-rule="evenodd" d="M224.8,206.6c0.4-0.4,0.9-0.3,1.6,0c-0.1,0.3-0.4,0.4-0.4,0.8c-0.3,0-0.5,0-0.8,0
		C225.3,206.9,225.1,206.6,224.8,206.6z"/>
	<path fill-rule="evenodd" clip-rule="evenodd" d="M153.1,208.5c1.2,0.9,1.5,2.7,3.5,2.8c-0.1,1.1-1.4,0.9-1.6,2
		c-1.5-1.7-1.3-0.7-3.2,0C152.5,211.8,153.7,211.1,153.1,208.5z"/>
	<path fill-rule="evenodd" clip-rule="evenodd" d="M160.6,209.7c2.4,0.2-0.7,4.7,0.8,3.9c-0.3,1.2-1.3-0.2-2,0
		c0.4,0.5,0.3,0.8-0.4,0.8C160,213.3,160.1,211.3,160.6,209.7z"/>
	<path fill-rule="evenodd" clip-rule="evenodd" d="M167.7,210.5c-1.9-1.9,2.2,0.2,0.4,0.4C167.6,211,167.9,210.7,167.7,210.5z"/>
	<path fill-rule="evenodd" clip-rule="evenodd" d="M181.5,216.8c0-0.4,0-0.8,0-1.2c1.9,0.1,2.9,0.3,3.5,2.4
		C183.1,217.8,183.8,215.7,181.5,216.8z"/>
	<path fill-rule="evenodd" clip-rule="evenodd" d="M174,217.2c-0.4-0.7,0.6,0.5,0.4,2c-0.4,0-0.8,0-1.2,0
		C172.9,217.9,173.6,217.7,174,217.2z"/>
	<path fill-rule="evenodd" clip-rule="evenodd" d="M206.7,216.8c0.4,0,0.3,0.5,0.4,0.8c0.6-0.2,0.3-1.2,1.6-0.8c0.5,1-1.2,1.6,0,2
		C208.2,219.1,206.3,217.8,206.7,216.8z"/>
	<path fill-rule="evenodd" clip-rule="evenodd" d="M187.4,219.2C185.5,218.2,186.9,216.7,187.4,219.2L187.4,219.2z"/>
	<path fill-rule="evenodd" clip-rule="evenodd" d="M149.6,218.8c0.8-2,0.8,0.9,2.4,0.4c0,1.2,0,2.4,0,3.5c-0.4,0-0.8,0-1.2,0
		c0-1,0-2.1,0-3.2C148.4,220.1,151.5,219.1,149.6,218.8z"/>
	<path fill-rule="evenodd" clip-rule="evenodd" d="M213.4,220.3c0,0.4,0,0.8,0,1.2c-1.7,0.4-2.1-1.4-2.4,0c-0.3-0.2-0.6-0.4-1.2-0.4
		C211.1,220.1,211.8,220.8,213.4,220.3z"/>
	<path fill-rule="evenodd" clip-rule="evenodd" d="M185.4,223.1c0.2-0.6,0.5,0.2,1.2,0c-1,1-0.1,2.1,0.8,2.4
		c-0.6,1.5-2.4,1.8-2.8,3.5c-0.5-0.3-1.1-0.5-2-0.4c0.7-1.8-1.8-0.5-1.2-2.4c0.5,0,1,0,1.6,0c-0.5,0.5-0.2,0.6,0,1.2
		c0.7,0,1.3,0,2,0c-0.5-1.2,0.3-2,0-3.9c0.4,0.2,0.7,0.5,0.8,0C185.9,223.2,185.7,223.1,185.4,223.1z"/>
	<path fill-rule="evenodd" clip-rule="evenodd" d="M159,226.7c-0.2-1.4,1.2-1.2,2.4-1.2c-0.7,2.1,1.2,1.7,1.2,3.2
		C161.4,228,160.1,227.5,159,226.7z"/>
	<path fill-rule="evenodd" clip-rule="evenodd" d="M198,228.2c0,0.9,1.7,0.2,2.4,0.4c-0.2,1,0.2,1.4,1.2,1.2c0,0.8,0,1.6,0,2.4
		c-1.7-0.5-0.8,1.5-2.4,1.2c-0.4-2.1,1.3,0.1,1.2-2c0.1-0.9-1.4-0.2-2-0.4c1-1-0.8-0.8-0.4-2.4c-0.8,0-1.6,0-2.4,0
		c0.3-1.5,0-1.4,0.4-2.4c1.7,0.2,2-0.5,3.2,0c0.1,0.9-0.1,1.5-0.4,2C198.6,228.1,198.4,226.5,198,228.2z"/>
	<path fill-rule="evenodd" clip-rule="evenodd" d="M170.9,231c0.2-1.1-0.5-3.1,0.4-3.5c1.9,0.3-0.1,2.4,0.8,3.2
		c0.2,0.4,2.2,0.9,2,0.4c0.2,0.5-1.7,1.6-3.2,2.4c-0.7-1.8,1.6-0.5,1.2-2C172,230.9,171.3,231,170.9,231z"/>
	<path fill-rule="evenodd" clip-rule="evenodd" d="M211.4,231.4c0.9,0.7,1.2,2.6,0.8,3.5c0,0-0.8,0-0.8,0c0.1,0.9,0.9,2.4,1.6,3.9
		c0.1-0.9,0.5-0.4,1.2-0.8c0.9,1.8-2.7,0.1-2.4,2.4c-1.1-0.7-1.4-2.3-2-3.5c0.5,0,1.1,0,1.6,0c-0.4-0.5-0.3-0.8,0.4-0.8
		C210.7,235.4,210.9,232.7,211.4,231.4z"/>
	<path fill-rule="evenodd" clip-rule="evenodd" d="M201.6,235.7c0-0.8,0-1.6,0-2.4c0.8,0,1.6,0,2.4,0c0,0.8,0,1.6,0,2.4
		c0,0.7,3.1-0.8,3.5,0.4c0,1.5-3,0.2-2.8,2c-1.5-1.7-1.3-0.7-3.2,0C201.2,236.8,204.5,236,201.6,235.7z"/>
	<path fill-rule="evenodd" clip-rule="evenodd" d="M176.8,235.7c-0.4,0-0.8,0-1.2,0c0-0.4,0-0.8,0-1.2c1.9-0.7,0.5,1.8,2.4,1.2
		c0.1,0.6-0.4,0.7-0.4,1.2c-0.3,0-0.5,0-0.8,0C176.8,236.5,176.8,236.1,176.8,235.7z"/>
	<path fill-rule="evenodd" clip-rule="evenodd" d="M146.4,236.9c0.3,0.1,0.4,0.4,0.8,0.4c0,0.3,0,0.5,0,0.8
		c-0.3,0.1-0.4-0.2-0.4-0.4c-0.3-0.1-0.4,0.2-0.4,0.4C145.8,237.9,146.6,237.6,146.4,236.9z"/>
	<path fill-rule="evenodd" clip-rule="evenodd" d="M211,246.4c-1.7-0.6-0.9,2.2-2.4,0.8c0.4-1.1,1.8-1.1,1.2-3.2c0.5,0,1.1,0,1.6,0
		c-1.6,1.8,0.7,2.5,2,2.8c0.4,1.4-1.6,0.5-2.4,0.8C211,247.1,211,246.7,211,246.4z"/>
	<path fill-rule="evenodd" clip-rule="evenodd" d="M148.8,245.6c-0.1,0.3,0.2,0.4,0.4,0.4c-0.4,0.4-0.7,0.1-2,0.4c0-0.4,0-0.8,0-1.2
		c1.3-0.2,1.2,0.7,2,0C149.8,245.4,149.2,245.6,148.8,245.6z"/>
	<path fill-rule="evenodd" clip-rule="evenodd" d="M151.9,245.2c-0.3,1.3-1,2.1-2.4,2.4C149.8,246.2,150.6,245.4,151.9,245.2z"/>
	<path fill-rule="evenodd" clip-rule="evenodd" d="M146,250.7c-0.6-1.4,1.3-0.2,1.2-1.2c0.1-1.3-1.9-0.4-1.2-2.4
		c0.5,0.5,1.4,0.4,2.4,0.4c-1.2,2.1,0.8,4.4,0.8,5.9C148.2,252.4,147.1,251.6,146,250.7z"/>
	<path fill-rule="evenodd" clip-rule="evenodd" d="M157.9,251.1c1.8-0.7,0.5,1.9,2.4,1.2c-0.2,0.7,0.5,2.3-0.4,2.4
		C158.8,253.8,158.6,252.2,157.9,251.1z"/>
	<path fill-rule="evenodd" clip-rule="evenodd" d="M195.7,252.3c0.4,0,0.8,0,1.2,0c0.1,0.8-0.1,1.2-0.8,1.2
		C197,254.9,195.1,253.7,195.7,252.3z"/>
	<path fill-rule="evenodd" clip-rule="evenodd" d="M191.7,255c-0.8-0.7,0.9,0.2,1.6-0.4c0,0.4,0,0.8,0,1.2c-0.4,0-0.8,0-1.2,0
		C192.2,255.3,192,255.1,191.7,255z"/>
	<path fill-rule="evenodd" clip-rule="evenodd" d="M165.3,257.4c0.3-0.8,1.3,0.4,1.6-0.4c0.7,0.6,1.8,2.9,2.4,2.4
		c0.4,0.1,0.2,0.4,0,0.4c0,0.3,0,0.5,0,0.8c-0.5-1-2.1-0.8-2-2.4c-1.3-0.3-1.2,0.6-1.6,1.2c-0.7,0-1.3,0-2,0c0-0.4,0-0.8,0-1.2
		C164.5,258.4,166.3,257.6,165.3,257.4z"/>
	<path fill-rule="evenodd" clip-rule="evenodd" d="M196.9,259.7c0.1-0.9-0.1-1.5-0.8-1.6c-1.9-0.6-1,1.6-2.8,1.2
		c-0.7-1.8,1.8-0.5,1.2-2.4c0.8,0,1.6,0,2.4,0c0.3,1.3,1,2.1,2.4,2.4c-0.3,1.4,1,2-0.4,2.4c-1-0.9-2.6-2.4-3.5-0.4
		c-0.3,1.1,1.9-0.3,1.6,0.8c0.3,1.4-3.2,0.9-3.5,0.4C194.3,261.3,195,260,196.9,259.7z"/>
	<path fill-rule="evenodd" clip-rule="evenodd" d="M148.4,262.1c0.3,1.4-3.2,0.9-3.5,0.4c-0.4-1.2,0.9-0.7,1.6-0.8
		C145.3,259.5,147.3,262,148.4,262.1z"/>
	<path fill-rule="evenodd" clip-rule="evenodd" d="M171.6,266.4c-0.6-0.1-1.3-2-0.4-2.4c1.2,0.8,1,2.2,3.2,1.2c0,0.4,0,0.8,0,1.2
		C173.4,267.4,172,264.8,171.6,266.4z"/>
	<path fill-rule="evenodd" clip-rule="evenodd" d="M161.4,265.3c-0.3,1.3-1.1,2.1-2.4,2.4C159.3,266.3,160.1,265.5,161.4,265.3z"/>
	<path fill-rule="evenodd" clip-rule="evenodd" d="M187.4,267.6c0.2-1-0.2-1.4-1.2-1.2c-0.2-1.4,1.2-1.2,2.4-1.2
		c-0.1,2.2,1.9,2.3,3.5,2.8c-0.4,0.7-1.6,0.5-1.2,2c-0.7-0.2-2.3,0.5-2.4-0.4c-0.6-1.5,1.8-0.1,1.2-1.6
		C189.1,266.9,188.7,267.6,187.4,267.6z"/>
	<path fill-rule="evenodd" clip-rule="evenodd" d="M170.9,267.6c0,0.4-0.5,0.3-0.8,0.4c0.4,0.5,1.1,0.7,0.8,2
		c-1.1,0-2.6,0.2-3.2-0.4C169.2,268.5,169.7,268.5,170.9,267.6z"/>
	<path fill-rule="evenodd" clip-rule="evenodd" d="M186.2,273.5c0,0.4,0,0.8,0,1.2c-2.2-0.5-1.2,3,0,2.8c0.4,1.4-1.9,0.2-1.2,2
		c-1-0.8-1.6,0.6-2.4-0.4c0-2.1,2.4,0.6,2.4-1.2c-0.7-0.8-1-1.9-2.4-2c0.7-2.5-1.4-2.3-1.6-3.9c-0.5,0.3-1.1,0.5-2,0.4
		c0.2-1-0.2-1.4-1.2-1.2c0.2-0.7-0.5-2.3,0.4-2.4c1.4-0.4,0.2,1.9,2,1.2c0,0.5,0,1.1,0,1.6c0.9-0.5,0.7,0.1,2-0.4
		c-0.1,1.4,2,0.6,1.6,2.4C185.2,273.9,185.5,272.8,186.2,273.5z"/>
	<path fill-rule="evenodd" clip-rule="evenodd" d="M188.6,277.1c0.5-1.4,1.8-2.2,1.2-4.7c1.7-0.3,1.1,1.8,1.2,3.2
		c0.2,0.8,1.8,0,1.2,1.6C190.1,276,190.6,276,188.6,277.1z"/>
	<path fill-rule="evenodd" clip-rule="evenodd" d="M145.3,273.9c0.5-1.2,1.2,0.4,0.4,0.8c0.5,0.1,0.7-0.1,0.8-0.4
		c1.1,0.2-0.6,0.6-0.4,1.2c0.7-0.3,1-1.1,2.4-0.8c0,0.4,0,0.8,0,1.2c-1.2,0-2.4,0-3.5,0C144.2,274.7,146.3,274.3,145.3,273.9z"/>
	<path fill-rule="evenodd" clip-rule="evenodd" d="M194.5,277.1c0.3-1.6-0.2-2.5-1.2-2.8c-0.4-1.5,2.1-0.7,2.4-0.4
		c-0.8,3.8,2.3,3.7,2.4,5.5C196.2,279.4,196.3,277.3,194.5,277.1z"/>
	<path fill-rule="evenodd" clip-rule="evenodd" d="M149.6,274.7c1.3,0.3,2.1,1.1,2.4,2.4C150.6,276.8,149.8,276,149.6,274.7z"/>
	<path fill-rule="evenodd" clip-rule="evenodd" d="M205.5,274.7c1.4-0.4,0.5,1.6,0.8,2.4c-1.8-0.7-0.5,1.9-2.4,1.2
		C204.3,276.9,205.4,276.2,205.5,274.7z"/>
	<path fill-rule="evenodd" clip-rule="evenodd" d="M148.4,277.1c0-0.6,1.9,0.2,2.4,0.4c-0.5,1.6-0.8-0.1-2,0c0,0.4,0.5,0.3,0.8,0.4
		C148.6,279.1,148.7,277.1,148.4,277.1z"/>
	<path fill-rule="evenodd" clip-rule="evenodd" d="M195.3,281.8c-0.4,0-0.3-0.5-0.4-0.8c0.3,0.1,0.4-0.2,0.4-0.4
		c1.1,2,0.9,0.1,2.8,0c0.8,1.5-1.8,1.5-0.8,2c-0.1,0.5-1,0.3-1.6,0.4c0-0.4,0-0.8,0-1.2C195.6,281.4,195.3,281.6,195.3,281.8z"/>
	<path fill-rule="evenodd" clip-rule="evenodd" d="M148.4,287.7c1.3,0.3,2.1,1,2.4,2.4C149.5,289.8,148.7,289,148.4,287.7z"/>
	<path fill-rule="evenodd" clip-rule="evenodd" d="M187.4,91.5c1.8-0.1,2.5,1,3.5,1.6c-0.7,1.1-1.9,1.7,0,2.4
		c-0.4,1.1-1.8,1.1-1.2,3.2c-2.5-0.3-0.4-3.9-1.2-5.1C188.6,92.5,186.9,93.1,187.4,91.5z"/>
	<path fill-rule="evenodd" clip-rule="evenodd" d="M189.8,110.4c0.3,2.5-0.8,3.6-3.2,3.5c-0.5-0.5-0.4-1.4-0.4-2.4
		C187.9,111.7,187.4,109.6,189.8,110.4z"/>
	<path fill-rule="evenodd" clip-rule="evenodd" d="M189.8,119.9c0.4,0,0.8,0,1.2,0c0,0.4,0,0.8,0,1.2c-0.4,0-0.8,0-1.2,0
		C189.8,120.7,189.8,120.3,189.8,119.9z"/>
	<path fill-rule="evenodd" clip-rule="evenodd" d="M173.2,123.4c1-0.2,1.4,0.2,1.2,1.2c1.5,0.5,2.1-0.6,2.4,1.2
		c-0.9-0.8-1.9,0.4-3.5,0C173.2,125,173.2,124.2,173.2,123.4z"/>
	<path fill-rule="evenodd" clip-rule="evenodd" d="M195.7,177c-0.5,0.7-1.2,1.1-1.6,2c-1.6,0.2-0.4-2.5-0.8-3.5c0.4,0,0.8,0,1.2,0
		C194.4,176.4,195.1,176.7,195.7,177z"/>
	<path fill-rule="evenodd" clip-rule="evenodd" d="M157.5,193.2c0.5,0,1,0,1.6,0c0,0.4,0,0.8,0,1.2c0.2,0.9,0.6-0.5,1.2,0.4
		c0,1.7-3.2,0.1-3.2,0.8C155.7,194.8,157.7,194.1,157.5,193.2z"/>
	<path fill-rule="evenodd" clip-rule="evenodd" d="M144.9,231c0.7,0,1.3,0,2,0c0.4,0.4,0.1,1.5,1.2,1.2c-0.2,0.8-0.6,1.5-2,1.2
		C146.7,231.5,144.2,232.8,144.9,231z"/>
	<path fill-rule="evenodd" clip-rule="evenodd" d="M170.9,239.3c1-0.1,1.9-0.1,2.4,0.4C173.4,240.7,170.1,241.1,170.9,239.3z"/>
	<path fill-rule="evenodd" clip-rule="evenodd" d="M180.3,247.5c2.3,0.3,1.4,0.7,3.5,0c-0.6,1.7,1.3,1.1,2.4,1.2
		c-0.6,1.5,1,0.8,1.2,1.6c-0.9,1.1-3.1,0.9-2.8,3.2c-0.7,0-1.3,0-2,0c-0.1-1.9-2.2-1.7-2.4-3.5C182.8,251.4,180.8,248.7,180.3,247.5
		z M182.7,251.1c0.4,0,0.8,0,1.2,0c-0.1-0.6,0.1-1.5-0.4-1.6C183.3,250.1,182.2,249.8,182.7,251.1z"/>
</g>
<polyline fill="none" stroke="#000000" stroke-width="6" stroke-linejoin="round" points="182,70 182,33 148,98.6 148,319 
	163.8,287.7 "/>
<polyline fill="none" stroke="#000000" stroke-width="6" stroke-linejoin="round" points="148,319 44.3,261 9,119.7 34.3,85 182,33 
	"/>
<polyline fill="none" stroke="#000000" stroke-width="3" stroke-linejoin="round" points="145.7,319 9,119.7 148,98.6 34.3,85 "/>
</svg>
