<?xml version="1.0" encoding="utf-8"?>
<!-- Generator: Adobe Illustrator 19.1.0, SVG Export Plug-In . SVG Version: 6.00 Build 0)  -->
<!DOCTYPE svg PUBLIC "-//W3C//DTD SVG 1.1//EN" "http://www.w3.org/Graphics/SVG/1.1/DTD/svg11.dtd">
<svg version="1.1" id="Layer_1" xmlns="http://www.w3.org/2000/svg" xmlns:xlink="http://www.w3.org/1999/xlink" x="0px" y="0px"
	 viewBox="0 0 400 400" enable-background="new 0 0 400 400" xml:space="preserve">
<g>
	<defs>
		<filter id="Adobe_OpacityMaskFilter" filterUnits="userSpaceOnUse" x="19" y="287" width="362" height="120.7">
			<feColorMatrix  type="matrix" values="1 0 0 0 0  0 1 0 0 0  0 0 1 0 0  0 0 0 1 0"/>
		</filter>
	</defs>
	<mask maskUnits="userSpaceOnUse" x="19" y="287" width="362" height="120.7" id="SVGID_1_">
		<g filter="url(#Adobe_OpacityMaskFilter)">
			
				<radialGradient id="SVGID_2_" cx="200" cy="316.9319" r="181.0067" gradientTransform="matrix(1 0 0 0.3333 0 241.7001)" gradientUnits="userSpaceOnUse">
				<stop  offset="8.588960e-02" style="stop-color:#FFFFFF"/>
				<stop  offset="0.1153" style="stop-color:#E5E5E5"/>
				<stop  offset="0.175" style="stop-color:#B5B5B5"/>
				<stop  offset="0.2399" style="stop-color:#8A8A8A"/>
				<stop  offset="0.3085" style="stop-color:#656565"/>
				<stop  offset="0.3817" style="stop-color:#454545"/>
				<stop  offset="0.4611" style="stop-color:#2C2C2C"/>
				<stop  offset="0.5489" style="stop-color:#181818"/>
				<stop  offset="0.6497" style="stop-color:#0A0A0A"/>
				<stop  offset="0.775" style="stop-color:#020202"/>
				<stop  offset="1" style="stop-color:#000000"/>
			</radialGradient>
			<ellipse fill="url(#SVGID_2_)" cx="200" cy="347.3" rx="181" ry="60.3"/>
		</g>
	</mask>
	<ellipse opacity="0.4" mask="url(#SVGID_1_)" cx="200" cy="347.3" rx="181" ry="60.3"/>
	<linearGradient id="SVGID_3_" gradientUnits="userSpaceOnUse" x1="233.5267" y1="306.0955" x2="120.097" y2="92.7653">
		<stop  offset="0" style="stop-color:#000000"/>
		<stop  offset="0.1557" style="stop-color:#3D3D3D"/>
		<stop  offset="0.3239" style="stop-color:#777777"/>
		<stop  offset="0.4866" style="stop-color:#A8A8A8"/>
		<stop  offset="0.6395" style="stop-color:#CECECE"/>
		<stop  offset="0.7804" style="stop-color:#E9E9E9"/>
		<stop  offset="0.905" style="stop-color:#F9F9F9"/>
		<stop  offset="1" style="stop-color:#FFFFFF"/>
	</linearGradient>
	<polygon opacity="0.29" fill="url(#SVGID_3_)" points="61.7,123.8 200.7,103.3 200.2,323.8 	"/>
	<linearGradient id="SVGID_4_" gradientUnits="userSpaceOnUse" x1="170.1067" y1="336.8315" x2="57.9143" y2="125.8284">
		<stop  offset="0" style="stop-color:#000000"/>
		<stop  offset="0.1557" style="stop-color:#3D3D3D"/>
		<stop  offset="0.3239" style="stop-color:#777777"/>
		<stop  offset="0.4866" style="stop-color:#A8A8A8"/>
		<stop  offset="0.6395" style="stop-color:#CECECE"/>
		<stop  offset="0.7804" style="stop-color:#E9E9E9"/>
		<stop  offset="0.905" style="stop-color:#F9F9F9"/>
		<stop  offset="1" style="stop-color:#FFFFFF"/>
	</linearGradient>
	<polygon opacity="0.65" fill="url(#SVGID_4_)" points="96.7,266 198,322 61.7,123.8 	"/>
	<g id="pkwANN_2_">
		<g>
			<path d="M280.8,184.3c-1.5-1.8-2.8-3.5-3.7-4.9c-1.5-2.4-3.4-4.8-5.2-7c-3.7-4.6-7.1-8.9-7.3-13.1c-0.1-3.3,0.7-5.2,1.9-7.5
				c1.1-2.3,2.3-4.9,2.5-8.8c0.3-7.8-2.7-16-5.3-23.3c-0.8-2.1-1.5-4.2-2.1-6c-0.6-1.8-1.1-3.5-1.6-5.3c-2.3-7.5-4.7-15.3-8-21.3
				c-6.7-12.1-16.8-22-29.7-29.4c-0.8,2.1-1.7,4.1-2.7,6c11.6,6.8,20.6,15.7,26.6,26.6c3,5.4,5.2,12.5,7.5,20.1
				c0.5,1.8,1.1,3.6,1.7,5.4c0.6,2,1.4,4.1,2.2,6.3c2.4,6.7,5.1,14.2,4.9,20.8c-0.1,2.6-0.9,4.3-1.9,6.3c-1.3,2.7-2.7,5.7-2.5,10.6
				c0.3,6.3,4.6,11.7,8.7,16.8c1.8,2.2,3.4,4.3,4.8,6.4c1.1,1.8,2.6,3.6,4.2,5.5c3.7,4.5,7.8,9.6,7.6,14.2c-0.2,4.5-3,5.7-8.6,7.8
				c-2.4,0.9-4.9,1.8-7.2,3.3l-2,1.2l0.6,2.3c2.7,10.8,2.1,15-2.2,16.3l-5.3,1.7l4.1,3.8c2.6,2.4,2.2,3.2-0.3,6.9
				c-1.5,2.2-3.4,5-3.7,8.5c-0.3,3.5,0.2,6.8,0.7,9.6c0.9,5.3,1.5,9.2-2.2,13.9c-4.6,5.8-13.2,6.7-25.8,7.4l-0.6,0
				c-10.8,0.6-25.6,1.4-29.7,11.4c-2,4.9-1.8,9.7-1.7,14.3c0.1,2.8,0.2,5.4-0.2,8c2.1,0.5,4.2,1.2,6.3,1.9c0.7-3.5,0.6-6.8,0.4-10.1
				c-0.1-4.1-0.3-8,1.2-11.6c2.5-6.1,16-6.9,24-7.3l0.6,0c11.7-0.7,23.7-1.3,30.5-9.9c5.5-7,4.5-13.4,3.5-19c-0.5-2.7-0.9-5.3-0.7-8
				c0.2-1.8,1.3-3.5,2.6-5.4c1.9-2.8,4.7-7,2.1-11.9c5.8-4.6,4.5-13.3,3.1-19.6c1.3-0.6,2.7-1.1,4.1-1.7c5.5-2.1,12.3-4.6,12.8-13.6
				C290.2,195.8,285,189.4,280.8,184.3z"/>
		</g>
	</g>
	<g>
		<path fill-rule="evenodd" clip-rule="evenodd" d="M224.5,66.9c0.1-0.5,1-0.3,1.2,0C226.1,67.7,224.3,67.8,224.5,66.9z"/>
		<path fill-rule="evenodd" clip-rule="evenodd" d="M221,71.2c0.4,0,0.8,0,1.2,0c0,0.4,0,0.8,0,1.2c-0.4,0-0.8,0-1.2,0
			C221,72,221,71.6,221,71.2z"/>
		<path fill-rule="evenodd" clip-rule="evenodd" d="M225.7,72.4c0.4,0,0.8,0,1.2,0c0,0.4,0,0.8,0,1.2c-0.4,0-0.8,0-1.2,0
			C225.7,73.2,225.7,72.8,225.7,72.4z"/>
		<path fill-rule="evenodd" clip-rule="evenodd" d="M215.5,73.6c0.8,0.7,0.7-0.2,2,0c0,0.4,0,0.8,0,1.2
			C216.3,74.2,215.6,75.3,215.5,73.6z"/>
		<path fill-rule="evenodd" clip-rule="evenodd" d="M222.2,79.5c-2.3-0.1-5,0.3-6.7-0.4c0.5-1.1,2.4-0.7,3.9-0.8
			C220,76.3,223.1,76.2,222.2,79.5z"/>
		<path fill-rule="evenodd" clip-rule="evenodd" d="M212.7,78.3c0.4,0,0.8,0,1.2,0c0,0.4,0,0.8,0,1.2c-0.4,0-0.8,0-1.2,0
			C212.7,79.1,212.7,78.7,212.7,78.3z"/>
		<path fill-rule="evenodd" clip-rule="evenodd" d="M228.5,78.3c0.3,0,0.5,0,0.8,0c0.1,0.6-0.4,0.7-0.4,1.2c-0.3,0-0.5,0-0.8,0
			C228,78.9,228.4,78.8,228.5,78.3z"/>
		<path fill-rule="evenodd" clip-rule="evenodd" d="M221,82.6c0.1-0.5,0.7-0.3,1.2-0.4c-0.3,1.2-0.3,0.8,0,2c-0.4,0-0.8,0-1.2,0
			C220.4,83.3,222,82.7,221,82.6z"/>
		<path fill-rule="evenodd" clip-rule="evenodd" d="M245.8,84.2c0.4,0,0.8,0,1.2,0c0,0.4,0,0.8,0,1.2c-0.4,0-0.8,0-1.2,0
			C245.8,85,245.8,84.6,245.8,84.2z"/>
		<path fill-rule="evenodd" clip-rule="evenodd" d="M229.3,85.8c0.2-1,1.8-0.3,1.2,0.8C230,86.3,230,85.7,229.3,85.8z"/>
		<path fill-rule="evenodd" clip-rule="evenodd" d="M222.6,86.6c0.7-0.1,0.7,0.3,0.8,0.8c-0.3-0.1-0.4,0.2-0.4,0.4
			C222.5,87.7,222.6,87,222.6,86.6z"/>
		<path fill-rule="evenodd" clip-rule="evenodd" d="M226.9,86.6c0.4,0,0.8,0,1.2,0c0,0.4,0,0.8,0,1.2c-0.4,0-0.8,0-1.2,0
			C226.9,87.4,226.9,87,226.9,86.6z"/>
		<path fill-rule="evenodd" clip-rule="evenodd" d="M226.9,88.2C225.7,89.6,225.6,87,226.9,88.2L226.9,88.2z"/>
		<path fill-rule="evenodd" clip-rule="evenodd" d="M235.2,87.8c1.2,0,2.6-0.2,2.4,1.2c-0.7-0.1-0.8,0.4-0.4,0.4
			c-0.4,0.7-1.4,1-2,0.4C237.2,88.7,235.1,89.7,235.2,87.8z"/>
		<path fill-rule="evenodd" clip-rule="evenodd" d="M219.8,89.3c0.6,1.3-2.4,1-2.4,0.4C216.9,88.5,219.8,88.7,219.8,89.3z"/>
		<path fill-rule="evenodd" clip-rule="evenodd" d="M243.4,88.9c0.9-0.1,1.3,0.3,1.2,1.2c-0.4,0-0.8,0-1.2,0
			C243.4,89.7,243.4,89.3,243.4,88.9z"/>
		<path fill-rule="evenodd" clip-rule="evenodd" d="M205.6,90.1c0.4,0,0.8,0,1.2,0c0,0.4,0,0.8,0,1.2c-0.4,0-0.8,0-1.2,0
			C205.6,90.9,205.6,90.5,205.6,90.1z"/>
		<path fill-rule="evenodd" clip-rule="evenodd" d="M209.2,92.1c-0.4-1.3,1.2-0.6,2-0.8c0,1.8,1.1,2.5,2.8,2.8
			c0.2,1.6-2.5,0.4-3.5,0.8c0-0.4,0-0.8,0-1.2C211.5,92.5,210.7,93.1,209.2,92.1z"/>
		<path fill-rule="evenodd" clip-rule="evenodd" d="M235.2,91.3c0.4,0,0.8,0,1.2,0c0,0.4,0,0.8,0,1.2c-0.4,0-0.8,0-1.2,0
			C235.2,92.1,235.2,91.7,235.2,91.3z"/>
		<path fill-rule="evenodd" clip-rule="evenodd" d="M215.5,92.1c1.2-0.4,0.7,0.9,0.8,1.6c-0.4,0-0.8,0-1.2,0
			C214.9,92.8,215.3,92.6,215.5,92.1z"/>
		<path fill-rule="evenodd" clip-rule="evenodd" d="M223.3,92.5c0.4,0,0.8,0,1.2,0c0,0.4,0,0.8,0,1.2c-0.4,0-0.8,0-1.2,0
			C223.3,93.3,223.3,92.9,223.3,92.5z"/>
		<path fill-rule="evenodd" clip-rule="evenodd" d="M242.6,92.5c0.3,0,0.5,0,0.8,0c0,0.4,0,0.8,0,1.2c-0.4,0-0.8,0-1.2,0
			C242.1,93,242.6,93,242.6,92.5z"/>
		<path fill-rule="evenodd" clip-rule="evenodd" d="M229.6,93.7c1.2,0,0.8,1.7,0.4,2.4C228.6,96.4,229.3,94,229.6,93.7z"/>
		<path fill-rule="evenodd" clip-rule="evenodd" d="M237.5,96.8c0.1-0.1,0.8-0.7,1.2-0.4C239,96.7,237.2,97.5,237.5,96.8z"/>
		<path fill-rule="evenodd" clip-rule="evenodd" d="M209.6,97.2c1.4-0.4,0.5,1.6,0.8,2.4C208.9,99.9,208.9,97.8,209.6,97.2z"/>
		<path fill-rule="evenodd" clip-rule="evenodd" d="M217.4,99.6c0.4,0,0.8,0,1.2,0c0,0.4,0,0.8,0,1.2c-0.4,0-0.8,0-1.2,0
			C217.4,100.4,217.4,100,217.4,99.6z"/>
		<path fill-rule="evenodd" clip-rule="evenodd" d="M240.3,100.4c1.3-0.5,1,2.7,0.4,2.8C239.2,103.4,239.9,100.7,240.3,100.4z"/>
		<path fill-rule="evenodd" clip-rule="evenodd" d="M212.7,101.9c-0.6,1.5,1,0.8,1.2,1.6c-0.7,0.8-1.4,1.8-1.6,3.2
			c-1.9,0.1,0.6-4.2-2-3.5C210.1,101.7,211.5,101.9,212.7,101.9z"/>
		<path fill-rule="evenodd" clip-rule="evenodd" d="M217.4,101.9c0.6-0.1,0.7,0.4,1.2,0.4C218.8,103.1,216.8,102.9,217.4,101.9z"/>
		<path fill-rule="evenodd" clip-rule="evenodd" d="M232.8,101.9c0.4,0,0.8,0,1.2,0c0,0.4,0,0.8,0,1.2c-0.4,0-0.8,0-1.2,0
			C232.8,102.7,232.8,102.3,232.8,101.9z"/>
		<path fill-rule="evenodd" clip-rule="evenodd" d="M216.3,103.1c0.4,0,0.8,0,1.2,0c0,0.4,0,0.8,0,1.2c-0.4,0-0.8,0-1.2,0
			C216.3,103.9,216.3,103.5,216.3,103.1z"/>
		<path fill-rule="evenodd" clip-rule="evenodd" d="M219.8,103.1c0.4,0,0.8,0,1.2,0c0,0.4,0,0.8,0,1.2c-0.4,0-0.8,0-1.2,0
			C219.8,103.9,219.8,103.5,219.8,103.1z"/>
		<path fill-rule="evenodd" clip-rule="evenodd" d="M250.5,105.5c0.9-0.1,1.3,0.3,1.2,1.2c-0.4,0-0.8,0-1.2,0
			C250.5,106.3,250.5,105.9,250.5,105.5z"/>
		<path fill-rule="evenodd" clip-rule="evenodd" d="M205.6,106.7c0.4,0,0.8,0,1.2,0c0,0.4,0,0.8,0,1.2c-0.4,0-0.8,0-1.2,0
			C205.6,107.5,205.6,107.1,205.6,106.7z"/>
		<path fill-rule="evenodd" clip-rule="evenodd" d="M223.3,107.1C222.4,108.4,221.5,106,223.3,107.1L223.3,107.1z"/>
		<path fill-rule="evenodd" clip-rule="evenodd" d="M241.1,106.7c0.4,0,0.8,0,1.2,0c0,0.4,0,0.8,0,1.2c-0.4,0-0.8,0-1.2,0
			C241.1,107.5,241.1,107.1,241.1,106.7z"/>
		<path fill-rule="evenodd" clip-rule="evenodd" d="M236.3,107.9c0.4,0,0.8,0,1.2,0c0,0.4,0,0.8,0,1.2c-0.4,0-0.8,0-1.2,0
			C236.3,108.6,236.3,108.2,236.3,107.9z"/>
		<path fill-rule="evenodd" clip-rule="evenodd" d="M199.7,109c0.4,0,0.8,0,1.2,0c0,0.4,0,0.8,0,1.2c-0.4,0-0.8,0-1.2,0
			C199.7,109.8,199.7,109.4,199.7,109z"/>
		<path fill-rule="evenodd" clip-rule="evenodd" d="M206.8,109c0.4,0,0.8,0,1.2,0c-0.7,1.9,1.9,0.5,1.2,2.4
			C207.8,111.2,207,110.4,206.8,109z"/>
		<path fill-rule="evenodd" clip-rule="evenodd" d="M212.7,109c0.4,0,0.8,0,1.2,0c0,0.8,0,1.6,0,2.4
			C212.5,111.6,212.7,110.2,212.7,109z"/>
		<path fill-rule="evenodd" clip-rule="evenodd" d="M204.4,110.6c0.6,1.3-2.4,1-2.4,0.4C201.5,109.7,204.4,110,204.4,110.6z"/>
		<path fill-rule="evenodd" clip-rule="evenodd" d="M215.1,110.2c0.4,0,0.8,0,1.2,0c0,0.4,0,0.8,0,1.2c-0.4,0-0.8,0-1.2,0
			C215.1,111,215.1,110.6,215.1,110.2z"/>
		<path fill-rule="evenodd" clip-rule="evenodd" d="M242.3,110.2c0.4,0,0.8,0,1.2,0c-0.2,0.7,0.5,2.3-0.4,2.4
			C241.6,113,242.5,111,242.3,110.2z"/>
		<path fill-rule="evenodd" clip-rule="evenodd" d="M218.6,111.4c0.4,0,0.8,0,1.2,0c0,0.4,0,0.8,0,1.2c-0.4-0.2-0.7-0.5-0.8,0
			C218.6,112.5,218.7,111.9,218.6,111.4z"/>
		<path fill-rule="evenodd" clip-rule="evenodd" d="M245.8,111.4c0.4,0,0.8,0,1.2,0c0,0.4,0,0.8,0,1.2c-0.4,0-0.8,0-1.2,0
			C245.8,112.2,245.8,111.8,245.8,111.4z"/>
		<path fill-rule="evenodd" clip-rule="evenodd" d="M251.7,111.4c0.4,0,0.8,0,1.2,0c0,0.8,0,1.6,0,2.4c-0.7-0.2-2.3,0.5-2.4-0.4
			C250.1,111.9,252.4,113.2,251.7,111.4z"/>
		<path fill-rule="evenodd" clip-rule="evenodd" d="M200.9,112.6c0.4,0,0.8,0,1.2,0c0,0.4,0,0.8,0,1.2c-0.5,0-1,0-1.6,0
			C200.7,113.4,200.9,113.1,200.9,112.6z"/>
		<path fill-rule="evenodd" clip-rule="evenodd" d="M221.4,112.6c0.8,1,2.3,1.3,3.9,1.6c-0.2,1.1-2.5,0.1-2,2c-0.8,0-1.6,0-2.4,0
			C221.9,115.3,220.3,114,221.4,112.6z"/>
		<path fill-rule="evenodd" clip-rule="evenodd" d="M225.7,112.6c0.4,0,0.8,0,1.2,0c0,0.4,0,0.8,0,1.2c-0.4,0-0.8,0-1.2,0
			C225.7,113.4,225.7,113,225.7,112.6z"/>
		<path fill-rule="evenodd" clip-rule="evenodd" d="M236.3,114.6c-0.1-0.6,2.1-0.6,1.2,0.4C237.7,114.8,236.3,114.5,236.3,114.6z"/>
		<path fill-rule="evenodd" clip-rule="evenodd" d="M202.1,114.9c0.4,0,0.8,0,1.2,0c0,0.4,0,0.8,0,1.2c-0.4,0-0.8,0-1.2,0
			C202.1,115.7,202.1,115.3,202.1,114.9z"/>
		<path fill-rule="evenodd" clip-rule="evenodd" d="M218.6,114.9c0.4,0,0.8,0,1.2,0c0,0.4,0,0.8,0,1.2c-0.4,0-0.8,0-1.2,0
			C218.6,115.7,218.6,115.3,218.6,114.9z"/>
		<path fill-rule="evenodd" clip-rule="evenodd" d="M256.4,115.3c-0.1,0.9-1,0.9-1.6,0.4C255,114.8,255.9,114.8,256.4,115.3z"/>
		<path fill-rule="evenodd" clip-rule="evenodd" d="M216.3,116.1c0.4,0,0.8,0,1.2,0c0.1,0.6-0.4,0.7-0.4,1.2c-0.3,0-0.5,0-0.8,0
			C216.3,116.9,216.3,116.5,216.3,116.1z"/>
		<path fill-rule="evenodd" clip-rule="evenodd" d="M231.6,116.1c0.4,0,0.8,0,1.2,0c0,0.4,0,0.8,0,1.2c-0.4,0-0.8,0-1.2,0
			C231.6,116.9,231.6,116.5,231.6,116.1z"/>
		<path fill-rule="evenodd" clip-rule="evenodd" d="M254.1,116.5c-0.2,0.5-0.5,0.8-1.2,0.8C252.7,116.5,253.5,116.6,254.1,116.5z"/>
		<path fill-rule="evenodd" clip-rule="evenodd" d="M229.6,117.3c0.3,0,0.5,0,0.8,0c0,0.4,0,0.8,0,1.2c-0.4,0-0.8,0-1.2,0
			C229.1,117.9,229.6,117.8,229.6,117.3z"/>
		<path fill-rule="evenodd" clip-rule="evenodd" d="M254.1,117.3c0.4,0,0.8,0,1.2,0c0,0.4,0,0.8,0,1.2c-0.4,0-0.8,0-1.2,0
			C254.1,118.1,254.1,117.7,254.1,117.3z"/>
		<path fill-rule="evenodd" clip-rule="evenodd" d="M258.8,117.3c0.4,0,0.8,0,1.2,0c-0.1,1.1,0.6,2.9-1.2,2.4c0-0.4,0.5-0.3,0.8-0.4
			C259.1,118.8,258.5,118.6,258.8,117.3z"/>
		<path fill-rule="evenodd" clip-rule="evenodd" d="M235.2,122c0-0.5,0-1,0-1.6c1.2-0.5,3.2-0.5,2.4-2c0.8,0.9,1.1-0.2,2.4,0
			C238.9,120.2,238.4,122.5,235.2,122z"/>
		<path fill-rule="evenodd" clip-rule="evenodd" d="M221,119.7c0.4,0,0.8,0,1.2,0c0,0.4,0,0.8,0,1.2c-0.4,0-0.8,0-1.2,0
			C221,120.5,221,120.1,221,119.7z"/>
		<path fill-rule="evenodd" clip-rule="evenodd" d="M225.7,119.7c1.5-0.3,1.4,1.8,0.8,2.4C225.5,122,225.7,120.7,225.7,119.7z"/>
		<path fill-rule="evenodd" clip-rule="evenodd" d="M244.2,120.1c0.1,1.6-2.7,0.4-3.9,0.8C240.7,119.3,243.9,119.6,244.2,120.1z"/>
		<path fill-rule="evenodd" clip-rule="evenodd" d="M249.3,121.2c0.1,0.4,0.4,0.2,0.4,0c0.6,0.3-0.4,2.2-1.6,2c0-0.8,0-1.6,0-2.4
			c0.5,0,1,0,1.6,0C249.8,121.2,249.6,121.2,249.3,121.2z"/>
		<path fill-rule="evenodd" clip-rule="evenodd" d="M252.9,121.2c0.6,1.3-2.4,1-2.4,0.4C250,120.4,252.9,120.6,252.9,121.2z"/>
		<path fill-rule="evenodd" clip-rule="evenodd" d="M203.3,122c1.5,0,1.1,0.4,2.4,0c-0.2,0.3-0.4,0.6-0.4,1.2
			C204.2,123.2,202.8,123.6,203.3,122z"/>
		<path fill-rule="evenodd" clip-rule="evenodd" d="M241.1,123.2c0.4,0,0.8,0,1.2,0c0.1,0.6-0.4,0.7-0.4,1.2c-0.3,0-0.5,0-0.8,0
			C241.1,124,241.1,123.6,241.1,123.2z"/>
		<path fill-rule="evenodd" clip-rule="evenodd" d="M256.4,123.2c0.4,0,0.8,0,1.2,0c-0.2,1.1,0.5,3.1-0.4,3.5
			C255.6,126.9,256.8,124.3,256.4,123.2z"/>
		<path fill-rule="evenodd" clip-rule="evenodd" d="M214.3,124.4c0.3,0,0.5,0,0.8,0c0,0.4,0,0.8,0,1.2c-0.4,0-0.8,0-1.2,0
			C213.8,124.9,214.3,124.9,214.3,124.4z"/>
		<path fill-rule="evenodd" clip-rule="evenodd" d="M199.7,125.6c0.4,0,0.8,0,1.2,0c0.5,1.2-0.6,1-0.8,1.6
			C199.6,127,199.8,126.2,199.7,125.6z"/>
		<path fill-rule="evenodd" clip-rule="evenodd" d="M206.8,126.8c0.4,0,0.8,0,1.2,0c0,0.4,0,0.8,0,1.2c-0.4,0-0.8,0-1.2,0
			C206.8,127.6,206.8,127.2,206.8,126.8z"/>
		<path fill-rule="evenodd" clip-rule="evenodd" d="M234,126.8c0.4,0,0.8,0,1.2,0c0,0.4,0,0.8,0,1.2c-0.4,0-0.8,0-1.2,0
			C234,127.6,234,127.2,234,126.8z"/>
		<path fill-rule="evenodd" clip-rule="evenodd" d="M247,126.8c0.7,0.7,1-0.3,2.4,0c0.4,1.7-1.7,0.9-1.6,2.4
			C246.8,129.1,247,127.8,247,126.8z"/>
		<path fill-rule="evenodd" clip-rule="evenodd" d="M209.2,127.9c0.4,0,0.8,0,1.2,0c0,0.4,0,0.8,0,1.2c-0.4,0-0.8,0-1.2,0
			C209.2,128.7,209.2,128.3,209.2,127.9z"/>
		<path fill-rule="evenodd" clip-rule="evenodd" d="M211.5,128.3c0.1-0.2,0.8-0.7,1.2-0.4C213.5,128.6,211,129.8,211.5,128.3z"/>
		<path fill-rule="evenodd" clip-rule="evenodd" d="M225.7,128.3c0.6,1.3-2.4,1-2.4,0.4C222.8,127.5,225.7,127.7,225.7,128.3z"/>
		<path fill-rule="evenodd" clip-rule="evenodd" d="M238.7,129.1c0.4,0,0.8,0,1.2,0c0,0.4,0,0.8,0,1.2c-0.4,0-0.8,0-1.2,0
			C238.7,129.9,238.7,129.5,238.7,129.1z"/>
		<path fill-rule="evenodd" clip-rule="evenodd" d="M210.3,130.3c0.4,0,0.8,0,1.2,0c-0.2,0.7,0.5,2.3-0.4,2.4
			C209.7,133,210.6,131.1,210.3,130.3z"/>
		<path fill-rule="evenodd" clip-rule="evenodd" d="M230.4,132.7c-0.6,1.5,1,0.8,1.2,1.6c0.4,1.4-1.9,0.2-1.2,2
			c-1.2,0-2.4,0-2.4-1.2c1,0,1.9,0.1,2.4-0.4c-0.2-0.9-1.7-0.6-1.2-2.4c0.5,0.5,1.5-1.5,4.3-0.8c0.5-0.1,0.3-0.7,0.4-1.2
			c0.8,0,1.6,0,2.4,0c0.7,3.2-1.9,3.1-2.8,4.7C232.1,134.7,232.3,132.7,230.4,132.7z"/>
		<path fill-rule="evenodd" clip-rule="evenodd" d="M202.1,131.9c0.6,1.3-2.4,1-2.4,0.4C199.1,131,202.1,131.3,202.1,131.9z"/>
		<path fill-rule="evenodd" clip-rule="evenodd" d="M241.1,131.5c-0.1,0.7,0.7,1,0,1.2c0,0.4,0.5,0.3,0.8,0.4
			c-0.5,0.6-1.4,0.7-2.4,0.8c0.6-1.3,0.6,0.1,0.4-2.4C240.3,131.5,240.7,131.5,241.1,131.5z"/>
		<path fill-rule="evenodd" clip-rule="evenodd" d="M255.3,131.5c0.4,0,0.8,0,1.2,0c0,0.4,0,0.8,0,1.2c-0.4,0-0.8,0-1.2,0
			C255.3,132.3,255.3,131.9,255.3,131.5z"/>
		<path fill-rule="evenodd" clip-rule="evenodd" d="M208,132.7c0.4,0,0.8,0,1.2,0c-0.1,1.4,0.1,2.6,0.4,3.5c-0.9,0-1.8,0-2.8,0
			c0.7-1.8-1.6-0.5-1.2-2C206.7,134,208.3,134.3,208,132.7z"/>
		<path fill-rule="evenodd" clip-rule="evenodd" d="M226.9,132.7c0.3,0.2,0.7,0.5,0.8,0c0.3-0.1,0.4,0.2,0.4,0.4c0,0.3,0,0.5,0,0.8
			C227.7,133.4,226.6,133.7,226.9,132.7z"/>
		<path fill-rule="evenodd" clip-rule="evenodd" d="M236,134.3c0.1-0.6,2.7-0.6,2.8,0c0.6,1.7-2,0.1-2,1.2
			C236.2,135.3,236.6,134.3,236,134.3z"/>
		<path fill-rule="evenodd" clip-rule="evenodd" d="M254.1,133.9c0.4,0,0.8,0,1.2,0c0,0.4,0,0.8,0,1.2c-0.4,0-0.8,0-1.2,0
			C254.1,134.6,254.1,134.3,254.1,133.9z"/>
		<path fill-rule="evenodd" clip-rule="evenodd" d="M211.5,135.8c0.3,0.2,0.6,0.4,1.2,0.4c0,0.3,0,0.5,0,0.8
			c-0.3,0.2-0.6,0.4-1.2,0.4C211.5,136.9,211.5,136.4,211.5,135.8z"/>
		<path fill-rule="evenodd" clip-rule="evenodd" d="M226.9,136.2c0.4,0,0.8,0,1.2,0c0,0.4,0,0.8,0,1.2c-0.4,0-0.8,0-1.2,0
			C226.9,137,226.9,136.6,226.9,136.2z"/>
		<path fill-rule="evenodd" clip-rule="evenodd" d="M236.3,136.2c-0.2,0.7,0.5,2.3-0.4,2.4c-0.9-0.5-1.5-1.1-2-2
			C234.4,136.2,235.4,136.2,236.3,136.2z"/>
		<path fill-rule="evenodd" clip-rule="evenodd" d="M255.3,136.2c0.9-0.1,1.3,0.3,1.2,1.2C255.6,137.5,255.2,137.1,255.3,136.2z"/>
		<path fill-rule="evenodd" clip-rule="evenodd" d="M212.7,137.4c0.4,0,0.8,0,1.2,0c0,0.4,0,0.8,0,1.2c-0.4,0-0.8,0-1.2,0
			C212.7,138.2,212.7,137.8,212.7,137.4z"/>
		<path fill-rule="evenodd" clip-rule="evenodd" d="M244.6,137.4c0.4,0,0.8,0,1.2,0c0,0.4,0,0.8,0,1.2c-0.4,0-0.8,0-1.2,0
			C244.6,138.2,244.6,137.8,244.6,137.4z"/>
		<path fill-rule="evenodd" clip-rule="evenodd" d="M260,138.6c0.4,0,0.8,0,1.2,0c0,0.4,0,0.8,0,1.2c-0.4,0-0.8,0-1.2,0
			C260,139.4,260,139,260,138.6z"/>
		<path fill-rule="evenodd" clip-rule="evenodd" d="M199.7,139.8C200.1,141.6,197.9,140.5,199.7,139.8L199.7,139.8z"/>
		<path fill-rule="evenodd" clip-rule="evenodd" d="M209.2,139.8c0.4,0,0.8,0,1.2,0c0,0.8,0,1.6,0,2.4c-1.4-0.9-1.3,0.8-2.4,0
			c-0.2-1,0.2-1.4,1.2-1.2C209.2,140.6,209.2,140.2,209.2,139.8z"/>
		<path fill-rule="evenodd" clip-rule="evenodd" d="M259.2,139.8c0.5,0.2,0.8,0.5,0.8,1.2C258.6,141.3,258.6,140.3,259.2,139.8z"/>
		<path fill-rule="evenodd" clip-rule="evenodd" d="M248.2,140.9c0.4,0,0.8,0,1.2,0c0,0.4,0,0.8,0,1.2c-0.4,0-0.8,0-1.2,0
			C248.2,141.7,248.2,141.3,248.2,140.9z"/>
		<path fill-rule="evenodd" clip-rule="evenodd" d="M228.1,142.1c0.4,0,0.8,0,1.2,0c0,0.8,0,1.6,0,2.4c-0.7-0.2-2.3,0.5-2.4-0.4
			C226.5,142.7,228.8,143.9,228.1,142.1z"/>
		<path fill-rule="evenodd" clip-rule="evenodd" d="M236.3,142.1c0.4,0,0.8,0,1.2,0c-0.3,1.6,0.2,2.5,1.2,2.8
			c-1.2,2.3-3.1-1-4.7-0.8C233.6,142.2,237.3,144.5,236.3,142.1z"/>
		<path fill-rule="evenodd" clip-rule="evenodd" d="M208.4,142.9c1.3-0.5,1,2.7,0.4,2.8C207.5,146.2,207.8,143,208.4,142.9z"/>
		<path fill-rule="evenodd" clip-rule="evenodd" d="M260,143.3c1.2,0.3,2,0,2.4,0.4c-0.6,0.8-1.3,1.6-1.6,2.8
			c-0.3,1.1,1.9-0.3,1.6,0.8c0.4,1.4-1.6,0.5-2.4,0.8C260.5,145.3,260.2,146.3,260,143.3z"/>
		<path fill-rule="evenodd" clip-rule="evenodd" d="M198.5,144.5c1.2,0,2.6-0.2,2.4,1.2C200.5,144.8,198.1,146.8,198.5,144.5z"/>
		<path fill-rule="evenodd" clip-rule="evenodd" d="M203.3,144.5c0.7,0.2,2.3-0.5,2.4,0.4c-0.1,1.1-1.4,0.9-1.6,2
			C202.6,147.2,203.5,145.3,203.3,144.5z"/>
		<path fill-rule="evenodd" clip-rule="evenodd" d="M201.3,145.7c0.3,0,0.5,0,0.8,0c0,0.4,0,0.8,0,1.2c-0.4,0-0.8,0-1.2,0
			C200.8,146.2,201.3,146.2,201.3,145.7z"/>
		<path fill-rule="evenodd" clip-rule="evenodd" d="M229.6,145.7c0.7-0.1,0.7,0.3,0.8,0.8c-0.3-0.1-0.4,0.2-0.4,0.4
			C229.6,146.8,229.7,146.1,229.6,145.7z"/>
		<path fill-rule="evenodd" clip-rule="evenodd" d="M234.4,145.7c0.8-0.2,0.8,0.6,0.8,1.2c-0.4,0-0.8,0-1.2,0
			C234.2,146.5,234.4,146.2,234.4,145.7z"/>
		<path fill-rule="evenodd" clip-rule="evenodd" d="M198.5,146.9c0.4,0,0.8,0,1.2,0c0,0.4,0,0.8,0,1.2c-0.4,0-0.8,0-1.2,0
			C198.5,147.6,198.5,147.3,198.5,146.9z"/>
		<path fill-rule="evenodd" clip-rule="evenodd" d="M248.6,147.3c-0.5,1-1.7,1.2-2.4,2c-1.6,0.3,0.4-1.7-1.6-1.6
			C244.6,146.5,248,146.6,248.6,147.3z"/>
		<path fill-rule="evenodd" clip-rule="evenodd" d="M200.9,148c0.8,0,1.6,0,2.4,0c-0.2,1,0.2,1.4,1.2,1.2c-0.2,0.7,0.5,2.3-0.4,2.4
			C202.9,150.5,201.4,149.8,200.9,148z"/>
		<path fill-rule="evenodd" clip-rule="evenodd" d="M218.6,148c0.4,0,0.8,0,1.2,0c0,0.4,0,0.8,0,1.2c-0.4,0-0.8,0-1.2,0
			C218.6,148.8,218.6,148.4,218.6,148z"/>
		<path fill-rule="evenodd" clip-rule="evenodd" d="M249,148.4c-0.3-0.6,1.9-0.6,1.6,0c-0.9,0.7-1.2,2-1.6,3.2
			c-1.4,0.4-0.5-1.6-0.8-2.4C248.8,149.5,249.9,148.4,249,148.4z"/>
		<path fill-rule="evenodd" clip-rule="evenodd" d="M239.9,148.8C241.1,147.4,241.2,150,239.9,148.8L239.9,148.8z"/>
		<path fill-rule="evenodd" clip-rule="evenodd" d="M215.1,150.4c-0.7-0.2-2.3,0.5-2.4-0.4C212.5,148.5,215.4,149.3,215.1,150.4z"/>
		<path fill-rule="evenodd" clip-rule="evenodd" d="M236.7,149.6c-0.1-0.9,1.4-0.2,2-0.4c-0.9,2.5,0.4,2.4-0.4,4.7
			c-1.6,0.1,0-3.1-2-2.8C235.8,150.2,237.9,150,236.7,149.6z"/>
		<path fill-rule="evenodd" clip-rule="evenodd" d="M256.4,149.2c0.4,0,0.8,0,1.2,0c0,0.4,0,0.8,0,1.2c-0.4,0-0.8,0-1.2,0
			C256.4,150,256.4,149.6,256.4,149.2z"/>
		<path fill-rule="evenodd" clip-rule="evenodd" d="M260,150c0.6,0.3,1.5,0.3,1.2,1.6c-0.8,0.2-1-0.3-1.6-0.4
			C259.8,150.9,260,150.6,260,150z"/>
		<path fill-rule="evenodd" clip-rule="evenodd" d="M209.2,151.6c0.4,0,0.8,0,1.2,0c0,0.4,0,0.8,0,1.2
			C209.5,152.8,209.1,152.4,209.2,151.6z"/>
		<path fill-rule="evenodd" clip-rule="evenodd" d="M217.4,151.6c0.4,0,0.8,0,1.2,0c0,0.4,0,0.8,0,1.2c-0.5,0-1.1,0-1.6,0
			C217.2,152.5,217.5,152.1,217.4,151.6z"/>
		<path fill-rule="evenodd" clip-rule="evenodd" d="M231.6,152c0.6,1.3-2.4,1-2.4,0.4C228.7,151.1,231.6,151.4,231.6,152z"/>
		<path fill-rule="evenodd" clip-rule="evenodd" d="M246.2,151.6c1.2-0.4,0.7,0.9,0.8,1.6c0.4-0.2,0.7-0.5,0.8,0c0.3,1.5-1.4,0-2,0
			C245.8,152.5,245.6,151.7,246.2,151.6z"/>
		<path fill-rule="evenodd" clip-rule="evenodd" d="M251.7,152c0.3-0.7,0.7-0.1,1.2,0c-0.1,0.3-0.4,0.4-0.4,0.8c-0.3,0-0.5,0-0.8,0
			C252,152.4,252.2,152.1,251.7,152z"/>
		<path fill-rule="evenodd" clip-rule="evenodd" d="M209.2,153.9c0.8,0,1.6,0,2.4,0c0,0.8,0,1.6,0,2.4
			C210.1,156.1,209.3,155.3,209.2,153.9z"/>
		<path fill-rule="evenodd" clip-rule="evenodd" d="M221,153.9c0.4,0,0.8,0,1.2,0c0,0.5,0,1.1,0,1.6
			C221.6,155.2,220.6,155.2,221,153.9z"/>
		<path fill-rule="evenodd" clip-rule="evenodd" d="M235.2,153.9c0.4,0,0.8,0,1.2,0c0,0.4,0,0.8,0,1.2c-0.4,0-0.8,0-1.2,0
			C235.2,154.7,235.2,154.3,235.2,153.9z"/>
		<path fill-rule="evenodd" clip-rule="evenodd" d="M261.2,154.7c0,0.5,0,1.1,0,1.6c-2.1,0-2.3,1.9-5.1,1.2
			c-0.4-2.1,3.3-0.1,2.8-2.4C260,155.4,260.2,154.7,261.2,154.7z"/>
		<path fill-rule="evenodd" clip-rule="evenodd" d="M229.3,155.1c0.9-0.2,0.6,0.8,1.2,0.8C230.3,156.9,228.9,155.9,229.3,155.1z"/>
		<path fill-rule="evenodd" clip-rule="evenodd" d="M262.3,155.1c0.9-0.5,1.5,1,1.6,0c1.2,0.6-0.5,1.6-1.6,1.2
			C262.3,155.9,262.3,155.5,262.3,155.1z"/>
		<path fill-rule="evenodd" clip-rule="evenodd" d="M237.5,156.3c1.5,0.7,3.1,1.5,4.3,1.6c0.1,1.6-2.7,0.4-3.9,0.8
			C237.9,157.7,237.2,157.5,237.5,156.3z"/>
		<path fill-rule="evenodd" clip-rule="evenodd" d="M252.9,156.3c1.4-0.2,1.2,1.2,1.2,2.4c-0.7-0.2-2.3,0.5-2.4-0.4
			C251.3,156.8,253.6,158.1,252.9,156.3z"/>
		<path fill-rule="evenodd" clip-rule="evenodd" d="M200.9,157.5c0.4,0,0.8,0,1.2,0c0,0.4,0,0.8,0,1.2c-0.4,0-0.8,0-1.2,0
			C200.9,158.3,200.9,157.9,200.9,157.5z"/>
		<path fill-rule="evenodd" clip-rule="evenodd" d="M206.8,157.5c0.4,0,0.8,0,1.2,0c0,0.4,0,0.8,0,1.2c-0.4,0-0.8,0-1.2,0
			C206.8,158.3,206.8,157.9,206.8,157.5z"/>
		<path fill-rule="evenodd" clip-rule="evenodd" d="M248.2,157.9C247.2,159.2,246.3,156.8,248.2,157.9L248.2,157.9z"/>
		<path fill-rule="evenodd" clip-rule="evenodd" d="M260,162.2c-0.8,0-1.6,0-2.4,0c0-2-2.4-1.5-2.4-3.5
			C257.1,158.2,260.5,159.1,260,162.2z"/>
		<path fill-rule="evenodd" clip-rule="evenodd" d="M257.6,160.3C258.6,162.3,258.6,158.9,257.6,160.3L257.6,160.3z"/>
		<path fill-rule="evenodd" clip-rule="evenodd" d="M236.3,159.1c0.8-0.1,1.2,0.1,1.2,0.8c-0.4,0-0.8,0-1.2,0
			C236.3,159.6,236.3,159.3,236.3,159.1z"/>
		<path fill-rule="evenodd" clip-rule="evenodd" d="M200.5,160.6c0.6,0.1,0.6,2.7,0,2.8C198.9,163.6,199.7,160.6,200.5,160.6z"/>
		<path fill-rule="evenodd" clip-rule="evenodd" d="M205.6,161.4c0.3-0.7,0.7-0.1,1.2,0c-0.1,0.3-0.4,0.4-0.4,0.8
			c-0.3,0-0.5,0-0.8,0C205.9,161.9,206.1,161.5,205.6,161.4z"/>
		<path fill-rule="evenodd" clip-rule="evenodd" d="M211.5,161.4c0.6,1.3-2.4,1-2.4,0.4C208.6,160.6,211.5,160.8,211.5,161.4z"/>
		<path fill-rule="evenodd" clip-rule="evenodd" d="M237.5,161c0,0.4,0,0.8,0,1.2c-1.2,0.3-1.2-0.7-2.4-0.4
			C235.6,161.3,236.5,161.1,237.5,161z"/>
		<path fill-rule="evenodd" clip-rule="evenodd" d="M251.7,161c0.4,0,0.8,0,1.2,0c0,0.4,0,0.8,0,1.2
			C252,162.3,251.6,161.9,251.7,161z"/>
		<path fill-rule="evenodd" clip-rule="evenodd" d="M224.5,163.8c0.4,1.4-1.6,0.6-2.4,0.8C222,163.6,224,162.8,224.5,163.8z"/>
		<path fill-rule="evenodd" clip-rule="evenodd" d="M254.1,164.6c0.6,0.2,2-0.5,2,0.4C256.5,166.3,253.2,166.1,254.1,164.6z"/>
		<path fill-rule="evenodd" clip-rule="evenodd" d="M235.2,165.8c0.4,0,0.8,0,1.2,0c-0.2,0.7,0.5,2.3-0.4,2.4
			C234.5,168.5,235.4,166.6,235.2,165.8z"/>
		<path fill-rule="evenodd" clip-rule="evenodd" d="M252.5,165.8c0.9,0,0.2,1.7,0.4,2.4c-0.6,0.1-0.7-0.4-1.2-0.4c0-0.3,0-0.5,0-0.8
			c1,0,0.7-0.5,0-0.4C251.8,166.1,252.5,166.3,252.5,165.8z"/>
		<path fill-rule="evenodd" clip-rule="evenodd" d="M243.4,167c0.4,0,0.8,0,1.2,0c0,0.4,0,0.8,0,1.2c-0.4,0-0.8,0-1.2,0
			C243.4,167.7,243.4,167.3,243.4,167z"/>
		<path fill-rule="evenodd" clip-rule="evenodd" d="M208,168.1c0.4,0,0.8,0,1.2,0c0,0.4,0,0.8,0,1.2c-0.4,0-0.8,0-1.2,0
			C208,168.9,208,168.5,208,168.1z"/>
		<path fill-rule="evenodd" clip-rule="evenodd" d="M250.5,168.1c0.4,0,0.8,0,1.2,0c0,0.4,0,0.8,0,1.2c-0.4,0-0.8,0-1.2,0
			C250.5,168.9,250.5,168.5,250.5,168.1z"/>
		<path fill-rule="evenodd" clip-rule="evenodd" d="M215.1,169.3c0.5,1.3-2,1.6-2.4,0.8C212.3,168.7,214.3,169.6,215.1,169.3z"/>
		<path fill-rule="evenodd" clip-rule="evenodd" d="M218.6,169.3c0.7,0.2,2.3-0.5,2.4,0.4C221.3,171.2,218,170.7,218.6,169.3z"/>
		<path fill-rule="evenodd" clip-rule="evenodd" d="M235.2,169.3c0.4,0,0.8,0,1.2,0c-0.2,0.7,0.5,2.3-0.4,2.4
			C234.5,172.1,235.4,170.1,235.2,169.3z"/>
		<path fill-rule="evenodd" clip-rule="evenodd" d="M205.6,172.1c0.2,1-1.7,1-2.4,0.4C202.7,171.2,205.6,171.5,205.6,172.1z"/>
		<path fill-rule="evenodd" clip-rule="evenodd" d="M206.8,171.7c0.4,0,0.8,0,1.2,0c0,0.4,0,0.8,0,1.2c-0.4,0-0.8,0-1.2,0
			C206.8,172.5,206.8,172.1,206.8,171.7z"/>
		<path fill-rule="evenodd" clip-rule="evenodd" d="M210.3,171.7c0.9-0.1,1.3,0.3,1.2,1.2c-0.4,0-0.8,0-1.2,0
			C210.3,172.5,210.3,172.1,210.3,171.7z"/>
		<path fill-rule="evenodd" clip-rule="evenodd" d="M252.9,171.7c0.4,0,0.8,0,1.2,0c0,0.4,0,0.8,0,1.2c-0.4,0-0.8,0-1.2,0
			C252.9,172.5,252.9,172.1,252.9,171.7z"/>
		<path fill-rule="evenodd" clip-rule="evenodd" d="M258.8,171.7c1.1,0.2,3.1-0.5,3.5,0.4C261.8,173.4,258.5,173.1,258.8,171.7z"/>
		<path fill-rule="evenodd" clip-rule="evenodd" d="M247,172.9c0.9-0.1,1.3,0.3,1.2,1.2C247.3,174.1,246.9,173.7,247,172.9z"/>
		<path fill-rule="evenodd" clip-rule="evenodd" d="M219.8,174c0.4,0,0.8,0,1.2,0c0,0.4,0,0.8,0,1.2c-0.4,0-0.8,0-1.2,0
			C219.8,174.8,219.8,174.4,219.8,174z"/>
		<path fill-rule="evenodd" clip-rule="evenodd" d="M223.3,174c0.4,0,0.8,0,1.2,0c0,0.4,0,0.8,0,1.2c-0.4,0-0.8,0-1.2,0
			C223.3,174.8,223.3,174.4,223.3,174z"/>
		<path fill-rule="evenodd" clip-rule="evenodd" d="M232.8,174c0.4,0,0.8,0,1.2,0c0,0.4,0,0.8,0,1.2c-0.4,0-0.8,0-1.2,0
			C232.8,174.8,232.8,174.4,232.8,174z"/>
		<path fill-rule="evenodd" clip-rule="evenodd" d="M260,174c1-0.2,1.4,0.2,1.2,1.2C260.8,174.8,259.7,175.1,260,174z"/>
		<path fill-rule="evenodd" clip-rule="evenodd" d="M212.7,176.4c-0.7-0.2-2.3,0.5-2.4-0.4C210.5,174.6,213.1,174.5,212.7,176.4z"/>
		<path fill-rule="evenodd" clip-rule="evenodd" d="M203.3,175.6c0.4,1.9-3.3-0.4-2.4,2c-0.7-0.2-2.3,0.5-2.4-0.4
			C198.9,175.7,201.5,174.4,203.3,175.6z"/>
		<path fill-rule="evenodd" clip-rule="evenodd" d="M242.3,175.2c0.4,0,0.8,0,1.2,0c-0.2,0.7,0.5,2.3-0.4,2.4
			C241.6,178,242.5,176,242.3,175.2z"/>
		<path fill-rule="evenodd" clip-rule="evenodd" d="M267.1,175.6c0.6,1.2-2.9,1.2-2.4,0C265,175.3,266.9,174.7,267.1,175.6z"/>
		<path fill-rule="evenodd" clip-rule="evenodd" d="M218.6,176.4c0.7,0.2,2.3-0.5,2.4,0.4C221.3,178.3,218,177.8,218.6,176.4z"/>
		<path fill-rule="evenodd" clip-rule="evenodd" d="M215.1,178c-1.3,1.6-2.6,1.7-3.5,0C212,177.5,214.6,177.2,215.1,178z"/>
		<path fill-rule="evenodd" clip-rule="evenodd" d="M216.3,177.6c1.5,0.3,1.4,0,2.4,0.4c0,0.7,0,1.3,0,2c-0.8,0-1.6,0-2.4,0
			C216.3,179.2,216.3,178.4,216.3,177.6z"/>
		<path fill-rule="evenodd" clip-rule="evenodd" d="M224.5,177.6c0.4,0,0.8,0,1.2,0c0,0.4,0,0.8,0,1.2c-0.4,0-0.8,0-1.2,0
			C224.5,178.4,224.5,178,224.5,177.6z"/>
		<path fill-rule="evenodd" clip-rule="evenodd" d="M244.6,177.6c0.4,0,0.8,0,1.2,0c0,0.4,0,0.8,0,1.2c-0.4,0-0.8,0-1.2,0
			C244.6,178.4,244.6,178,244.6,177.6z"/>
		<path fill-rule="evenodd" clip-rule="evenodd" d="M204.4,178.8c0.4,0,0.8,0,1.2,0c0,0.4,0,0.8,0,1.2c-0.4,0-0.8,0-1.2,0
			C204.4,179.6,204.4,179.2,204.4,178.8z"/>
		<path fill-rule="evenodd" clip-rule="evenodd" d="M248.6,178.8c0.5,0.2,0.8,0.5,0.8,1.2C248.9,179.8,248.5,179.4,248.6,178.8z"/>
		<path fill-rule="evenodd" clip-rule="evenodd" d="M243.4,180.7c-0.2-0.8,1.8-0.6,1.2,0.4c-0.3,0-0.5,0-0.8,0
			C243.9,180.8,243.7,180.8,243.4,180.7z"/>
		<path fill-rule="evenodd" clip-rule="evenodd" d="M204.4,181.1c0.4,0,0.8,0,1.2,0c0,0.4,0,0.8,0,1.2c-0.4,0-0.8,0-1.2,0
			C204.4,181.9,204.4,181.5,204.4,181.1z"/>
		<path fill-rule="evenodd" clip-rule="evenodd" d="M222.2,182.3c0.2-0.2-1.5-1.3-0.8,0C220.7,181,222.1,180.3,222.2,182.3z"/>
		<path fill-rule="evenodd" clip-rule="evenodd" d="M224.5,181.1c0.7,0.2,2.3-0.5,2.4,0.4C227.2,183,223.9,182.5,224.5,181.1z"/>
		<path fill-rule="evenodd" clip-rule="evenodd" d="M234,181.1c1.8-0.5,1,1.6,1.6,2.4C233.7,184.1,233.9,182.5,234,181.1z"/>
		<path fill-rule="evenodd" clip-rule="evenodd" d="M246.2,182.3C248,182.6,245.9,184.7,246.2,182.3L246.2,182.3z"/>
		<path fill-rule="evenodd" clip-rule="evenodd" d="M248.6,183.5c0.3,0,0.5,0,0.8,0c0,0.4,0,0.8,0,1.2c-0.4,0-0.8,0-1.2,0
			C248.1,184,248.5,184,248.6,183.5z"/>
		<path fill-rule="evenodd" clip-rule="evenodd" d="M265.5,183.5C266.9,184.5,263.5,184.4,265.5,183.5L265.5,183.5z"/>
		<path fill-rule="evenodd" clip-rule="evenodd" d="M225.7,184.7c0.4,0,0.8,0,1.2,0c0,0.4,0,0.8,0,1.2c-0.4,0-0.8,0-1.2,0
			C225.7,185.5,225.7,185.1,225.7,184.7z"/>
		<path fill-rule="evenodd" clip-rule="evenodd" d="M254.1,184.7c0.4,0,0.8,0,1.2,0c-0.2,0.7,0.5,2.3-0.4,2.4
			C253.4,187.4,254.3,185.5,254.1,184.7z"/>
		<path fill-rule="evenodd" clip-rule="evenodd" d="M264.7,185.1c0.1-0.2,0.8-0.7,1.2-0.4C266.7,185.4,264.2,186.6,264.7,185.1z"/>
		<path fill-rule="evenodd" clip-rule="evenodd" d="M257.6,185.9c0.4,0,0.8,0,1.2,0c0,0.4,0,0.8,0,1.2c-0.4,0-0.8,0-1.2,0
			C257.6,186.6,257.6,186.3,257.6,185.9z"/>
		<path fill-rule="evenodd" clip-rule="evenodd" d="M270.2,185.9c1,0.2,0,1.5-0.8,1.2C269.2,186.2,270.2,186.5,270.2,185.9z"/>
		<path fill-rule="evenodd" clip-rule="evenodd" d="M221.4,187.4c0.8-1.4,0.9,1.1,0.8,2c-1.4-0.2-3.8,0.6-3.5-1.2
			c1.9,0.6,2.4-1.1,3.2-0.4C221.8,187.5,221.6,187.5,221.4,187.4z"/>
		<path fill-rule="evenodd" clip-rule="evenodd" d="M229.3,187c0.4,0,0.8,0,1.2,0c-0.2,0.7,0.5,2.3-0.4,2.4
			C228.6,189.8,229.5,187.9,229.3,187z"/>
		<path fill-rule="evenodd" clip-rule="evenodd" d="M239.1,187c0.5,0.2,0.8,0.5,0.8,1.2C238.5,188.6,238.5,187.6,239.1,187z"/>
		<path fill-rule="evenodd" clip-rule="evenodd" d="M264.7,187c0.5,0,1.1,0,1.6,0c-0.2,0.3-0.4,0.6-0.4,1.2c-0.4,0-0.8,0-1.2,0
			C264.7,187.8,264.7,187.4,264.7,187z"/>
		<path fill-rule="evenodd" clip-rule="evenodd" d="M270.6,187c1.1,0.2,3.1-0.5,3.5,0.4c-0.5,1.2-2.5,0.9-3.5,1.6
			C270.6,188.4,270.6,187.7,270.6,187z"/>
		<path fill-rule="evenodd" clip-rule="evenodd" d="M199.7,188.2c0.4,0.9,2.8-1.2,2.4,1.2C201.1,189.2,199.7,189.4,199.7,188.2z"/>
		<path fill-rule="evenodd" clip-rule="evenodd" d="M234.4,188.2c0.3,0,0.5,0,0.8,0c0,0.4,0,0.8,0,1.2c-0.4,0-0.8,0-1.2,0
			C233.9,188.8,234.4,188.7,234.4,188.2z"/>
		<path fill-rule="evenodd" clip-rule="evenodd" d="M206.8,189.4c0.4,0,0.8,0,1.2,0c0,0.4,0,0.8,0,1.2c-0.4,0-0.8,0-1.2,0
			C206.8,190.2,206.8,189.8,206.8,189.4z"/>
		<path fill-rule="evenodd" clip-rule="evenodd" d="M225.7,189.4c0.4,0,0.8,0,1.2,0c0,0.4,0,0.8,0,1.2c-0.4,0-0.8,0-1.2,0
			C225.7,190.2,225.7,189.8,225.7,189.4z"/>
		<path fill-rule="evenodd" clip-rule="evenodd" d="M276.9,189.4C278.6,189.6,276.5,191.7,276.9,189.4L276.9,189.4z"/>
		<path fill-rule="evenodd" clip-rule="evenodd" d="M213.9,190.6c1-0.1,1.9-0.1,2.4,0.4C216.2,192.2,213.5,192.1,213.9,190.6z"/>
		<path fill-rule="evenodd" clip-rule="evenodd" d="M232.8,190.6c1.3,0.1,1.3,1.3,2.4,1.6c0.4,1.4-1.6,0.5-2.4,0.8
			C232.8,192.2,232.8,191.4,232.8,190.6z"/>
		<path fill-rule="evenodd" clip-rule="evenodd" d="M235.2,191c0.1-0.2,0.8-0.7,1.2-0.4C237.1,191.3,234.6,192.5,235.2,191z"/>
		<path fill-rule="evenodd" clip-rule="evenodd" d="M248.2,190.6c0.8,0,1.6,0,2.4,0c0,1.1,0,2.1,0,3.2c-0.5-0.4-0.7-1.1-2-0.8
			C248.8,191.7,247.9,191.8,248.2,190.6z"/>
		<path fill-rule="evenodd" clip-rule="evenodd" d="M216.3,191.8c0.4,0,0.8,0,1.2,0c0,0.4,0,0.8,0,1.2c-0.4,0-0.8,0-1.2,0
			C216.3,192.6,216.3,192.2,216.3,191.8z"/>
		<path fill-rule="evenodd" clip-rule="evenodd" d="M252.9,191.8c0.4,0,0.8,0,1.2,0c0,0.4,0,0.8,0,1.2c-0.4,0-0.8,0-1.2,0
			C252.9,192.6,252.9,192.2,252.9,191.8z"/>
		<path fill-rule="evenodd" clip-rule="evenodd" d="M267.1,192.2c0.2-1,1.5,0,1.2,0.8C267.4,193.2,267.7,192.2,267.1,192.2z"/>
		<path fill-rule="evenodd" clip-rule="evenodd" d="M276.5,191.8c0.4,0,0.8,0,1.2,0c0,0.4,0,0.8,0,1.2c-0.4,0-0.8,0-1.2,0
			C276.5,192.6,276.5,192.2,276.5,191.8z"/>
		<path fill-rule="evenodd" clip-rule="evenodd" d="M269.4,193c0.4,0,0.8,0,1.2,0c0,0.4,0,0.8,0,1.2c-0.4,0-0.8,0-1.2,0
			C269.4,193.7,269.4,193.3,269.4,193z"/>
		<path fill-rule="evenodd" clip-rule="evenodd" d="M208,194.1c0.4,0,0.8,0,1.2,0c0,0.4,0,0.8,0,1.2c-0.4,0-0.8,0-1.2,0
			C208,194.9,208,194.5,208,194.1z"/>
		<path fill-rule="evenodd" clip-rule="evenodd" d="M245.8,194.1c0.9-0.2,0.6,0.8,1.2,0.8C246.8,195.9,245.2,195.2,245.8,194.1z"/>
		<path fill-rule="evenodd" clip-rule="evenodd" d="M277.7,194.5c0.3,1.4-3.3,0.9-3.5,0.4C273.9,193.5,277.4,194,277.7,194.5z"/>
		<path fill-rule="evenodd" clip-rule="evenodd" d="M280.1,194.1c0.4,0,0.8,0,1.2,0c-0.2,0.7,0.5,2.3-0.4,2.4
			C279.4,196.9,280.3,194.9,280.1,194.1z"/>
		<path fill-rule="evenodd" clip-rule="evenodd" d="M262.3,195.3c0.4,0.4,1.5,0.1,1.2,1.2C262.5,196.7,262.1,196.3,262.3,195.3z"/>
		<path fill-rule="evenodd" clip-rule="evenodd" d="M249.3,196.5c0.8,0,1.6,0,2.4,0c-0.6,1.5,1,0.8,1.2,1.6c-0.1,1.1-1.4,0.9-1.6,2
			c-0.8,0.2-0.8-0.6-0.8-1.2c-1.2,0-2.4,0-2.4-1.2c0.3,0.1,0.4,0.4,0.8,0.4C249.5,198,249.3,197.1,249.3,196.5z"/>
		<path fill-rule="evenodd" clip-rule="evenodd" d="M225.7,197.7c0.7,0.2,2.3-0.5,2.4,0.4c-0.1,1.1-1.4,0.9-1.6,2
			C225.1,200.4,225.9,198.5,225.7,197.7z"/>
		<path fill-rule="evenodd" clip-rule="evenodd" d="M265.9,199.3c0.6,1.2-2.9,1.2-2.4,0C263.8,198.9,265.7,198.4,265.9,199.3z"/>
		<path fill-rule="evenodd" clip-rule="evenodd" d="M280.1,198.9c0.4,0,0.8,0,1.2,0c0,0.4,0,0.8,0,1.2c-0.4,0-0.8,0-1.2,0
			C280.1,199.6,280.1,199.3,280.1,198.9z"/>
		<path fill-rule="evenodd" clip-rule="evenodd" d="M283.6,198.9c0.4,0,0.8,0,1.2,0c0,0.4,0,0.8,0,1.2c-0.4,0-0.8,0-1.2,0
			C283.6,199.6,283.6,199.3,283.6,198.9z"/>
		<path fill-rule="evenodd" clip-rule="evenodd" d="M287.6,198.9c1.1-0.1,2.2,0,2,1.2c-1.5-0.6-0.8,1-1.6,1.2
			C286.5,201.6,287.2,199.1,287.6,198.9z"/>
		<path fill-rule="evenodd" clip-rule="evenodd" d="M239.9,201.2c0.4,0,0.8,0,1.2,0c0,0.4,0,0.8,0,1.2c-0.4,0-0.8,0-1.2,0
			C239.9,202,239.9,201.6,239.9,201.2z"/>
		<path fill-rule="evenodd" clip-rule="evenodd" d="M248.2,201.2c0.6-0.1,0.7,0.4,1.2,0.4C249.5,202.4,247.6,202.2,248.2,201.2z"/>
		<path fill-rule="evenodd" clip-rule="evenodd" d="M251.7,201.2c1-0.1,1.9-0.1,2.4,0.4c0,0.6-1.7,1.2,0,1.2
			C253.5,203.6,251.5,202.5,251.7,201.2z"/>
		<path fill-rule="evenodd" clip-rule="evenodd" d="M281.7,201.2c0.3,0,0.5,0,0.8,0c0.2,0.8-0.6,0.8-1.2,0.8
			C281.3,201.7,281.7,201.6,281.7,201.2z"/>
		<path fill-rule="evenodd" clip-rule="evenodd" d="M208,202.4c0.4,0,0.8,0,1.2,0c0,0.4,0,0.8,0,1.2c-0.4,0-0.8,0-1.2,0
			C208,203.2,208,202.8,208,202.4z"/>
		<path fill-rule="evenodd" clip-rule="evenodd" d="M210.3,202.4c0.4,0,0.8,0,1.2,0c0,0.4,0,0.8,0,1.2
			C210.7,203.7,210.3,203.3,210.3,202.4z"/>
		<path fill-rule="evenodd" clip-rule="evenodd" d="M234,202.8c0,0.3,0,0.5,0,0.8C232.1,204,233.3,201.5,234,202.8z"/>
		<path fill-rule="evenodd" clip-rule="evenodd" d="M260.8,202.8c0.1-0.6,2.7-0.6,2.8,0c0.3,1.5-1.9,0.5-2.8,0.8
			c-0.1-0.3,0.2-0.4,0.4-0.4C261.2,202.9,261,202.8,260.8,202.8z"/>
		<path fill-rule="evenodd" clip-rule="evenodd" d="M260,204.8c-0.8-0.1-1.2,0.1-1.2,0.8c0.1,0.9,1.7,0.2,2.4,0.4
			c0,3.1-4.5,0.4-3.5-2.4c0.7-0.1,2,0.4,1.6-0.8C260.1,202.9,260,203.8,260,204.8z"/>
		<path fill-rule="evenodd" clip-rule="evenodd" d="M215.1,204.8c0.4,0,0.8,0,1.2,0c0,0.4,0,0.8,0,1.2c-0.4,0-0.8,0-1.2,0
			C215.1,205.6,215.1,205.2,215.1,204.8z"/>
		<path fill-rule="evenodd" clip-rule="evenodd" d="M282.4,205.2c0,1.4-4.1,0.9-4.7,0.4C277.7,204.1,281.8,204.7,282.4,205.2z"/>
		<path fill-rule="evenodd" clip-rule="evenodd" d="M217.8,206c0.5,0.2,0.8,0.5,0.8,1.2C217.2,207.5,217.3,206.5,217.8,206z"/>
		<path fill-rule="evenodd" clip-rule="evenodd" d="M228.5,207.1c1.4,1.2-3.5,2-2.8-0.4c0.6,0.6,1.5,0.6,1.2-0.8c0.4,0,0.8,0,1.2,0
			C228.5,206.7,228,208,228.5,207.1z"/>
		<path fill-rule="evenodd" clip-rule="evenodd" d="M232.8,207.1c0.4,0,0.8,0,1.2,0c0,0.8,0,1.6,0,2.4c-1.2,0-2.6,0.2-2.4-1.2
			C232.6,208.6,233,208.2,232.8,207.1z"/>
		<path fill-rule="evenodd" clip-rule="evenodd" d="M256.8,207.1C258.5,207.3,256.4,209.4,256.8,207.1L256.8,207.1z"/>
		<path fill-rule="evenodd" clip-rule="evenodd" d="M199.7,209.5c0.4,0,0.8,0,1.2,0c0,0.4,0,0.8,0,1.2c-0.4,0-0.8,0-1.2,0
			C199.7,210.3,199.7,209.9,199.7,209.5z"/>
		<path fill-rule="evenodd" clip-rule="evenodd" d="M202.9,209.5c0.6,0,1.5-0.2,1.6,0.4C204.9,211.3,202,210.9,202.9,209.5z"/>
		<path fill-rule="evenodd" clip-rule="evenodd" d="M225.7,209.5c0.9-0.1,1.3,0.3,1.2,1.2c-0.4,0-0.8,0-1.2,0
			C225.7,210.3,225.7,209.9,225.7,209.5z"/>
		<path fill-rule="evenodd" clip-rule="evenodd" d="M262.3,209.9c1.3-0.9,0.6,1.2,2.4,1.2c0.4,1.4-1.6,0.5-2.4,0.8
			C261.8,210.9,263.2,210,262.3,209.9z"/>
		<path fill-rule="evenodd" clip-rule="evenodd" d="M268.3,211.1c-0.2-0.6,1.5-1,0.4-1.2C269.6,208.4,269.9,211.8,268.3,211.1z"/>
		<path fill-rule="evenodd" clip-rule="evenodd" d="M271.8,209.5c0.4,0,0.8,0,1.2,0c-0.7,2.3,3,0.2,2.4,2.4c-1-0.2-1.4,0.2-1.2,1.2
			C272,212.6,271.8,213.1,271.8,209.5z"/>
		<path fill-rule="evenodd" clip-rule="evenodd" d="M281.3,210.7c0.4,0,0.8,0,1.2,0c-0.1,1.2,0.3,2.9-0.4,3.5
			C281.3,213.5,281.2,212.2,281.3,210.7z"/>
		<path fill-rule="evenodd" clip-rule="evenodd" d="M204.4,211.9c0.4,0,0.8,0,1.2,0c0,0.4,0,0.8,0,1.2c-0.4,0-0.8,0-1.2,0
			C204.4,212.7,204.4,212.3,204.4,211.9z"/>
		<path fill-rule="evenodd" clip-rule="evenodd" d="M258.8,211.9c0.4,0,0.8,0,1.2,0c0,0.4,0,0.8,0,1.2c-0.4,0-0.8,0-1.2,0
			C258.8,212.7,258.8,212.3,258.8,211.9z"/>
		<path fill-rule="evenodd" clip-rule="evenodd" d="M217.8,213c0.7,0,1.3,0,2,0c0,1.4-1,1.8-2,2.4C217,214.6,218,214.3,217.8,213z"
			/>
		<path fill-rule="evenodd" clip-rule="evenodd" d="M238.7,213c0.5,0,1,0,1.6,0c-0.2,0.3-0.4,0.6-0.4,1.2c-0.4,0-0.8,0-1.2,0
			C238.7,213.8,238.7,213.4,238.7,213z"/>
		<path fill-rule="evenodd" clip-rule="evenodd" d="M202.1,214.2c0.5,0,1.1,0,1.6,0c0.1,0.6-0.4,3.4-0.8,4.7
			C201.2,218.8,202.5,215.7,202.1,214.2z"/>
		<path fill-rule="evenodd" clip-rule="evenodd" d="M222.2,214.2c1.1-0.3,1,0.6,2,0.4c-0.5,1.2-0.8,0.2-2,0.8
			C222.2,215,222.2,214.6,222.2,214.2z"/>
		<path fill-rule="evenodd" clip-rule="evenodd" d="M229.3,215c0.1-0.1,0.8-0.7,1.2-0.4C230.7,214.9,228.9,215.7,229.3,215z"/>
		<path fill-rule="evenodd" clip-rule="evenodd" d="M211.1,215.4c0.8,0,1.6,0,2.4,0c-0.3,0.4-0.9,0.4-0.8,1.2
			C211.7,216.7,211,216.4,211.1,215.4z"/>
		<path fill-rule="evenodd" clip-rule="evenodd" d="M216.3,215.4c0.4,0,0.8,0,1.2,0c0,0.4,0,0.8,0,1.2c-0.4,0-0.8,0-1.2,0
			C216.3,216.2,216.3,215.8,216.3,215.4z"/>
		<path fill-rule="evenodd" clip-rule="evenodd" d="M238.7,215.4c0.4,0,0.8,0,1.2,0c0,0.4,0,0.8,0,1.2c-0.4,0-0.8,0-1.2,0
			C238.7,216.2,238.7,215.8,238.7,215.4z"/>
		<path fill-rule="evenodd" clip-rule="evenodd" d="M244.2,215.8c0.1-0.5,1-0.3,1.6-0.4c0,0.4,0,0.8,0,1.2
			C244.6,217,244.8,216,244.2,215.8z"/>
		<path fill-rule="evenodd" clip-rule="evenodd" d="M252.9,216.6c0,0.4,0,0.8,0,1.2c-0.4-0.2-0.7-0.5-0.8,0
			C251.1,217.6,252.1,216.2,252.9,216.6z"/>
		<path fill-rule="evenodd" clip-rule="evenodd" d="M260,217c0.6,1.3-2.4,1-2.4,0.4C257.1,216.1,260,216.4,260,217z"/>
		<path fill-rule="evenodd" clip-rule="evenodd" d="M214.3,218.2c-0.1-0.9,1.4-0.2,2-0.4c0.5,1.5-0.9,1.2-2,1.2
			C214.4,218.4,215.9,218.2,214.3,218.2z"/>
		<path fill-rule="evenodd" clip-rule="evenodd" d="M241.1,219c0.4,0,0.8,0,1.2,0c-0.2,0.7,0.5,2.3-0.4,2.4
			C240.4,221.7,241.3,219.8,241.1,219z"/>
		<path fill-rule="evenodd" clip-rule="evenodd" d="M246.2,219c0.6,0.7,2-0.7,2,1.2C247.2,220.1,246.1,220.1,246.2,219z"/>
		<path fill-rule="evenodd" clip-rule="evenodd" d="M251.7,220.1c1.5-0.6,0.8,1,1.6,1.2c1.8,0.7,0.5-1.6,2-1.2
			c-0.7,1.1,0.2,2.2,0,4.7c-1.6-0.1-3.9,0.5-3.9-1.2c1,0.4,2,0.4,2.8-0.4c0.4-1.4-1.6-0.5-2.4-0.8
			C251.7,221.7,251.7,220.9,251.7,220.1z"/>
		<path fill-rule="evenodd" clip-rule="evenodd" d="M257.6,220.1c0.4,0,0.8,0,1.2,0c-0.2,0.7,0.5,2.3-0.4,2.4
			C257,222.9,257.9,220.9,257.6,220.1z"/>
		<path fill-rule="evenodd" clip-rule="evenodd" d="M215.1,222.9c0.6,1.3-2.4,1-2.4,0.4C212.2,222,215.1,222.3,215.1,222.9z"/>
		<path fill-rule="evenodd" clip-rule="evenodd" d="M228.5,222.5c0.3,0,0.5,0,0.8,0c0.1,0.6-0.4,0.7-0.4,1.2c-0.3,0-0.5,0-0.8,0
			C228,223,228.4,223,228.5,222.5z"/>
		<path fill-rule="evenodd" clip-rule="evenodd" d="M261.2,222.9c0,0.3,0,0.5,0,0.8C259.2,224.1,260.4,221.6,261.2,222.9z"/>
		<path fill-rule="evenodd" clip-rule="evenodd" d="M209.2,223.7c0.4,0,0.8,0,1.2,0c0,0.4,0,0.8,0,1.2c-0.4,0-0.8,0-1.2,0
			C209.2,224.5,209.2,224.1,209.2,223.7z"/>
		<path fill-rule="evenodd" clip-rule="evenodd" d="M229.3,223.7c0.4,0,0.8,0,1.2,0c0,0.4,0,0.8,0,1.2c-0.4,0-0.8,0-1.2,0
			C229.3,224.5,229.3,224.1,229.3,223.7z"/>
		<path fill-rule="evenodd" clip-rule="evenodd" d="M237.5,223.7c0.4,0,0.8,0,1.2,0c0,0.4,0,0.8,0,1.2c-0.4,0-0.8,0-1.2,0
			C237.5,224.5,237.5,224.1,237.5,223.7z"/>
		<path fill-rule="evenodd" clip-rule="evenodd" d="M242.3,223.7c0.4,0,0.8,0,1.2,0c0,0.4,0,0.8,0,1.2c-0.4,0-0.8,0-1.2,0
			C242.3,224.5,242.3,224.1,242.3,223.7z"/>
		<path fill-rule="evenodd" clip-rule="evenodd" d="M213.9,224.9c0.4,0,0.8,0,1.2,0c0,0.4,0,0.8,0,1.2c-0.4,0-0.8,0-1.2,0
			C213.9,225.7,213.9,225.3,213.9,224.9z"/>
		<path fill-rule="evenodd" clip-rule="evenodd" d="M250.5,224.9c0.4,0,0.8,0,1.2,0c0,0.4,0,0.8,0,1.2c-0.4,0-0.8,0-1.2,0
			C250.5,225.7,250.5,225.3,250.5,224.9z"/>
		<path fill-rule="evenodd" clip-rule="evenodd" d="M260,224.9c0.4,0,0.8,0,1.2,0c0,0.4,0,0.8,0,1.2c-0.4,0-0.8,0-1.2,0
			C260,225.7,260,225.3,260,224.9z"/>
		<path fill-rule="evenodd" clip-rule="evenodd" d="M254.1,226c0.4,0,0.8,0,1.2,0c0,0.4,0,0.8,0,1.2
			C254.4,227.3,254,226.9,254.1,226z"/>
		<path fill-rule="evenodd" clip-rule="evenodd" d="M268.3,226c-0.1,1.8-1.7,0.9-2.4,0.8C265.9,225.8,267.2,226.1,268.3,226z"/>
		<path fill-rule="evenodd" clip-rule="evenodd" d="M262.7,226.8c0.5,0.7,2.6-0.2,2,1.6c-1.2,0.3-1.4-0.4-2.4-0.4
			C262.6,227.7,262.8,227.4,262.7,226.8z"/>
		<path fill-rule="evenodd" clip-rule="evenodd" d="M225.7,227.2c0.4,0,0.8,0,1.2,0c0,0.4,0,0.8,0,1.2c-0.4,0-0.8,0-1.2,0
			C225.7,228,225.7,227.6,225.7,227.2z"/>
		<path fill-rule="evenodd" clip-rule="evenodd" d="M211.5,229.6c-0.2,1.1,0.5,3.1-0.4,3.5c-1.5,0-0.2-3-2-2.8
			C208.8,229,210.7,229.8,211.5,229.6z"/>
		<path fill-rule="evenodd" clip-rule="evenodd" d="M232.8,229.6c0.4,0,0.8,0,1.2,0c0,0.4,0,0.8,0,1.2c-0.4,0-0.8,0-1.2,0
			C232.8,230.4,232.8,230,232.8,229.6z"/>
		<path fill-rule="evenodd" clip-rule="evenodd" d="M247,229.6c0.4,0,0.8,0,1.2,0c0,0.4,0,0.8,0,1.2c-0.4,0-0.8,0-1.2,0
			C247,230.4,247,230,247,229.6z"/>
		<path fill-rule="evenodd" clip-rule="evenodd" d="M265.9,230.8c0.4,0,0.8,0,1.2,0c0,0.4,0,0.8,0,1.2c-0.4,0-0.8,0-1.2,0
			C265.9,231.6,265.9,231.2,265.9,230.8z"/>
		<path fill-rule="evenodd" clip-rule="evenodd" d="M222.6,232c0.5,1.5-2.3,1.6-2.8,0.8C219.5,231.2,221.7,232.2,222.6,232z"/>
		<path fill-rule="evenodd" clip-rule="evenodd" d="M228.1,232c0.4,0,0.8,0,1.2,0c0,0.4,0,0.8,0,1.2c-0.4,0-0.8,0-1.2,0
			C228.1,232.7,228.1,232.4,228.1,232z"/>
		<path fill-rule="evenodd" clip-rule="evenodd" d="M243.4,234.3c0-0.8,0-1.6,0-2.4c1.1,0.2,3.1-0.5,3.5,0.4
			c0.2,1.6-2.2,0.5-3.2,0.8C244.1,233.5,244.7,234.6,243.4,234.3z"/>
		<path fill-rule="evenodd" clip-rule="evenodd" d="M208,233.1c0.4,0,0.8,0,1.2,0c0,0.4,0,0.8,0,1.2c-0.4,0-0.8,0-1.2,0
			C208,233.9,208,233.5,208,233.1z"/>
		<path fill-rule="evenodd" clip-rule="evenodd" d="M232.8,233.1c0.4,0,0.8,0,1.2,0c0,0.4,0,0.8,0,1.2c-0.4,0-0.8,0-1.2,0
			C232.8,233.9,232.8,233.5,232.8,233.1z"/>
		<path fill-rule="evenodd" clip-rule="evenodd" d="M257.2,233.5c-0.3-0.6,1.9-0.6,1.6,0c0,0.3,0,0.5,0,0.8c-0.5,0-1,0-1.6,0
			C257.5,234,257.7,233.6,257.2,233.5z"/>
		<path fill-rule="evenodd" clip-rule="evenodd" d="M203.3,233.5c1.2-0.2,1.3,0.8,1.2,2c-1-0.2-1.4,0.2-1.2,1.2c-0.5,0-1,0-1.6,0
			c0.5-0.5,0.4-1.4,0.4-2.4C203.1,234.4,203.4,235.1,203.3,233.5z"/>
		<path fill-rule="evenodd" clip-rule="evenodd" d="M244.2,234.7c-0.1,0.5-1.7,1.4-2,0.4c0-0.3,0-0.5,0-0.8
			C243.4,234,243.3,234.9,244.2,234.7z"/>
		<path fill-rule="evenodd" clip-rule="evenodd" d="M243.4,235.5c0.8,0,1.6,0,2.4,0c0,0.8,0,1.6,0,2.4c-1.2,0.3-1.2-0.7-2.4-0.4
			C244.2,236.7,243.2,236.8,243.4,235.5z"/>
		<path fill-rule="evenodd" clip-rule="evenodd" d="M260,235.5c0.8,0,1.6,0,2.4,0c0,0.8,0,1.6,0,2.4c-0.7,0-1.3,0-2,0
			c0.9-0.7,1.1-1.4-0.4-0.8C260,236.6,260,236,260,235.5z"/>
		<path fill-rule="evenodd" clip-rule="evenodd" d="M209.2,236.7c0.4,0,0.8,0,1.2,0c0,0.4,0,0.8,0,1.2c-0.4,0-0.8,0-1.2,0
			C209.2,237.5,209.2,237.1,209.2,236.7z"/>
		<path fill-rule="evenodd" clip-rule="evenodd" d="M226.1,237.9c0.7-0.1,0.7,0.3,0.8,0.8c-0.3-0.1-0.4,0.2-0.4,0.4
			C226,239,226.2,238.3,226.1,237.9z"/>
		<path fill-rule="evenodd" clip-rule="evenodd" d="M200.9,239c0.4,0,0.8,0,1.2,0c0,0.4,0,0.8,0,1.2c-0.4,0-0.8,0-1.2,0
			C200.9,239.8,200.9,239.4,200.9,239z"/>
		<path fill-rule="evenodd" clip-rule="evenodd" d="M222.2,239.4c0.6,1.3-2.4,1-2.4,0.4C219.2,238.6,222.2,238.8,222.2,239.4z"/>
		<path fill-rule="evenodd" clip-rule="evenodd" d="M215.1,240.6c0,0.3,0,0.5,0,0.8C213.2,241.8,214.3,239.3,215.1,240.6z"/>
		<path fill-rule="evenodd" clip-rule="evenodd" d="M210.7,243c1.9-1.9-0.2,2.2-0.4,0.4C210.3,242.9,210.6,243.2,210.7,243z"/>
		<path fill-rule="evenodd" clip-rule="evenodd" d="M239.9,242.6c0.4,0,0.8,0,1.2,0c0,0.4,0,0.8,0,1.2c-0.4,0-0.8,0-1.2,0
			C239.9,243.4,239.9,243,239.9,242.6z"/>
		<path fill-rule="evenodd" clip-rule="evenodd" d="M252.9,242.6c1-0.1,1.9-0.1,2.4,0.4C255.4,244,252.2,244.4,252.9,242.6z"/>
		<path fill-rule="evenodd" clip-rule="evenodd" d="M257.6,243c0.1-0.2,0.8-0.7,1.2-0.4C259.6,243.3,257.1,244.5,257.6,243z"/>
		<path fill-rule="evenodd" clip-rule="evenodd" d="M242.3,243.8c0.4,0,0.8,0,1.2,0c0,0.4,0,0.8,0,1.2c-0.4,0-0.8,0-1.2,0
			C242.3,244.6,242.3,244.2,242.3,243.8z"/>
		<path fill-rule="evenodd" clip-rule="evenodd" d="M249.3,243.8c0.4,0,0.8,0,1.2,0c0,0.4,0,0.8,0,1.2c-0.4,0-0.8,0-1.2,0
			C249.3,244.6,249.3,244.2,249.3,243.8z"/>
		<path fill-rule="evenodd" clip-rule="evenodd" d="M201.3,244.2c0.3-0.1,0.4,0.2,0.4,0.4c-0.3,1.1,1.9-0.3,1.6,0.8
			c-0.1,1.1-1.4,0.9-1.6,2c-0.9-0.5-1.6-1.3-2-2.4C200.4,244.9,201.7,245.4,201.3,244.2z"/>
		<path fill-rule="evenodd" clip-rule="evenodd" d="M206,245c1,0.6,0.4,1.7,3.2,1.2c0.3,1.6-1.5,1.2-1.6,2.4c-1.2,0.6-0.7-1.8-0.8-2
			C207.4,247.4,204.4,246.8,206,245z"/>
		<path fill-rule="evenodd" clip-rule="evenodd" d="M216.3,245c0.4,0,0.8,0,1.2,0c0,0.4,0,0.8,0,1.2c-0.4,0-0.8,0-1.2,0
			C216.3,245.7,216.3,245.4,216.3,245z"/>
		<path fill-rule="evenodd" clip-rule="evenodd" d="M237.5,245c0.4,0,0.8,0,1.2,0c0.1,0.6-0.4,0.7-0.4,1.2c-0.3,0-0.5,0-0.8,0
			C237.5,245.7,237.5,245.4,237.5,245z"/>
		<path fill-rule="evenodd" clip-rule="evenodd" d="M262.7,245c0.3,0,0.5,0,0.8,0c0.1,0.6-0.4,0.7-0.4,1.2c-0.3,0-0.5,0-0.8,0
			C262.2,245.5,262.7,245.5,262.7,245z"/>
		<path fill-rule="evenodd" clip-rule="evenodd" d="M248.2,246.1c0.4,0.2,0.7,0.5,0.8,0c0.5,0.1,0.3,0.7,0.4,1.2
			C248.5,247.4,248.1,247,248.2,246.1z"/>
		<path fill-rule="evenodd" clip-rule="evenodd" d="M212.7,247.3c1.9-0.7,0.5,1.9,2.4,1.2c-0.2,0.7,0.5,2.3-0.4,2.4
			c-0.8,0.2-0.8-0.6-0.8-1.2c-1.2,0-2.6,0.2-2.4-1.2C212.6,248.7,212.9,248.3,212.7,247.3z"/>
		<path fill-rule="evenodd" clip-rule="evenodd" d="M239.9,247.3c-0.6,1.5,1,0.8,1.2,1.6c-0.9,2.3-2.7-0.6-3.5-0.8
			C237.6,247.1,238.8,247.3,239.9,247.3z"/>
		<path fill-rule="evenodd" clip-rule="evenodd" d="M231.6,248.5c0.4,0,0.8,0,1.2,0c0,0.4,0,0.8,0,1.2c-0.4,0-0.8,0-1.2,0
			C231.6,249.3,231.6,248.9,231.6,248.5z"/>
		<path fill-rule="evenodd" clip-rule="evenodd" d="M244.6,248.5c0.8,0.3,1.4,1,1.2,2.4c-0.4,0-0.8,0-1.2,0
			C244.7,249.4,245.1,249.7,244.6,248.5z"/>
		<path fill-rule="evenodd" clip-rule="evenodd" d="M250.9,250.1c-0.1-0.9,1.4-0.2,2-0.4c0.5,1.5-0.9,1.2-2,1.2
			C251,250.3,252.6,250.1,250.9,250.1z"/>
		<path fill-rule="evenodd" clip-rule="evenodd" d="M216.3,251.7c0-0.3,0-0.5,0-0.8C218.2,250.5,217,253,216.3,251.7z"/>
		<path fill-rule="evenodd" clip-rule="evenodd" d="M229.3,250.9c0.4,0,0.8,0,1.2,0c0,0.4,0,0.8,0,1.2c-0.4,0-0.8,0-1.2,0
			C229.3,251.7,229.3,251.3,229.3,250.9z"/>
		<path fill-rule="evenodd" clip-rule="evenodd" d="M254.1,250.9c0.4,0,0.8,0,1.2,0c0,0.4,0,0.8,0,1.2c-0.4,0-0.8,0-1.2,0
			C254.1,251.7,254.1,251.3,254.1,250.9z"/>
		<path fill-rule="evenodd" clip-rule="evenodd" d="M217,252C218.4,253.1,215,253,217,252L217,252z"/>
		<path fill-rule="evenodd" clip-rule="evenodd" d="M228.5,252c1.2,0.5,0.2,0.8,0.8,2c-0.5-0.1-0.7,0.1-0.8,0.4
			C227.8,253.6,228.4,253.3,228.5,252z"/>
		<path fill-rule="evenodd" clip-rule="evenodd" d="M230.4,253.2c0.4,0,0.8,0,1.2,0c0,0.4,0,0.8,0,1.2c-0.4,0-0.8,0-1.2,0
			C230.4,254,230.4,253.6,230.4,253.2z"/>
		<path fill-rule="evenodd" clip-rule="evenodd" d="M203.6,253.6c1.6,0.2,1.8,1.9,3.2,2.4c0,0.7-0.5,0.8-0.4,1.6
			c-0.5-0.4-0.7-1.1-2-0.8c0.2-1-0.2-1.4-1.2-1.2C203.1,254.7,203.3,254.1,203.6,253.6z"/>
		<path fill-rule="evenodd" clip-rule="evenodd" d="M251.7,254.4c0.6-0.1,0.7,0.4,1.2,0.4c-0.1,0.4-0.8,0.3-0.8,0.8
			C251.6,255.5,251.8,254.9,251.7,254.4z"/>
		<path fill-rule="evenodd" clip-rule="evenodd" d="M262.3,254.4c1.5,0,1.1,0.4,2.4,0C265.1,256.1,261.9,256.1,262.3,254.4z"/>
		<path fill-rule="evenodd" clip-rule="evenodd" d="M243.4,256c0.1-0.2,0.8-0.7,1.2-0.4C245.4,256.3,242.9,257.5,243.4,256z"/>
		<path fill-rule="evenodd" clip-rule="evenodd" d="M256.4,255.6c0.8,0,1.6,0,2.4,0c0,0.8,0,1.6,0,2.4c-0.8,0-1.6,0-2.4,0
			C256.4,257.2,256.4,256.4,256.4,255.6z"/>
		<path fill-rule="evenodd" clip-rule="evenodd" d="M252.9,256.8c0.5,1.2-0.6,1-0.8,1.6C251.1,258.1,251.9,256.4,252.9,256.8z"/>
		<path fill-rule="evenodd" clip-rule="evenodd" d="M204.8,258C206.6,258.2,204.5,260.3,204.8,258L204.8,258z"/>
		<path fill-rule="evenodd" clip-rule="evenodd" d="M215.5,258c0.5,0.2,0.8,0.5,0.8,1.2c-0.4,0-0.8,0-1.2,0
			C215.3,258.8,215.5,258.5,215.5,258z"/>
		<path fill-rule="evenodd" clip-rule="evenodd" d="M235.2,258c0.4,0,0.8,0,1.2,0c-0.2,0.7,0.5,2.3-0.4,2.4
			C234.5,260.7,235.4,258.8,235.2,258z"/>
		<path fill-rule="evenodd" clip-rule="evenodd" d="M248.2,258c0.4,0,0.8,0,1.2,0c0,0.4,0,0.8,0,1.2c-0.4,0-0.8,0-1.2,0
			C248.2,258.7,248.2,258.4,248.2,258z"/>
		<path fill-rule="evenodd" clip-rule="evenodd" d="M203.3,259.1c1.3-0.5,1.6,2,0.8,2.4C202.6,261.9,203.5,260,203.3,259.1z"/>
		<path fill-rule="evenodd" clip-rule="evenodd" d="M210.3,260.3c0.4,0,0.8,0,1.2,0c0,0.4,0,0.8,0,1.2
			C210.7,261.6,210.3,261.2,210.3,260.3z"/>
		<path fill-rule="evenodd" clip-rule="evenodd" d="M215.1,260.3c0.4,0.2,0.7,0.5,0.8,0c0.6-0.1,0.6,2.4,0,2.4
			C214.4,263.1,215.3,261.1,215.1,260.3z"/>
		<path fill-rule="evenodd" clip-rule="evenodd" d="M234,260.3c0.9-0.1,1.3,0.3,1.2,1.2c-0.4-0.2-0.7-0.5-0.8,0
			C233.9,261.4,234,260.8,234,260.3z"/>
		<path fill-rule="evenodd" clip-rule="evenodd" d="M243.4,260.7c-0.4,1.3-2.4,0.7-3.5,0.4C240.4,260.1,242.2,260.2,243.4,260.7z"/>
		<path fill-rule="evenodd" clip-rule="evenodd" d="M252.9,260.3c0.4,0,0.8,0,1.2,0c0,0.4,0,0.8,0,1.2c-0.4,0-0.8,0-1.2,0
			C252.9,261.1,252.9,260.7,252.9,260.3z"/>
		<path fill-rule="evenodd" clip-rule="evenodd" d="M206.8,261.5c0.4,0,0.8,0,1.2,0c0,0.4,0,0.8,0,1.2c-0.4,0-0.8,0-1.2,0
			C206.8,262.3,206.8,261.9,206.8,261.5z"/>
		<path fill-rule="evenodd" clip-rule="evenodd" d="M209.2,261.5c0.4,0,0.8,0,1.2,0c0.2,0.8-0.3,1-0.4,1.6
			C209.3,263,209.1,262.4,209.2,261.5z"/>
		<path fill-rule="evenodd" clip-rule="evenodd" d="M213.5,263.9c-1.1,0,0.9,1.1-0.8,0.8c0-1.1-0.2-2.6,0.4-3.2
			c1.1,0.1,0.7,1.6,0.8,2.8C213.6,264.3,213.5,264.1,213.5,263.9z"/>
		<path fill-rule="evenodd" clip-rule="evenodd" d="M244.6,261.5c0.4,0,0.8,0,1.2,0c0,0.4,0,0.8,0,1.2c-0.4,0-0.8,0-1.2,0
			C244.6,262.3,244.6,261.9,244.6,261.5z"/>
		<path fill-rule="evenodd" clip-rule="evenodd" d="M240.3,262.7c1.4-0.4,0.5,1.6,0.8,2.4c-0.7-0.2-2.3,0.5-2.4-0.4
			C238.6,263.4,240.4,264,240.3,262.7z"/>
		<path fill-rule="evenodd" clip-rule="evenodd" d="M227.3,263.1c1.3-0.4,0.6,1.2,0.8,2c-1-0.2-1.4,0.2-1.2,1.2c-0.8,0-1.6,0-2.4,0
			C225,264.7,227,264.7,227.3,263.1z"/>
		<path fill-rule="evenodd" clip-rule="evenodd" d="M209.2,264.3c0.6,1.3-2.4,1-2.4,0.4C206.2,263.4,209.2,263.7,209.2,264.3z"/>
		<path fill-rule="evenodd" clip-rule="evenodd" d="M221,263.9c0.4,0,0.8,0,1.2,0c0,0.4,0,0.8,0,1.2c-0.4,0-0.8,0-1.2,0
			C221,264.7,221,264.3,221,263.9z"/>
		<path fill-rule="evenodd" clip-rule="evenodd" d="M209.6,265.4c0.2-0.8,2.8-0.7,2,0.8C210,266.8,210.8,265.1,209.6,265.4z"/>
		<path fill-rule="evenodd" clip-rule="evenodd" d="M231.6,265c0.4,0,0.8,0,1.2,0c0,0.4,0,0.8,0,1.2c-0.4,0-0.8,0-1.2,0
			C231.6,265.8,231.6,265.4,231.6,265z"/>
		<path fill-rule="evenodd" clip-rule="evenodd" d="M255.3,265.4c0.8-0.1,1.2,0.1,1.2,0.8c-0.4,0-0.8,0-1.2,0
			C255.3,266,255.3,265.7,255.3,265.4z"/>
		<path fill-rule="evenodd" clip-rule="evenodd" d="M208,267.4c0.4,0,0.8,0,1.2,0c0,0.4,0,0.8,0,1.2c-0.4,0-0.8,0-1.2,0
			C208,268.2,208,267.8,208,267.4z"/>
		<path fill-rule="evenodd" clip-rule="evenodd" d="M244.6,267.4c0.4,0,0.8,0,1.2,0c0,0.4,0,0.8,0,1.2c-0.4,0-0.8,0-1.2,0
			C244.6,268.2,244.6,267.8,244.6,267.4z"/>
		<path fill-rule="evenodd" clip-rule="evenodd" d="M249.3,267.8C248.8,269.3,247.1,267.6,249.3,267.8L249.3,267.8z"/>
		<path fill-rule="evenodd" clip-rule="evenodd" d="M203.3,268.6c0.8,0,1.6,0,2.4,0c-0.3,1.4,0.7,1.7,0,2.4
			C204.6,270.4,203.4,270.1,203.3,268.6z"/>
		<path fill-rule="evenodd" clip-rule="evenodd" d="M222.2,269.8c0.4,0,0.8,0,1.2,0c0,0.4,0,0.8,0,1.2c-0.4,0-0.8,0-1.2,0
			C222.2,270.6,222.2,270.2,222.2,269.8z"/>
		<path fill-rule="evenodd" clip-rule="evenodd" d="M228.1,269.8c0.4,0,0.8,0,1.2,0c0,0.4,0,0.8,0,1.2c-0.4,0-0.8,0-1.2,0
			C228.1,270.6,228.1,270.2,228.1,269.8z"/>
		<path fill-rule="evenodd" clip-rule="evenodd" d="M255.3,269.8c0.4,0,0.8,0,1.2,0c0,0.4,0,0.8,0,1.2c-0.4,0-0.8,0-1.2,0
			C255.3,270.6,255.3,270.2,255.3,269.8z"/>
		<path fill-rule="evenodd" clip-rule="evenodd" d="M250.5,271C248.7,271.3,249.8,269.1,250.5,271L250.5,271z"/>
		<path fill-rule="evenodd" clip-rule="evenodd" d="M208,271c0,0.4,0,0.8,0,1.2c-0.8,0.2-1-0.3-1.6-0.4
			C206.5,271.1,207.1,270.9,208,271z"/>
		<path fill-rule="evenodd" clip-rule="evenodd" d="M210.3,271c0.4,0,0.8,0,1.2,0c0,0.4,0,0.8,0,1.2c-0.4,0-0.8,0-1.2,0
			C210.3,271.7,210.3,271.4,210.3,271z"/>
		<path fill-rule="evenodd" clip-rule="evenodd" d="M260,271c0.4,0,0.8,0,1.2,0c0.2,0.8-0.3,1-0.4,1.6
			C260.1,272.4,259.9,271.9,260,271z"/>
		<path fill-rule="evenodd" clip-rule="evenodd" d="M237.5,271.4c0.1,0.3-0.2,0.4-0.4,0.4c0.1,0.5,1,0.3,1.6,0.4c0,0.4,0,0.8,0,1.2
			c-1,0.1-1.9,0.1-2.4-0.4C237,272.3,235.8,271.4,237.5,271.4z"/>
		<path fill-rule="evenodd" clip-rule="evenodd" d="M202.1,274.5c-0.8,2.1,2.1,0.5,2.4,1.6c0.2,1.6-2.5,0.4-3.5,0.8
			c0.6-1.5-1-0.8-1.2-1.6C199.3,273.9,201.3,274.7,202.1,274.5z"/>
		<path fill-rule="evenodd" clip-rule="evenodd" d="M228.1,274.5c0.4,0,0.8,0,1.2,0c0,0.4,0,0.8,0,1.2c-0.4,0-0.8,0-1.2,0
			C228.1,275.3,228.1,274.9,228.1,274.5z"/>
		<path fill-rule="evenodd" clip-rule="evenodd" d="M239.9,276.9c0-0.4,0-0.8,0-1.2c0.4,0,0.8,0,1.2,0c0,0.4,0,0.8,0,1.2
			C240.7,276.9,240.3,276.9,239.9,276.9z"/>
		<path fill-rule="evenodd" clip-rule="evenodd" d="M246.2,276.1c0.6-1.4,0.7,0.7,0.4,0.8C246.4,276.9,246.1,276.3,246.2,276.1z"/>
		<path fill-rule="evenodd" clip-rule="evenodd" d="M209.2,276.9c0.4,0,0.8,0,1.2,0c0,0.4,0,0.8,0,1.2c-0.4,0-0.8,0-1.2,0
			C209.2,277.7,209.2,277.3,209.2,276.9z"/>
		<path fill-rule="evenodd" clip-rule="evenodd" d="M218.6,277.3C217.7,278.6,216.7,276.2,218.6,277.3L218.6,277.3z"/>
		<path fill-rule="evenodd" clip-rule="evenodd" d="M262.3,276.9c0.6-0.1,0.7,0.4,1.2,0.4c-0.1,0.3-0.4,0.4-0.4,0.8
			c-0.3,0-0.5,0-0.8,0C262.3,277.7,262.3,277.3,262.3,276.9z"/>
		<path fill-rule="evenodd" clip-rule="evenodd" d="M215.1,278c0.4,0,0.8,0,1.2,0c0,0.4,0,0.8,0,1.2c-0.4,0-0.8,0-1.2,0
			C215.1,278.8,215.1,278.4,215.1,278z"/>
		<path fill-rule="evenodd" clip-rule="evenodd" d="M231.6,278c0.4,0,0.8,0,1.2,0c0,0.4,0,0.8,0,1.2c-0.5,0-1.1,0-1.6,0
			C231.4,278.9,231.6,278.6,231.6,278z"/>
		<path fill-rule="evenodd" clip-rule="evenodd" d="M235.6,279.6c0.1,0.4,0.4,0.2,0.4,0c1.1,0.2,0,1.2-0.8,0.8
			c-0.1-0.8,0.1-1.2,0.8-1.2C236,279.6,235.8,279.6,235.6,279.6z"/>
		<path fill-rule="evenodd" clip-rule="evenodd" d="M218.6,280.4c0.8,0,1.6,0,2.4,0c0,0.8,0,1.6,0,2.4c-1.5-0.3-1.4,0-2.4-0.4
			C218.6,281.7,218.6,281.1,218.6,280.4z"/>
		<path fill-rule="evenodd" clip-rule="evenodd" d="M226.9,280.4c0.4,0,0.8,0,1.2,0c0,0.4,0,0.8,0,1.2c-0.4,0-0.8,0-1.2,0
			C226.9,281.2,226.9,280.8,226.9,280.4z"/>
		<path fill-rule="evenodd" clip-rule="evenodd" d="M255.3,280.8c0.1-0.5,0.7-0.3,1.2-0.4c0,0.4,0,0.8,0,1.2
			C255.6,281.8,255.9,280.8,255.3,280.8z"/>
		<path fill-rule="evenodd" clip-rule="evenodd" d="M222.2,281.6c0.4,0,0.8,0,1.2,0c0,0.4,0,0.8,0,1.2c-0.4,0-0.8,0-1.2,0
			C222.2,282.4,222.2,282,222.2,281.6z"/>
		<path fill-rule="evenodd" clip-rule="evenodd" d="M244.6,281.6c0.4,0,0.8,0,1.2,0c-0.2,0.7,0.5,2.3-0.4,2.4
			C244,284.3,244.9,282.4,244.6,281.6z"/>
		<path fill-rule="evenodd" clip-rule="evenodd" d="M259.6,281.6c1.3,0.1,3-0.4,2.8,1.2C261.1,282.7,259.3,283.2,259.6,281.6z"/>
		<path fill-rule="evenodd" clip-rule="evenodd" d="M200.9,283.2c0.3-0.7,0.9-0.2,0.8,0.4c0.5,0.1,0.7-0.1,0.8-0.4
			c1.3,0.4-0.4,1.1-1.2,0.8C201.3,283.5,201.2,283.3,200.9,283.2z"/>
		<path fill-rule="evenodd" clip-rule="evenodd" d="M232.8,282.8c0.4,0,0.8,0,1.2,0c0,0.4,0,0.8,0,1.2c-0.4,0-0.8,0-1.2,0
			C232.8,283.6,232.8,283.2,232.8,282.8z"/>
		<path fill-rule="evenodd" clip-rule="evenodd" d="M211.5,284c0.4,0,0.8,0,1.2,0c-0.2,0.7,0.5,2.3-0.4,2.4
			C210.9,286.7,211.8,284.8,211.5,284z"/>
		<path fill-rule="evenodd" clip-rule="evenodd" d="M257.6,284c0.4,0,0.8,0,1.2,0c-0.4,0.4-0.1,1.5-1.2,1.2
			C257.6,284.7,257.6,284.4,257.6,284z"/>
		<path fill-rule="evenodd" clip-rule="evenodd" d="M209.2,285.1c0.4,0,0.8,0,1.2,0c0,2,0,3.9,0,5.9c-1.5,0.2-1.4-1.2-2.4-1.6
			C209,288.6,209.5,287.3,209.2,285.1z"/>
		<path fill-rule="evenodd" clip-rule="evenodd" d="M222.2,285.1c0.4,0,0.8,0,1.2,0c0,0.8,0,1.6,0,2.4c-0.7-0.2-2.3,0.5-2.4-0.4
			C220.6,285.7,222.9,286.9,222.2,285.1z"/>
		<path fill-rule="evenodd" clip-rule="evenodd" d="M228.1,285.1c0.4,0,0.8,0,1.2,0c0,0.4,0,0.8,0,1.2c-0.4,0-0.8,0-1.2,0
			C228.1,285.9,228.1,285.5,228.1,285.1z"/>
		<path fill-rule="evenodd" clip-rule="evenodd" d="M259.2,285.1c0.3,0,0.5,0,0.8,0c-0.2,0.3-0.4,0.6-0.4,1.2
			C258.8,286.1,258.8,285.7,259.2,285.1z"/>
		<path fill-rule="evenodd" clip-rule="evenodd" d="M238.7,286.3c0.9-0.2,0.6,0.8,1.2,0.8C239.7,288.1,238.4,287.1,238.7,286.3z"/>
		<path fill-rule="evenodd" clip-rule="evenodd" d="M217.4,288.7c0.8-0.2,1,0.3,1.6,0.4c-0.1,0.7-0.7,0.9-1.6,0.8
			C217.4,289.5,217.4,289.1,217.4,288.7z"/>
		<path fill-rule="evenodd" clip-rule="evenodd" d="M227.3,288.7C228.7,289.9,226.1,290,227.3,288.7L227.3,288.7z"/>
		<path fill-rule="evenodd" clip-rule="evenodd" d="M243.4,288.7c0.7,0.2,2.3-0.5,2.4,0.4C246.1,290.6,242.8,290,243.4,288.7z"/>
		<path fill-rule="evenodd" clip-rule="evenodd" d="M216.3,289.9c0.9-0.1,1.3,0.3,1.2,1.2C216.6,291.1,216.2,290.7,216.3,289.9z"/>
		<path fill-rule="evenodd" clip-rule="evenodd" d="M208,292.2c0.4,0,0.8,0,1.2,0c0,0.4,0,0.8,0,1.2
			C208.3,293.5,207.9,293.1,208,292.2z"/>
		<path fill-rule="evenodd" clip-rule="evenodd" d="M204.4,297c0.4,0,0.8,0,1.2,0c0,0.4,0,0.8,0,1.2c-0.4,0-0.8,0-1.2,0
			C204.4,297.7,204.4,297.4,204.4,297z"/>
		<path fill-rule="evenodd" clip-rule="evenodd" d="M206.4,300.9c-0.7-0.1-0.9-0.7-0.8-1.6c0.4,0,0.8,0,1.2,0
			C207,300.1,206.5,300.4,206.4,300.9z"/>
		<path fill-rule="evenodd" clip-rule="evenodd" d="M221.4,65.3c0.1-0.9,1,0.5,2,0c0,0.8,0,1.6,0,2.4c-0.4,0-0.8,0-1.2,0
			c0.2-2-0.3-1.1-1.2-1.6c0-0.4,0.5-0.3,0.8-0.4C221.8,65.4,221.6,65.3,221.4,65.3z"/>
		<path fill-rule="evenodd" clip-rule="evenodd" d="M229.3,75.2c0.1-0.4,0.4-0.2,0.4,0c0.3,0.1,0.4-0.2,0.4-0.4
			c0.4,0,0.3,0.5,0.4,0.8c-0.3-0.1-0.4,0.2-0.4,0.4C229.6,75.8,229.8,75.2,229.3,75.2z"/>
		<path fill-rule="evenodd" clip-rule="evenodd" d="M222.2,75.6c0,0.3,0,0.5,0,0.8C220.2,76.7,221.4,74.2,222.2,75.6z"/>
		<path fill-rule="evenodd" clip-rule="evenodd" d="M239.9,78.3c-0.7-0.2-2.3,0.5-2.4-0.4c0.1-1.1,1.4-0.9,1.6-2
			c1.9-0.4-0.4,3.3,2,2.4c0.1,0.8-0.1,1.2-0.8,1.2c0,0.4,0.5,0.3,0.8,0.4C240.5,81,239.5,79.4,239.9,78.3z"/>
		<path fill-rule="evenodd" clip-rule="evenodd" d="M234,78.3c0.5,0,1.1,0,1.6,0c-0.7,1-1.3,2.1-2.8,2.4
			C232.5,79.1,234.5,80,234,78.3z"/>
		<path fill-rule="evenodd" clip-rule="evenodd" d="M240.7,83c-1.4,0.4-0.5-1.6-0.8-2.4c1,0,2.2-0.1,2.8,0.4
			C242,81.1,241,81.7,240.7,83z"/>
		<path fill-rule="evenodd" clip-rule="evenodd" d="M232,84.2c1.4-0.4,0.2,1.9,2,1.2c0.4,2-2.3,0.6-2.4,1.2
			C231.2,86.8,231.5,84.4,232,84.2z"/>
		<path fill-rule="evenodd" clip-rule="evenodd" d="M206,92.9c-1.2-0.5,1.1-0.5,0.8,0.4C206.5,94,206.6,92.9,206,92.9z"/>
		<path fill-rule="evenodd" clip-rule="evenodd" d="M214.7,95.6c-1.5-0.9,0.5-0.5,0.4,0C215,96.2,214.7,95.7,214.7,95.6z"/>
		<path fill-rule="evenodd" clip-rule="evenodd" d="M224.5,94.9c1.8-0.7,0.5,1.8,2.4,1.2c-0.2,0.7,0.5,2.3-0.4,2.4
			C225.5,97.6,225.3,95.9,224.5,94.9z"/>
		<path fill-rule="evenodd" clip-rule="evenodd" d="M205.6,96c-0.5,1.4-1.8,2.2-1.2,4.7c-2.2,0.6-0.1-3.1-2.4-2.4
			C203.4,97.8,204.2,96.5,205.6,96z"/>
		<path fill-rule="evenodd" clip-rule="evenodd" d="M232.8,99.6c-0.1-1-0.1-1.9,0.4-2.4c1,0,0.8,1.3,0.8,2.4c0.9-0.6,3.9-2.3,3.2,0
			c-0.4,0-0.3-0.5-0.4-0.8c-0.6,0.7-1.6,1-2,2C233.3,101.1,234.6,98.8,232.8,99.6z"/>
		<path fill-rule="evenodd" clip-rule="evenodd" d="M230.4,99.2c-0.1-0.3,0.2-0.4,0.4-0.4c0.3,0,0.5,0,0.8,0c0.6,2-1.6,2.1,0,3.2
			C229.7,102.8,231.1,99.8,230.4,99.2z"/>
		<path fill-rule="evenodd" clip-rule="evenodd" d="M249.3,102.7c0.9-1.9,2.5-0.6,2.8-3.1c0.9,0.5,1.6,1.3,2,2.4
			c-2.1-0.8-0.5,2.1-1.6,2.4c-0.4-0.6-3.2-2.6-3.2,0c-0.8,0-1.6,0-2.4,0c0.2-0.7-0.5-2.3,0.4-2.4c1.5-0.6,0.1,1.8,1.6,1.2
			C249.3,103.2,249.3,103,249.3,102.7z"/>
		<path fill-rule="evenodd" clip-rule="evenodd" d="M202.1,104.3c0-0.8,0-1.6,0-2.4c0.8,0,1.6,0,2.4,0c0,0.8,0,1.6,0,2.4
			c-1.4-0.1-2.6-0.9-2.4,1.2c-0.8-1-2.4,0.9-2.4-1.2C200.9,104.8,200.6,104.3,202.1,104.3z"/>
		<path fill-rule="evenodd" clip-rule="evenodd" d="M207.6,103.1c1.3,0.4-0.4,0.8-0.4,1.2C206,104.1,207.8,103.7,207.6,103.1z"/>
		<path fill-rule="evenodd" clip-rule="evenodd" d="M226.9,103.1c0.6,1.5-1,0.8-1.2,1.6c0.4,1.7,2.2,1,3.5,0.8
			c0.3,2.8-3.1-0.7-2.4,2.4c-0.4-0.2-0.7-0.5-0.8,0c-0.7-1.1-1.3-2.4-2.8-2.8C224.2,104.1,225.8,103.9,226.9,103.1z"/>
		<path fill-rule="evenodd" clip-rule="evenodd" d="M255.3,103.1c1.3,0.3,2.1,1,2.4,2.4C256.3,105.2,255.5,104.4,255.3,103.1z"/>
		<path fill-rule="evenodd" clip-rule="evenodd" d="M245.8,108.6c-1,0.4-0.8,0.1-2.4,0.4c0.2-0.7-0.5-2.3,0.4-2.4
			C244.9,106.9,246,107.1,245.8,108.6z"/>
		<path fill-rule="evenodd" clip-rule="evenodd" d="M244.6,106.7c0-0.4,0-0.8,0-1.2c2.9-0.3,1.4,2.1,3.5,1.2
			c0.1,0.6-0.4,0.7-0.4,1.2c-0.3,0-0.5,0-0.8,0C247.2,106.4,245.8,106.7,244.6,106.7z"/>
		<path fill-rule="evenodd" clip-rule="evenodd" d="M248.6,107.1c0.4,0.1,0.2,0.4,0,0.4c0.6,0.1,1.2,2.2,1.6,1.2
			c0.5,0.1,0.3,1,0.4,1.6c-0.4,0-0.8,0-1.2,0c0.1-1.6,0-1.6-1.2-1.2C248.9,108.3,247.7,107.9,248.6,107.1z"/>
		<path fill-rule="evenodd" clip-rule="evenodd" d="M218.6,107.5c-0.4-1.4,1.6-0.5,2.4-0.8c0.5,1.5,1.3,2.7,2.4,3.5
			c-0.7,0-1,0.6-2.4,0.8C221.6,108.4,220.4,107.7,218.6,107.5z"/>
		<path fill-rule="evenodd" clip-rule="evenodd" d="M232.8,111c-0.4-1.4,1.6-0.5,2.4-0.8c-0.6,1.5,1,0.8,1.2,1.6
			c0.1,1.3-1.9,0.4-1.2,2.4c-0.6-0.5-1.8-0.3-1.6-1.6c0.5,0,1.1,0,1.6,0c0-0.3,0-0.5,0-0.8C235.2,110.7,232.7,112.1,232.8,111z"/>
		<path fill-rule="evenodd" clip-rule="evenodd" d="M208.4,113.8c1.4-0.4,0.5,1.6,0.8,2.4c-1.8-0.7-0.5,1.9-2.4,1.2
			C207.2,116,208.2,115.3,208.4,113.8z"/>
		<path fill-rule="evenodd" clip-rule="evenodd" d="M201.3,116.5c-1-0.7,0.7,0,1.2,0c-0.3,0.5-0.5,1.1-0.4,2c1,0.2,1.4-0.2,1.2-1.2
			c0.8,0,1.6,0,2.4,0c0,0.8,0,1.6,0,2.4c-1.5-0.6-0.8,1-1.6,1.2c-1.4,0.6-0.2-1.3-1.2-1.2c-1-0.5-0.5,1-0.8,1.2
			c-0.9,0.6-2.8-0.6-2.8,1.2c-1.3,0.4-0.6-1.2-0.8-2c0.9-0.3,1.6-0.4,3.5-0.4C201.4,118.3,200.6,117.2,201.3,116.5z"/>
		<path fill-rule="evenodd" clip-rule="evenodd" d="M224.5,116.1c0.7,0.2,2.3-0.5,2.4,0.4c-0.8,1.4-1.5,0.7-2,2
			C224.6,118.2,224.7,117.5,224.5,116.1z"/>
		<path fill-rule="evenodd" clip-rule="evenodd" d="M249.7,116.1c1.3-0.1,0.7,1.7,1.2,2.4c-1.9-0.8-1.1,1.3-2.4,1.2
			C248,118.9,249.7,117.6,249.7,116.1z"/>
		<path fill-rule="evenodd" clip-rule="evenodd" d="M239.9,120.9c0,0.8,0,1.6,0,2.4c-0.5,0-1.1,0-1.6,0
			C237.4,122.2,238.3,120.6,239.9,120.9z"/>
		<path fill-rule="evenodd" clip-rule="evenodd" d="M215.1,119.7c0.7,1.8-1.9,0.5-1.2,2.4c1.4,0.2,2-2.4,3.5-0.8c0,1.5-3,0.2-2.8,2
			c-1.5,0.6-0.1-1.8-1.6-1.2c-0.9,0-0.2,1.7-0.4,2.4c-0.8,0-1.6,0-2.4,0c0-0.8,0-1.6,0-2.4C213.3,122.7,213,120,215.1,119.7z"/>
		<path fill-rule="evenodd" clip-rule="evenodd" d="M254.9,120.1c0.3-0.6,0.6,0.1,1.6-0.4c-0.4,0.9,0.1,1.1-0.8,2
			C254.6,121.9,255.9,119.8,254.9,120.1z"/>
		<path fill-rule="evenodd" clip-rule="evenodd" d="M219.8,120.9c1.4-0.2,1.2,1.2,1.2,2.4c-1.7-0.6-1.1,1.3-1.2,2.4
			c-1.9-0.7-0.5,1.9-2.4,1.2c-0.2-1,0.2-1.4,1.2-1.2C217.9,122.9,220.4,123.4,219.8,120.9z"/>
		<path fill-rule="evenodd" clip-rule="evenodd" d="M236.3,123.2c1.3,0.3,2.1,1,2.4,2.4C237.4,125.3,236.6,124.5,236.3,123.2z"/>
		<path fill-rule="evenodd" clip-rule="evenodd" d="M251.3,126c-0.2-0.6-1.2-0.3-0.8-1.6c0.7,0.2,2.3-0.5,2.4,0.4
			c-0.1,1.2-1.7,0.9-2,2C250.4,126.6,250.9,126.1,251.3,126z"/>
		<path fill-rule="evenodd" clip-rule="evenodd" d="M256.8,127.9c0.4,0.1,0.2,0.4,0,0.4c-0.1,0.3,0.2,0.4,0.4,0.4
			C256.7,129.9,256,128.3,256.8,127.9z"/>
		<path fill-rule="evenodd" clip-rule="evenodd" d="M215.1,129.5c0.1-0.5,0.7-0.3,1.2-0.4c0.1,0.5-0.1,0.7-0.4,0.8
			c-0.1,0.3,0.2,0.4,0.4,0.4C215.6,131.2,215.2,129.6,215.1,129.5z"/>
		<path fill-rule="evenodd" clip-rule="evenodd" d="M242.6,129.1c0.3,0,0.5,0,0.8,0c0.2,1.6-1.7,1.2-1.6,2.8
			c-0.7-0.1-0.9-0.7-0.8-1.6C242.6,130.9,241.9,129.3,242.6,129.1z"/>
		<path fill-rule="evenodd" clip-rule="evenodd" d="M260,130.7c0.4,1.4-1.9,0.2-1.2,2c-0.4,0-0.8,0-1.2,0c0-0.4,0-0.8,0-1.2
			C259.3,132,258.8,129.5,260,130.7z"/>
		<path fill-rule="evenodd" clip-rule="evenodd" d="M263.5,131.5c-0.5,1-0.9,2.3-2.4,2.4C261.2,132.3,262.7,132.3,263.5,131.5z"/>
		<path fill-rule="evenodd" clip-rule="evenodd" d="M210.3,133.9c1-0.1,1.3,0.5,1.2,1.6c-0.8-0.1-1.2,0.1-1.2,0.8
			C209.3,135.9,210.9,135,210.3,133.9z"/>
		<path fill-rule="evenodd" clip-rule="evenodd" d="M215.1,135c1.8,0,1.7,2,3.2,2.4c0.9,0.1,0.2-1.4,0.4-2c0.3,1.1,2.1,0.8,3.5,0.8
			c-0.1,1.4-1.2,1.7-2,2.4c-1.6,0.1,0.1-0.6-0.8-1.2c-0.6,0.3-0.7,2.4-1.6,1.6c-1.5,1.6,0.5,3.1,0.8,4.3c-1.9,0.7-0.5-1.9-2.4-1.2
			c0-1,0.4-2.5-1.2-2c0.2-1.1-0.7-3.3,1.2-2.8C216.9,135.6,214.4,136.9,215.1,135z"/>
		<path fill-rule="evenodd" clip-rule="evenodd" d="M224.5,137.4c0.2-0.7-0.5-2.3,0.4-2.4c1.6-0.3,0.2,2.4,1.2,2.8
			C225.8,139,225.8,136.6,224.5,137.4z"/>
		<path fill-rule="evenodd" clip-rule="evenodd" d="M267.1,136.2c-1.9-0.7-0.5,1.8-2.4,1.2c-0.3-1.6,1.5-1.2,1.6-2.4
			c1.4-0.3,0.5,1.9,1.6,2C267.7,138.1,266.6,137,267.1,136.2z"/>
		<path fill-rule="evenodd" clip-rule="evenodd" d="M249.3,145.7c0-0.6,0.2-1.5-0.4-1.6c0.1-1.1,1.6-0.7,2.8-0.8
			c-0.8,2.4,1.3,1.9,1.2,3.5C251.2,146.9,251.7,144.9,249.3,145.7z"/>
		<path fill-rule="evenodd" clip-rule="evenodd" d="M229.3,148.8c-0.6-1.8,2.6,0.2,2-1.6c0.3,1.6,0.8,3.1,1.6,4.3
			C231.1,151.2,230.7,149.5,229.3,148.8z"/>
		<path fill-rule="evenodd" clip-rule="evenodd" d="M241.1,151.6c0-0.8,0-1.6,0-2.4c0.8,0,1.6,0,2.4,0c0.1,1-0.1,1.7-1.2,1.6
			c-0.1,0.3,0.2,0.4,0.4,0.4C242.3,151.8,242.1,151.1,241.1,151.6z"/>
		<path fill-rule="evenodd" clip-rule="evenodd" d="M234,150.4c1.3,0.3,2.1,1,2.4,2.4C235,152.5,234.2,151.7,234,150.4z"/>
		<path fill-rule="evenodd" clip-rule="evenodd" d="M200.1,155.5c2-0.9-0.3,0.6,0,0.8C199.6,156,199.7,155.7,200.1,155.5z"/>
		<path fill-rule="evenodd" clip-rule="evenodd" d="M219.8,155.1c0.4,1.3-2.9,2.1,0,2.4c-0.1,1.3-1.3,1.6-2.4,2
			c0-0.4,0.5-0.3,0.8-0.4c-0.8-0.3-0.9-1.5-0.8-2.8C219.3,157,217.9,154.5,219.8,155.1z"/>
		<path fill-rule="evenodd" clip-rule="evenodd" d="M229.3,155.9c0,0.5,0,1,0,1.6c-0.8-0.3-2.4,0.3-1.2,0.8
			c-0.2,0.9-1.9,0.2-2.8,0.4c0.2-0.3,0.4-0.6,0.4-1.2c-0.8,0-1.6,0-2.4,0c-1,1.5,0.9,0.7,1.2,1.2c1,1.5-0.4-0.5-1.2,0.4
			c-0.3,0.3,0.8,0.4,0.8,0.4c-0.1,1.1-2.4,2.7-3.2,2.8c-0.2-1,0.2-1.4,1.2-1.2c0-1.6,0-3.2,0-4.7
			C224.5,156.2,227.5,156.6,229.3,155.9z"/>
		<path fill-rule="evenodd" clip-rule="evenodd" d="M243.4,161c-1.5-0.6-0.8,1-1.6,1.2c-1.7,0.1-0.4-2.5-0.4-3.2
			c1.3,1,2.5,2,4.3,2.4c0.6,1.7-2,0.1-2,1.2C243.2,162.3,243.9,162,243.4,161z"/>
		<path fill-rule="evenodd" clip-rule="evenodd" d="M215.5,159.9c1.5,0,0.2,3,2,2.8c0.4,1.9-3.3-0.4-2.4,2c-1.1-0.2-3.1,0.5-3.5-0.4
			c0.1-1.1,1.4-0.9,1.6-2c1.3-0.3,0.6,0.8,0.4,1.2c0.4,0,0.8,0,1.2,0C215.8,163.1,214.3,160.2,215.5,159.9z"/>
		<path fill-rule="evenodd" clip-rule="evenodd" d="M228.9,164.2c0-0.4-0.5-0.3-0.8-0.4c1.2-1.7,0.8,1.5,2.4,0.8c0,0.8,0,1.6,0,2.4
			c-0.7-0.2-2.3,0.5-2.4-0.4c0.3-1.8,1.8-0.1,1.2-1.6C229.1,164.5,227.1,164.4,228.9,164.2z"/>
		<path fill-rule="evenodd" clip-rule="evenodd" d="M222.2,165.8c1.3,0.3,2.1,1.1,2.4,2.4C223.2,167.9,222.4,167.1,222.2,165.8z"/>
		<path fill-rule="evenodd" clip-rule="evenodd" d="M210.7,167c0.5-0.1,0.7,0.1,0.8,0.4c0,0.3,0,0.5,0,0.8c-0.6,0-1.1-0.1-1.2,0.4
			C209.7,168.7,210.4,167.1,210.7,167z"/>
		<path fill-rule="evenodd" clip-rule="evenodd" d="M204.4,169.3c0.3,0.1,0.4,0.4,0.8,0.4c0.5,0.2-1.1,0.7-1.6,0.4
			C203.7,169.7,204.4,169.8,204.4,169.3z"/>
		<path fill-rule="evenodd" clip-rule="evenodd" d="M232,170.5c1.4-0.4,0.5,1.6,0.8,2.4c-1.8-0.7-0.5,1.8-2.4,1.2
			C230.8,172.7,231.8,172,232,170.5z"/>
		<path fill-rule="evenodd" clip-rule="evenodd" d="M240.3,171.7c1.4-0.4,0.5,1.6,0.8,2.4c-1-0.2-1.4,0.2-1.2,1.2
			c-2.1,0.3-2.8-0.9-3.5-2c1.4-1.3,1.1,1.6,3.2,0.8C240.6,174.1,239.2,171.6,240.3,171.7z"/>
		<path fill-rule="evenodd" clip-rule="evenodd" d="M267.1,172.9c0-0.3,0-0.5,0-0.8c0.3,0.1,0.4-0.2,0.4-0.4c0.7,0.9,2,1.2,3.2,1.6
			c0.4,1.4-1.6,0.5-2.4,0.8C268.5,173,268.1,172.6,267.1,172.9z"/>
		<path fill-rule="evenodd" clip-rule="evenodd" d="M258,174c0.4,0.1,0.2,0.4,0,0.4c0,0.4,0.5,0.3,0.8,0.4c-0.1,0.5-0.7,0.3-1.2,0.4
			C257.5,174.6,258,174.5,258,174z"/>
		<path fill-rule="evenodd" clip-rule="evenodd" d="M249.3,178.8c0-1,0.4-2.5-1.2-2c0-0.6-0.2-1.5,0.4-1.6c0.7,0.9,2,1.2,3.2,1.6
			c0.6,1.5-1.8,0.1-1.2,1.6c0.2,0.9,2.1,0,2.4,0.8c-1.4,0.4-0.1,0.2,0,2C250.9,181.2,251.4,178.7,249.3,178.8z"/>
		<path fill-rule="evenodd" clip-rule="evenodd" d="M260,176.4c0.6,1.5-1,0.8-1.2,1.6c0.3,1.5,2.4,1.3,2.4,3.2
			c-1.5-0.5-2.2,0.4-3.5-0.4c1.7-2.1-2.6-2.3-0.8-4.3c1.2-0.4,0.7,0.9,0.8,1.6C259.1,178.1,258.2,176,260,176.4z"/>
		<path fill-rule="evenodd" clip-rule="evenodd" d="M238.7,177.6c1.3,0.3,2.1,1,2.4,2.4C239.8,179.7,239,178.9,238.7,177.6z"/>
		<path fill-rule="evenodd" clip-rule="evenodd" d="M215.1,181.5c0.2-0.6,0.5,0.2,1.2,0c0,0.4,0,0.8,0,1.2c-0.7-0.1-0.7,0.3-0.8,0.8
			c-0.9-0.2-0.4-2.5,0.4-1.2C215.7,182,215.5,181.6,215.1,181.5z"/>
		<path fill-rule="evenodd" clip-rule="evenodd" d="M277.7,181.1c-0.3,1.3-1,2.1-2.4,2.4C275.6,182.2,276.4,181.4,277.7,181.1z"/>
		<path fill-rule="evenodd" clip-rule="evenodd" d="M211.5,183.5c1.2,0.4,0.9,0,2.4,0c-1.3,1.6,1.2,2,1.2,3.5
			c-1.9,0.4-1.9-1-3.2-1.2c-0.8,0.2,0,1.8-1.6,1.2c0-0.4,0-0.8,0-1.2C212.4,185,210.3,185.9,211.5,183.5z"/>
		<path fill-rule="evenodd" clip-rule="evenodd" d="M257.6,184.3c0.3-0.6,1-0.8,2-0.8c-0.1,1.4,2,0.6,1.6,2.4
			C259.4,185.9,259.8,183.8,257.6,184.3z"/>
		<path fill-rule="evenodd" clip-rule="evenodd" d="M279.3,185.9c0.7,0.4,0.9,1.2,0.8,2.4c-0.8-0.1-1.2,0.1-1.2,0.8
			c-0.1,1.1,2.4-0.3,2.4,0.8c0.4,1.4-1.6,0.5-2.4,0.8c0.6-1.5-1-0.8-1.2-1.6C278.3,188,279.3,187.5,279.3,185.9z"/>
		<path fill-rule="evenodd" clip-rule="evenodd" d="M267.1,189.4c0.9,1.4-0.8,0.5-1.2,1.2c-0.2,0.5,0.3,1.5,0,2
			c0.6-0.8-2-0.5-1.2,1.6c1.5,0.6,0.8-1,1.6-1.2c0.8,0.7,1.9,1,2,2.4c-1.6-0.2-1.9-2.3-2.8,0c-1.7-0.4-1.3-2.9-3.9-2.4
			c0-1.3-1-2.1,0.8-2.4c-0.3,0.4-0.4,0.9-0.4,1.6c0.5-0.5,1.4-0.4,2.4-0.4C265.2,191,265.5,189.5,267.1,189.4z"/>
		<path fill-rule="evenodd" clip-rule="evenodd" d="M223.3,193c-0.4,1.6-1.4,2.5-3.5,2.4c0.2-1-0.2-1.4-1.2-1.2
			c-0.3-0.9-0.3-2.5,0.4-3.5c1.3,0.8,0.9,3.3,2.8,3.5C222.5,194,221.8,192.3,223.3,193z"/>
		<path fill-rule="evenodd" clip-rule="evenodd" d="M228.1,190.6c1.7,0.7,2.9,1.9,3.5,3.5c-2-1.1-1.5-1.1-3.5,0
			C229.2,192.1,229.2,192.6,228.1,190.6z"/>
		<path fill-rule="evenodd" clip-rule="evenodd" d="M201.3,195.3c0.3,0,0.5,0,0.8,0c0,0.4,0,0.8,0,1.2c-1-0.2-1.4,0.2-1.2,1.2
			c-0.3,0-0.5,0-0.8,0c-0.2-0.3-0.4-0.6-0.4-1.2C200.8,197.6,200.6,195.7,201.3,195.3z"/>
		<path fill-rule="evenodd" clip-rule="evenodd" d="M232.8,197.7c-1.6-0.3-2.5,0.2-2.8,1.2c-1.4,0.4-0.5-1.6-0.8-2.4
			c1,0.3,3.4-0.8,1.6-0.8c-0.1-0.9,1.4-0.2,2-0.4c-0.2,1,0.2,1.4,1.2,1.2c-0.8,2.4,1.3,1.9,1.2,3.5
			C233.8,199.8,233.1,199,232.8,197.7z"/>
		<path fill-rule="evenodd" clip-rule="evenodd" d="M255.6,197.7c-0.5-0.1-0.4-0.8,0-0.8c-0.4-0.4-0.8-0.8-1.2-1.2
			c-0.1-0.9,1.4-0.2,2-0.4c0.5,1-0.9,1.9,0,2C256.3,197.9,255.7,196.9,255.6,197.7z"/>
		<path fill-rule="evenodd" clip-rule="evenodd" d="M237.9,197.7c-0.7-0.3-0.1-0.7,0-1.2c0.3,0,0.5,0,0.8,0
			c-0.6,1.7,1.3,1.1,2.4,1.2c-0.2,0.7,0.5,2.3-0.4,2.4C239.4,199.9,238.7,197.1,237.9,197.7z"/>
		<path fill-rule="evenodd" clip-rule="evenodd" d="M244.6,196.5c1.3,0.3,2.1,1.1,2.4,2.4C245.7,198.6,244.9,197.8,244.6,196.5z"/>
		<path fill-rule="evenodd" clip-rule="evenodd" d="M278.9,196.9c-0.1,1.2-1.9,0.7-1.2,2.8c-2.1,0.4-1.1-0.2-3.5,0.4
			c0.7-1.8-1.8-0.5-1.2-2.4c1.5-0.6,0.8,1,1.6,1.2C275.7,198,278,196.7,278.9,196.9z"/>
		<path fill-rule="evenodd" clip-rule="evenodd" d="M258.8,200.4c1.1,0.4,1.8-1.5,0-2c-0.4-1.4,1.6-0.5,2.4-0.8
			c0.1,1.4-0.1,2.6-0.4,3.5c-0.6,0.1-0.7-0.4-1.2-0.4c-0.1,1.2,0.9,1.2,0.8,2.4C259.1,202.4,259.3,201.2,258.8,200.4z"/>
		<path fill-rule="evenodd" clip-rule="evenodd" d="M243.4,202c1.4-2.6,2.4,1.4,4.7,0.4c0.2,1.9,0.2,1.7,0,3.5c-0.8,0-1.6,0-2.4,0
			C246.4,203.3,245.5,202.1,243.4,202z"/>
		<path fill-rule="evenodd" clip-rule="evenodd" d="M264.7,201.2c1.3,0.3,2.1,1,2.4,2.4C265.8,203.3,265,202.5,264.7,201.2z"/>
		<path fill-rule="evenodd" clip-rule="evenodd" d="M232,204c0.5-1.1,1,1,0.8,2c-1.2,0-2.4,0-3.5,0c0.7-1.4,2.1-1.8,1.2-3.2
			c0.8-1.3,1.5,0.8,1.2,2C232.1,204.6,232.6,204.1,232,204z"/>
		<path fill-rule="evenodd" clip-rule="evenodd" d="M238.7,202.4c0.3,0,0.5,0,0.8,0c0.2,0.3,0.4,0.6,0.4,1.2
			c-1.8-0.7-0.5,1.9-2.4,1.2c0-0.4,0-0.8,0-1.2C238.6,203.8,238.9,203.4,238.7,202.4z"/>
		<path fill-rule="evenodd" clip-rule="evenodd" d="M220.2,203.6c0-0.1,0.4-0.4,0.4,0.8C220.6,204.7,219.7,205.2,220.2,203.6z"/>
		<path fill-rule="evenodd" clip-rule="evenodd" d="M255.3,208.3c-1.7,0.7-3,1.7-4.7,2.4c0,1.1,0,2.1,0,3.2
			c-0.5,0.5-1.4,0.4-2.4,0.4c-0.3-1.3-1.1-2.1-2.4-2.4c0.7,1.5-2.5,0.7-2.8,2.4c-0.5-0.1-1.7-3.2-1.6-2.8c-0.2-0.5-0.8-1.5,0-2
			c1.6,0.1,0.1,3.3,2.8,2.4c0.5-0.1,0.3-0.7,0.4-1.2c0.8,0,1.6,0,2.4,0c0.1,1.4,1.2,1.7,2,2.4c0.9-0.4,0.1-1.7,0.4-2.4
			c0.1-0.1,1.1,0.1,1.2,0c0.6-0.6-0.6-3.2,1.2-2.8c0.2-0.8-0.6-0.8-1.2-0.8c0.9-2.6-1.5-2-1.6-3.5c1.3,0,2.6,0,3.9,0
			c0,0.8,0,1.6,0,2.4c1.5,0.6,0.8-1,1.6-1.2c2.1-0.3-0.7,4.4,2,3.5c0.2,0.9-0.5,2.9,0.4,3.2c-1.6-0.1-0.6,0-2.8,0.4
			C253.9,210.1,256,210.6,255.3,208.3z"/>
		<path fill-rule="evenodd" clip-rule="evenodd" d="M202.1,204.8c-0.3,1.3-1,2.1-2.4,2.4C200,205.8,200.8,205,202.1,204.8z"/>
		<path fill-rule="evenodd" clip-rule="evenodd" d="M265.5,204.8c0.1,1.2,1.8,0.8,1.6,2.4c0.5,0.5-3.4-2.2-3.2-1.6
			C263.5,204.5,264.5,205.9,265.5,204.8z"/>
		<path fill-rule="evenodd" clip-rule="evenodd" d="M218.6,209.1c0-0.3,0-0.5,0-0.8c0.4,0,0.8,0,1.2,0c-0.7,1.8,1.6,0.5,1.2,2
			c-0.3,0.1-0.4-0.2-0.4-0.4c-0.4,0.1-0.2,0.4,0,0.4C219.9,211.4,219.6,209,218.6,209.1z"/>
		<path fill-rule="evenodd" clip-rule="evenodd" d="M269,211.1c0.9,0.1-0.5,1.1-0.4,1.6c0.3,0.1,0.4-0.2,0.4-0.4
			c0.4,1.6-0.7-0.5-2-0.4c0.2-0.3,0.5-0.7,0-0.8C267.5,209.6,268.6,212.6,269,211.1z"/>
		<path fill-rule="evenodd" clip-rule="evenodd" d="M278.5,209.9c0.4-0.4,0.9-0.3,1.6,0c-0.1,0.3-0.4,0.4-0.4,0.8
			c-0.3,0-0.5,0-0.8,0C279,210.2,278.8,210,278.5,209.9z"/>
		<path fill-rule="evenodd" clip-rule="evenodd" d="M206.8,211.9c1.2,0.9,1.5,2.7,3.5,2.8c-0.1,1.1-1.4,0.9-1.6,2
			c-1.5-1.7-1.3-0.7-3.2,0C206.1,215.2,207.4,214.4,206.8,211.9z"/>
		<path fill-rule="evenodd" clip-rule="evenodd" d="M214.3,213c2.4,0.2-0.7,4.7,0.8,3.9c-0.3,1.2-1.3-0.2-2,0
			c0.4,0.5,0.3,0.8-0.4,0.8C213.7,216.7,213.8,214.6,214.3,213z"/>
		<path fill-rule="evenodd" clip-rule="evenodd" d="M221.4,213.8c-1.9-1.9,2.2,0.2,0.4,0.4C221.3,214.3,221.6,214,221.4,213.8z"/>
		<path fill-rule="evenodd" clip-rule="evenodd" d="M235.2,220.1c0-0.4,0-0.8,0-1.2c1.9,0.1,2.9,0.3,3.5,2.4
			C236.8,221.2,237.4,219.1,235.2,220.1z"/>
		<path fill-rule="evenodd" clip-rule="evenodd" d="M227.7,220.5c-0.4-0.7,0.6,0.5,0.4,2c-0.4,0-0.8,0-1.2,0
			C226.6,221.2,227.2,221,227.7,220.5z"/>
		<path fill-rule="evenodd" clip-rule="evenodd" d="M260.4,220.1c0.4,0,0.3,0.5,0.4,0.8c0.6-0.2,0.3-1.2,1.6-0.8c0.5,1-1.2,1.6,0,2
			C261.9,222.4,259.9,221.2,260.4,220.1z"/>
		<path fill-rule="evenodd" clip-rule="evenodd" d="M241.1,222.5C239.2,221.5,240.6,220.1,241.1,222.5L241.1,222.5z"/>
		<path fill-rule="evenodd" clip-rule="evenodd" d="M203.3,222.1c0.8-2,0.8,0.9,2.4,0.4c0,1.2,0,2.4,0,3.5c-0.4,0-0.8,0-1.2,0
			c0-1,0-2.1,0-3.2C202,223.4,205.1,222.4,203.3,222.1z"/>
		<path fill-rule="evenodd" clip-rule="evenodd" d="M267.1,223.7c0,0.4,0,0.8,0,1.2c-1.7,0.4-2.1-1.4-2.4,0
			c-0.3-0.2-0.6-0.4-1.2-0.4C264.8,223.4,265.5,224.1,267.1,223.7z"/>
		<path fill-rule="evenodd" clip-rule="evenodd" d="M239.1,226.4c0.2-0.6,0.5,0.2,1.2,0c-1,1-0.1,2.1,0.8,2.4
			c-0.6,1.5-2.4,1.8-2.8,3.5c-0.5-0.3-1.1-0.5-2-0.4c0.7-1.8-1.8-0.5-1.2-2.4c0.5,0,1,0,1.6,0c-0.5,0.5-0.2,0.6,0,1.2
			c0.7,0,1.3,0,2,0c-0.5-1.2,0.3-2,0-3.9c0.4,0.2,0.7,0.5,0.8,0C239.6,226.5,239.3,226.5,239.1,226.4z"/>
		<path fill-rule="evenodd" clip-rule="evenodd" d="M212.7,230c-0.2-1.4,1.2-1.2,2.4-1.2c-0.7,2.1,1.2,1.7,1.2,3.2
			C215,231.3,213.7,230.8,212.7,230z"/>
		<path fill-rule="evenodd" clip-rule="evenodd" d="M251.7,231.6c0,0.9,1.7,0.2,2.4,0.4c-0.2,1,0.2,1.4,1.2,1.2c0,0.8,0,1.6,0,2.4
			c-1.7-0.5-0.8,1.5-2.4,1.2c-0.4-2.1,1.3,0.1,1.2-2c0.1-0.9-1.4-0.2-2-0.4c1-1-0.8-0.8-0.4-2.4c-0.8,0-1.6,0-2.4,0
			c0.3-1.5,0-1.4,0.4-2.4c1.7,0.2,2-0.5,3.2,0c0.1,0.9-0.1,1.5-0.4,2C252.3,231.4,252.1,229.8,251.7,231.6z"/>
		<path fill-rule="evenodd" clip-rule="evenodd" d="M224.5,234.3c0.2-1.1-0.5-3.1,0.4-3.5c1.9,0.3-0.1,2.4,0.8,3.2
			c0.2,0.4,2.2,0.9,2,0.4c0.2,0.5-1.7,1.6-3.2,2.4c-0.7-1.8,1.6-0.5,1.2-2C225.6,234.3,225,234.4,224.5,234.3z"/>
		<path fill-rule="evenodd" clip-rule="evenodd" d="M265.1,234.7c0.9,0.7,1.2,2.6,0.8,3.5c0,0-0.8,0-0.8,0c0.1,0.9,0.9,2.4,1.6,3.9
			c0.1-0.9,0.5-0.4,1.2-0.8c0.9,1.8-2.7,0.1-2.4,2.4c-1.1-0.7-1.4-2.3-2-3.5c0.5,0,1.1,0,1.6,0c-0.4-0.5-0.3-0.8,0.4-0.8
			C264.4,238.7,264.6,236,265.1,234.7z"/>
		<path fill-rule="evenodd" clip-rule="evenodd" d="M255.3,239c0-0.8,0-1.6,0-2.4c0.8,0,1.6,0,2.4,0c0,0.8,0,1.6,0,2.4
			c0,0.7,3.1-0.8,3.5,0.4c0,1.5-3,0.2-2.8,2c-1.5-1.7-1.3-0.7-3.2,0C254.8,240.1,258.1,239.3,255.3,239z"/>
		<path fill-rule="evenodd" clip-rule="evenodd" d="M230.4,239c-0.4,0-0.8,0-1.2,0c0-0.4,0-0.8,0-1.2c1.9-0.7,0.5,1.8,2.4,1.2
			c0.1,0.6-0.4,0.7-0.4,1.2c-0.3,0-0.5,0-0.8,0C230.4,239.8,230.4,239.4,230.4,239z"/>
		<path fill-rule="evenodd" clip-rule="evenodd" d="M200.1,240.2c0.3,0.1,0.4,0.4,0.8,0.4c0,0.3,0,0.5,0,0.8
			c-0.3,0.1-0.4-0.2-0.4-0.4c-0.3-0.1-0.4,0.2-0.4,0.4C199.5,241.2,200.3,240.9,200.1,240.2z"/>
		<path fill-rule="evenodd" clip-rule="evenodd" d="M264.7,249.7c-1.7-0.6-0.9,2.2-2.4,0.8c0.4-1.1,1.8-1.1,1.2-3.2
			c0.5,0,1.1,0,1.6,0c-1.6,1.8,0.7,2.5,2,2.8c0.4,1.4-1.6,0.5-2.4,0.8C264.7,250.5,264.7,250.1,264.7,249.7z"/>
		<path fill-rule="evenodd" clip-rule="evenodd" d="M202.5,248.9c-0.1,0.3,0.2,0.4,0.4,0.4c-0.4,0.4-0.7,0.1-2,0.4
			c0-0.4,0-0.8,0-1.2c1.3-0.2,1.2,0.7,2,0C203.5,248.7,202.9,248.9,202.5,248.9z"/>
		<path fill-rule="evenodd" clip-rule="evenodd" d="M205.6,248.5c-0.3,1.3-1,2.1-2.4,2.4C203.5,249.6,204.3,248.8,205.6,248.5z"/>
		<path fill-rule="evenodd" clip-rule="evenodd" d="M199.7,254c-0.6-1.4,1.3-0.2,1.2-1.2c0.1-1.3-1.9-0.4-1.2-2.4
			c0.5,0.5,1.4,0.4,2.4,0.4c-1.2,2.1,0.8,4.4,0.8,5.9C201.9,255.8,200.8,254.9,199.7,254z"/>
		<path fill-rule="evenodd" clip-rule="evenodd" d="M211.5,254.4c1.8-0.7,0.5,1.9,2.4,1.2c-0.2,0.7,0.5,2.3-0.4,2.4
			C212.5,257.1,212.3,255.5,211.5,254.4z"/>
		<path fill-rule="evenodd" clip-rule="evenodd" d="M249.3,255.6c0.4,0,0.8,0,1.2,0c0.1,0.8-0.1,1.2-0.8,1.2
			C250.7,258.3,248.8,257.1,249.3,255.6z"/>
		<path fill-rule="evenodd" clip-rule="evenodd" d="M245.4,258.4c-0.8-0.7,0.9,0.2,1.6-0.4c0,0.4,0,0.8,0,1.2c-0.4,0-0.8,0-1.2,0
			C245.9,258.7,245.7,258.4,245.4,258.4z"/>
		<path fill-rule="evenodd" clip-rule="evenodd" d="M219,260.7c0.3-0.8,1.3,0.4,1.6-0.4c0.7,0.6,1.8,2.9,2.4,2.4
			c0.4,0.1,0.2,0.4,0,0.4c0,0.3,0,0.5,0,0.8c-0.5-1-2.1-0.8-2-2.4c-1.3-0.3-1.2,0.6-1.6,1.2c-0.7,0-1.3,0-2,0c0-0.4,0-0.8,0-1.2
			C218.2,261.7,219.9,260.9,219,260.7z"/>
		<path fill-rule="evenodd" clip-rule="evenodd" d="M250.5,263.1c0.1-0.9-0.1-1.5-0.8-1.6c-1.9-0.6-1,1.6-2.8,1.2
			c-0.7-1.8,1.8-0.5,1.2-2.4c0.8,0,1.6,0,2.4,0c0.3,1.3,1,2.1,2.4,2.4c-0.3,1.4,1,2-0.4,2.4c-1-0.9-2.6-2.4-3.5-0.4
			c-0.3,1.1,1.9-0.3,1.6,0.8c0.3,1.4-3.2,0.9-3.5,0.4C247.9,264.7,248.7,263.3,250.5,263.1z"/>
		<path fill-rule="evenodd" clip-rule="evenodd" d="M202.1,265.4c0.3,1.4-3.2,0.9-3.5,0.4c-0.4-1.2,0.9-0.7,1.6-0.8
			C199,262.9,200.9,265.4,202.1,265.4z"/>
		<path fill-rule="evenodd" clip-rule="evenodd" d="M225.3,269.8c-0.6-0.1-1.3-2-0.4-2.4c1.2,0.8,1,2.2,3.2,1.2c0,0.4,0,0.8,0,1.2
			C227,270.7,225.7,268.2,225.3,269.8z"/>
		<path fill-rule="evenodd" clip-rule="evenodd" d="M215.1,268.6c-0.3,1.3-1.1,2.1-2.4,2.4C213,269.6,213.8,268.9,215.1,268.6z"/>
		<path fill-rule="evenodd" clip-rule="evenodd" d="M241.1,271c0.2-1-0.2-1.4-1.2-1.2c-0.2-1.4,1.2-1.2,2.4-1.2
			c-0.1,2.2,1.9,2.3,3.5,2.8c-0.4,0.7-1.6,0.5-1.2,2c-0.7-0.2-2.3,0.5-2.4-0.4c-0.6-1.5,1.8-0.1,1.2-1.6
			C242.8,270.2,242.4,271,241.1,271z"/>
		<path fill-rule="evenodd" clip-rule="evenodd" d="M224.5,271c0,0.4-0.5,0.3-0.8,0.4c0.4,0.5,1.1,0.7,0.8,2c-1.1,0-2.6,0.2-3.2-0.4
			C222.9,271.9,223.4,271.9,224.5,271z"/>
		<path fill-rule="evenodd" clip-rule="evenodd" d="M239.9,276.9c0,0.4,0,0.8,0,1.2c-2.2-0.5-1.2,3,0,2.8c0.4,1.4-1.9,0.2-1.2,2
			c-1-0.8-1.6,0.6-2.4-0.4c0-2.1,2.4,0.6,2.4-1.2c-0.7-0.8-1-1.9-2.4-2c0.7-2.5-1.4-2.3-1.6-3.9c-0.5,0.3-1.1,0.5-2,0.4
			c0.2-1-0.2-1.4-1.2-1.2c0.2-0.7-0.5-2.3,0.4-2.4c1.4-0.4,0.2,1.9,2,1.2c0,0.5,0,1.1,0,1.6c0.9-0.5,0.7,0.1,2-0.4
			c-0.1,1.4,2,0.6,1.6,2.4C238.9,277.2,239.2,276.1,239.9,276.9z"/>
		<path fill-rule="evenodd" clip-rule="evenodd" d="M242.3,280.4c0.5-1.4,1.8-2.2,1.2-4.7c1.7-0.3,1.1,1.8,1.2,3.2
			c0.2,0.8,1.8,0,1.2,1.6C243.8,279.3,244.3,279.3,242.3,280.4z"/>
		<path fill-rule="evenodd" clip-rule="evenodd" d="M198.9,277.3c0.5-1.2,1.2,0.4,0.4,0.8c0.5,0.1,0.7-0.1,0.8-0.4
			c1.1,0.2-0.6,0.6-0.4,1.2c0.7-0.3,1-1.1,2.4-0.8c0,0.4,0,0.8,0,1.2c-1.2,0-2.4,0-3.5,0C197.9,278,200,277.6,198.9,277.3z"/>
		<path fill-rule="evenodd" clip-rule="evenodd" d="M248.2,280.4c0.3-1.6-0.2-2.5-1.2-2.8c-0.4-1.5,2.1-0.7,2.4-0.4
			c-0.8,3.8,2.3,3.7,2.4,5.5C249.8,282.7,250,280.6,248.2,280.4z"/>
		<path fill-rule="evenodd" clip-rule="evenodd" d="M203.3,278c1.3,0.3,2.1,1.1,2.4,2.4C204.3,280.2,203.5,279.4,203.3,278z"/>
		<path fill-rule="evenodd" clip-rule="evenodd" d="M259.2,278c1.4-0.4,0.5,1.6,0.8,2.4c-1.8-0.7-0.5,1.9-2.4,1.2
			C258,280.3,259,279.6,259.2,278z"/>
		<path fill-rule="evenodd" clip-rule="evenodd" d="M202.1,280.4c0-0.6,1.9,0.2,2.4,0.4c-0.5,1.6-0.8-0.1-2,0c0,0.4,0.5,0.3,0.8,0.4
			C202.3,282.4,202.3,280.4,202.1,280.4z"/>
		<path fill-rule="evenodd" clip-rule="evenodd" d="M249,285.1c-0.4,0-0.3-0.5-0.4-0.8c0.3,0.1,0.4-0.2,0.4-0.4c1.1,2,0.9,0.1,2.8,0
			c0.8,1.5-1.8,1.5-0.8,2c-0.1,0.5-1,0.3-1.6,0.4c0-0.4,0-0.8,0-1.2C249.3,284.7,249,284.9,249,285.1z"/>
		<path fill-rule="evenodd" clip-rule="evenodd" d="M202.1,291.1c1.3,0.3,2.1,1,2.4,2.4C203.1,293.2,202.3,292.4,202.1,291.1z"/>
		<path fill-rule="evenodd" clip-rule="evenodd" d="M241.1,94.9c1.8-0.1,2.5,1,3.5,1.6c-0.7,1.1-1.9,1.7,0,2.4
			c-0.4,1.1-1.8,1.1-1.2,3.2c-2.5-0.3-0.4-3.9-1.2-5.1C242.2,95.8,240.6,96.4,241.1,94.9z"/>
		<path fill-rule="evenodd" clip-rule="evenodd" d="M243.4,113.8c0.3,2.5-0.8,3.6-3.2,3.5c-0.5-0.5-0.4-1.4-0.4-2.4
			C241.5,115,241.1,113,243.4,113.8z"/>
		<path fill-rule="evenodd" clip-rule="evenodd" d="M243.4,123.2c0.4,0,0.8,0,1.2,0c0,0.4,0,0.8,0,1.2c-0.4,0-0.8,0-1.2,0
			C243.4,124,243.4,123.6,243.4,123.2z"/>
		<path fill-rule="evenodd" clip-rule="evenodd" d="M226.9,126.8c1-0.2,1.4,0.2,1.2,1.2c1.5,0.5,2.1-0.6,2.4,1.2
			c-0.9-0.8-1.9,0.4-3.5,0C226.9,128.3,226.9,127.6,226.9,126.8z"/>
		<path fill-rule="evenodd" clip-rule="evenodd" d="M249.3,180.3c-0.5,0.7-1.2,1.1-1.6,2c-1.6,0.2-0.4-2.5-0.8-3.5
			c0.4,0,0.8,0,1.2,0C248.1,179.8,248.8,180,249.3,180.3z"/>
		<path fill-rule="evenodd" clip-rule="evenodd" d="M211.1,196.5c0.5,0,1,0,1.6,0c0,0.4,0,0.8,0,1.2c0.2,0.9,0.6-0.5,1.2,0.4
			c0,1.7-3.2,0.1-3.2,0.8C209.4,198.1,211.4,197.5,211.1,196.5z"/>
		<path fill-rule="evenodd" clip-rule="evenodd" d="M198.5,234.3c0.7,0,1.3,0,2,0c0.4,0.4,0.1,1.5,1.2,1.2c-0.2,0.8-0.6,1.5-2,1.2
			C200.4,234.8,197.9,236.2,198.5,234.3z"/>
		<path fill-rule="evenodd" clip-rule="evenodd" d="M224.5,242.6c1-0.1,1.9-0.1,2.4,0.4C227,244,223.8,244.4,224.5,242.6z"/>
		<path fill-rule="evenodd" clip-rule="evenodd" d="M234,250.9c2.3,0.3,1.4,0.7,3.5,0c-0.6,1.7,1.3,1.1,2.4,1.2
			c-0.6,1.5,1,0.8,1.2,1.6c-0.9,1.1-3.1,0.9-2.8,3.2c-0.7,0-1.3,0-2,0c-0.1-1.9-2.2-1.7-2.4-3.5C236.4,254.7,234.4,252,234,250.9z
			 M236.3,254.4c0.4,0,0.8,0,1.2,0c-0.1-0.6,0.1-1.5-0.4-1.6C237,253.5,235.9,253.2,236.3,254.4z"/>
	</g>
	<polyline fill="none" stroke="#000000" stroke-width="6" stroke-linejoin="round" points="236,73 236,36.3 202,101.9 202,322.3 
		217.8,290.9 	"/>
	<polyline fill="none" stroke="#000000" stroke-width="6" stroke-linejoin="round" points="201.7,322.3 98,264.3 62.7,123 88,88.3 
		235.7,36.3 	"/>
	<polyline fill="none" stroke="#000000" stroke-width="3" stroke-linejoin="round" points="199.3,322.3 62.7,123 201.7,101.9 
		88,88.3 	"/>
</g>
</svg>
